ISO-10303-21;
HEADER;
FILE_DESCRIPTION(('FreeCAD Model'),'2;1');
FILE_NAME('Open CASCADE Shape Model','2026-07-17T13:47:29',(''),(''),
  'Open CASCADE STEP processor 7.8','FreeCAD','Unknown');
FILE_SCHEMA(('AUTOMOTIVE_DESIGN { 1 0 10303 214 1 1 1 1 }'));
ENDSEC;
DATA;
#1 = APPLICATION_PROTOCOL_DEFINITION('international standard',
  'automotive_design',2000,#2);
#2 = APPLICATION_CONTEXT(
  'core data for automotive mechanical design processes');
#3 = SHAPE_DEFINITION_REPRESENTATION(#4,#10);
#4 = PRODUCT_DEFINITION_SHAPE('','',#5);
#5 = PRODUCT_DEFINITION('design','',#6,#9);
#6 = PRODUCT_DEFINITION_FORMATION('','',#7);
#7 = PRODUCT('T2_connector','T2_connector','',(#8));
#8 = PRODUCT_CONTEXT('',#2,'mechanical');
#9 = PRODUCT_DEFINITION_CONTEXT('part definition',#2,'design');
#10 = ADVANCED_BREP_SHAPE_REPRESENTATION('',(#11,#15),#1053);
#11 = AXIS2_PLACEMENT_3D('',#12,#13,#14);
#12 = CARTESIAN_POINT('',(0.,0.,0.));
#13 = DIRECTION('',(0.,0.,1.));
#14 = DIRECTION('',(1.,0.,-0.));
#15 = MANIFOLD_SOLID_BREP('',#16);
#16 = CLOSED_SHELL('',(#17,#45,#69,#94,#114,#134,#174,#198,#219,#268,
    #320,#358,#394,#443,#495,#595,#642,#678,#727,#779,#810,#877,#913,
    #939,#975,#1021));
#17 = ADVANCED_FACE('',(#18,#29),#40,.F.);
#18 = FACE_BOUND('',#19,.F.);
#19 = EDGE_LOOP('',(#20));
#20 = ORIENTED_EDGE('',*,*,#21,.T.);
#21 = EDGE_CURVE('',#22,#22,#24,.T.);
#22 = VERTEX_POINT('',#23);
#23 = CARTESIAN_POINT('',(26.9,0.,-15.));
#24 = CIRCLE('',#25,26.9);
#25 = AXIS2_PLACEMENT_3D('',#26,#27,#28);
#26 = CARTESIAN_POINT('',(0.,0.,-15.));
#27 = DIRECTION('',(0.,0.,1.));
#28 = DIRECTION('',(1.,0.,0.));
#29 = FACE_BOUND('',#30,.T.);
#30 = EDGE_LOOP('',(#31));
#31 = ORIENTED_EDGE('',*,*,#32,.T.);
#32 = EDGE_CURVE('',#33,#33,#35,.T.);
#33 = VERTEX_POINT('',#34);
#34 = CARTESIAN_POINT('',(24.,0.,-15.));
#35 = CIRCLE('',#36,24.);
#36 = AXIS2_PLACEMENT_3D('',#37,#38,#39);
#37 = CARTESIAN_POINT('',(0.,0.,-15.));
#38 = DIRECTION('',(0.,0.,1.));
#39 = DIRECTION('',(1.,0.,0.));
#40 = PLANE('',#41);
#41 = AXIS2_PLACEMENT_3D('',#42,#43,#44);
#42 = CARTESIAN_POINT('',(-2.15E-15,4.E-16,-15.));
#43 = DIRECTION('',(0.,0.,1.));
#44 = DIRECTION('',(1.,0.,0.));
#45 = ADVANCED_FACE('',(#46),#64,.T.);
#46 = FACE_BOUND('',#47,.T.);
#47 = EDGE_LOOP('',(#48,#49,#56,#63));
#48 = ORIENTED_EDGE('',*,*,#21,.T.);
#49 = ORIENTED_EDGE('',*,*,#50,.T.);
#50 = EDGE_CURVE('',#22,#51,#53,.T.);
#51 = VERTEX_POINT('',#52);
#52 = CARTESIAN_POINT('',(26.9,0.,2.));
#53 = B_SPLINE_CURVE_WITH_KNOTS('',1,(#54,#55),.UNSPECIFIED.,.F.,.F.,(2,
    2),(-15.,2.),.PIECEWISE_BEZIER_KNOTS.);
#54 = CARTESIAN_POINT('',(26.9,0.,-15.));
#55 = CARTESIAN_POINT('',(26.9,0.,2.));
#56 = ORIENTED_EDGE('',*,*,#57,.F.);
#57 = EDGE_CURVE('',#51,#51,#58,.T.);
#58 = CIRCLE('',#59,26.9);
#59 = AXIS2_PLACEMENT_3D('',#60,#61,#62);
#60 = CARTESIAN_POINT('',(0.,0.,2.));
#61 = DIRECTION('',(0.,0.,1.));
#62 = DIRECTION('',(1.,0.,0.));
#63 = ORIENTED_EDGE('',*,*,#50,.F.);
#64 = CYLINDRICAL_SURFACE('',#65,26.9);
#65 = AXIS2_PLACEMENT_3D('',#66,#67,#68);
#66 = CARTESIAN_POINT('',(0.,0.,0.));
#67 = DIRECTION('',(0.,0.,1.));
#68 = DIRECTION('',(1.,0.,0.));
#69 = ADVANCED_FACE('',(#70),#89,.F.);
#70 = FACE_BOUND('',#71,.F.);
#71 = EDGE_LOOP('',(#72,#80,#81,#82));
#72 = ORIENTED_EDGE('',*,*,#73,.T.);
#73 = EDGE_CURVE('',#74,#33,#76,.T.);
#74 = VERTEX_POINT('',#75);
#75 = CARTESIAN_POINT('',(24.,0.,0.));
#76 = LINE('',#77,#78);
#77 = CARTESIAN_POINT('',(24.,0.,0.));
#78 = VECTOR('',#79,1.);
#79 = DIRECTION('',(-0.,-0.,-1.));
#80 = ORIENTED_EDGE('',*,*,#32,.T.);
#81 = ORIENTED_EDGE('',*,*,#73,.F.);
#82 = ORIENTED_EDGE('',*,*,#83,.F.);
#83 = EDGE_CURVE('',#74,#74,#84,.T.);
#84 = CIRCLE('',#85,24.);
#85 = AXIS2_PLACEMENT_3D('',#86,#87,#88);
#86 = CARTESIAN_POINT('',(0.,0.,0.));
#87 = DIRECTION('',(0.,0.,1.));
#88 = DIRECTION('',(1.,0.,0.));
#89 = CYLINDRICAL_SURFACE('',#90,24.);
#90 = AXIS2_PLACEMENT_3D('',#91,#92,#93);
#91 = CARTESIAN_POINT('',(0.,0.,0.));
#92 = DIRECTION('',(0.,0.,1.));
#93 = DIRECTION('',(1.,0.,0.));
#94 = ADVANCED_FACE('',(#95,#98),#109,.T.);
#95 = FACE_BOUND('',#96,.T.);
#96 = EDGE_LOOP('',(#97));
#97 = ORIENTED_EDGE('',*,*,#57,.T.);
#98 = FACE_BOUND('',#99,.T.);
#99 = EDGE_LOOP('',(#100));
#100 = ORIENTED_EDGE('',*,*,#101,.F.);
#101 = EDGE_CURVE('',#102,#102,#104,.T.);
#102 = VERTEX_POINT('',#103);
#103 = CARTESIAN_POINT('',(20.5,8.410489706673E-15,1.999999999995));
#104 = CIRCLE('',#105,20.5);
#105 = AXIS2_PLACEMENT_3D('',#106,#107,#108);
#106 = CARTESIAN_POINT('',(0.,0.,2.));
#107 = DIRECTION('',(0.,0.,1.));
#108 = DIRECTION('',(1.,0.,0.));
#109 = PLANE('',#110);
#110 = AXIS2_PLACEMENT_3D('',#111,#112,#113);
#111 = CARTESIAN_POINT('',(-1.95E-15,-5.E-17,2.));
#112 = DIRECTION('',(0.,0.,1.));
#113 = DIRECTION('',(1.,0.,0.));
#114 = ADVANCED_FACE('',(#115,#118),#129,.F.);
#115 = FACE_BOUND('',#116,.F.);
#116 = EDGE_LOOP('',(#117));
#117 = ORIENTED_EDGE('',*,*,#83,.T.);
#118 = FACE_BOUND('',#119,.F.);
#119 = EDGE_LOOP('',(#120));
#120 = ORIENTED_EDGE('',*,*,#121,.F.);
#121 = EDGE_CURVE('',#122,#122,#124,.T.);
#122 = VERTEX_POINT('',#123);
#123 = CARTESIAN_POINT('',(18.,0.,0.));
#124 = CIRCLE('',#125,18.);
#125 = AXIS2_PLACEMENT_3D('',#126,#127,#128);
#126 = CARTESIAN_POINT('',(0.,0.,0.));
#127 = DIRECTION('',(0.,0.,1.));
#128 = DIRECTION('',(1.,0.,0.));
#129 = PLANE('',#130);
#130 = AXIS2_PLACEMENT_3D('',#131,#132,#133);
#131 = CARTESIAN_POINT('',(-1.95E-15,-5.E-17,0.));
#132 = DIRECTION('',(0.,0.,1.));
#133 = DIRECTION('',(1.,0.,0.));
#134 = ADVANCED_FACE('',(#135),#169,.T.);
#135 = FACE_BOUND('',#136,.F.);
#136 = EDGE_LOOP('',(#137,#145,#146,#163));
#137 = ORIENTED_EDGE('',*,*,#138,.F.);
#138 = EDGE_CURVE('',#102,#139,#141,.T.);
#139 = VERTEX_POINT('',#140);
#140 = CARTESIAN_POINT('',(20.5,9.246896640493E-17,2.599999999995));
#141 = LINE('',#142,#143);
#142 = CARTESIAN_POINT('',(20.5,0.,2.));
#143 = VECTOR('',#144,1.);
#144 = DIRECTION('',(0.,0.,1.));
#145 = ORIENTED_EDGE('',*,*,#101,.F.);
#146 = ORIENTED_EDGE('',*,*,#147,.T.);
#147 = EDGE_CURVE('',#102,#148,#150,.T.);
#148 = VERTEX_POINT('',#149);
#149 = CARTESIAN_POINT('',(20.500000000064,-4.195193692436E-09,
    2.749999999987));
#150 = B_SPLINE_CURVE_WITH_KNOTS('',11,(#151,#152,#153,#154,#155,#156,
    #157,#158,#159,#160,#161,#162),.UNSPECIFIED.,.F.,.F.,(12,12),(0.,
    6.285617029864),.PIECEWISE_BEZIER_KNOTS.);
#151 = CARTESIAN_POINT('',(20.5,1.261573456001E-14,1.999999999993));
#152 = CARTESIAN_POINT('',(20.500000001827,11.709572714239,
    2.068181818119));
#153 = CARTESIAN_POINT('',(13.144240995947,23.418879322792,
    2.136363636374));
#154 = CARTESIAN_POINT('',(-1.582537187305,29.994551551941,2.20454545492
    ));
#155 = CARTESIAN_POINT('',(-19.5735480358,26.282497262843,2.272727271316
    ));
#156 = CARTESIAN_POINT('',(-32.98814105603,10.838929595163,
    2.340909093369));
#157 = CARTESIAN_POINT('',(-32.98814104517,-10.83892956904,
    2.409090906453));
#158 = CARTESIAN_POINT('',(-19.57354805083,-26.28249730498,
    2.477272729024));
#159 = CARTESIAN_POINT('',(-1.582537189271,-29.99455150786,
    2.545454544697));
#160 = CARTESIAN_POINT('',(13.144240990971,-23.41887934846,
    2.613636363795));
#161 = CARTESIAN_POINT('',(20.499999998869,-11.70957271237,
    2.681818181805));
#162 = CARTESIAN_POINT('',(20.500000000064,-4.195429778938E-09,
    2.749999999985));
#163 = ORIENTED_EDGE('',*,*,#164,.F.);
#164 = EDGE_CURVE('',#139,#148,#165,.T.);
#165 = LINE('',#166,#167);
#166 = CARTESIAN_POINT('',(20.5,0.,2.));
#167 = VECTOR('',#168,1.);
#168 = DIRECTION('',(0.,0.,1.));
#169 = CYLINDRICAL_SURFACE('',#170,20.5);
#170 = AXIS2_PLACEMENT_3D('',#171,#172,#173);
#171 = CARTESIAN_POINT('',(0.,0.,2.));
#172 = DIRECTION('',(-0.,-0.,-1.));
#173 = DIRECTION('',(1.,0.,0.));
#174 = ADVANCED_FACE('',(#175),#193,.F.);
#175 = FACE_BOUND('',#176,.T.);
#176 = EDGE_LOOP('',(#177,#184,#185,#186));
#177 = ORIENTED_EDGE('',*,*,#178,.T.);
#178 = EDGE_CURVE('',#179,#122,#181,.T.);
#179 = VERTEX_POINT('',#180);
#180 = CARTESIAN_POINT('',(18.,0.,6.));
#181 = B_SPLINE_CURVE_WITH_KNOTS('',1,(#182,#183),.UNSPECIFIED.,.F.,.F.,
  (2,2),(-6.,0.),.PIECEWISE_BEZIER_KNOTS.);
#182 = CARTESIAN_POINT('',(18.,-4.40872847693E-15,6.));
#183 = CARTESIAN_POINT('',(18.,-4.40872847693E-15,0.));
#184 = ORIENTED_EDGE('',*,*,#121,.F.);
#185 = ORIENTED_EDGE('',*,*,#178,.F.);
#186 = ORIENTED_EDGE('',*,*,#187,.T.);
#187 = EDGE_CURVE('',#179,#179,#188,.T.);
#188 = CIRCLE('',#189,18.);
#189 = AXIS2_PLACEMENT_3D('',#190,#191,#192);
#190 = CARTESIAN_POINT('',(0.,0.,6.));
#191 = DIRECTION('',(0.,0.,1.));
#192 = DIRECTION('',(1.,0.,0.));
#193 = CYLINDRICAL_SURFACE('',#194,18.);
#194 = AXIS2_PLACEMENT_3D('',#195,#196,#197);
#195 = CARTESIAN_POINT('',(0.,0.,0.));
#196 = DIRECTION('',(-0.,-0.,-1.));
#197 = DIRECTION('',(1.,0.,0.));
#198 = ADVANCED_FACE('',(#199),#214,.F.);
#199 = FACE_BOUND('',#200,.F.);
#200 = EDGE_LOOP('',(#201,#202,#209));
#201 = ORIENTED_EDGE('',*,*,#138,.T.);
#202 = ORIENTED_EDGE('',*,*,#203,.T.);
#203 = EDGE_CURVE('',#139,#204,#206,.T.);
#204 = VERTEX_POINT('',#205);
#205 = CARTESIAN_POINT('',(20.9,9.709676960363E-15,2.299999999992));
#206 = B_SPLINE_CURVE_WITH_KNOTS('',1,(#207,#208),.UNSPECIFIED.,.F.,.F.,
  (2,2),(-0.5,-0.),.PIECEWISE_BEZIER_KNOTS.);
#207 = CARTESIAN_POINT('',(20.5,9.246896640493E-17,2.599999999995));
#208 = CARTESIAN_POINT('',(20.9,9.709676960363E-15,2.299999999992));
#209 = ORIENTED_EDGE('',*,*,#210,.T.);
#210 = EDGE_CURVE('',#204,#102,#211,.T.);
#211 = B_SPLINE_CURVE_WITH_KNOTS('',1,(#212,#213),.UNSPECIFIED.,.F.,.F.,
  (2,2),(0.,0.5),.PIECEWISE_BEZIER_KNOTS.);
#212 = CARTESIAN_POINT('',(20.9,9.709676960363E-15,2.299999999992));
#213 = CARTESIAN_POINT('',(20.5,1.261573456001E-14,1.999999999993));
#214 = PLANE('',#215);
#215 = AXIS2_PLACEMENT_3D('',#216,#217,#218);
#216 = CARTESIAN_POINT('',(20.625,5.107025913268E-16,2.299999999989));
#217 = DIRECTION('',(2.019483917366E-28,1.,0.));
#218 = DIRECTION('',(1.060031841391E-30,0.,1.));
#219 = ADVANCED_FACE('',(#220),#263,.T.);
#220 = FACE_BOUND('',#221,.F.);
#221 = EDGE_LOOP('',(#222,#239,#240,#257));
#222 = ORIENTED_EDGE('',*,*,#223,.F.);
#223 = EDGE_CURVE('',#139,#224,#226,.T.);
#224 = VERTEX_POINT('',#225);
#225 = CARTESIAN_POINT('',(20.500000000064,-4.195193470391E-09,
    3.349999999989));
#226 = B_SPLINE_CURVE_WITH_KNOTS('',11,(#227,#228,#229,#230,#231,#232,
    #233,#234,#235,#236,#237,#238),.UNSPECIFIED.,.F.,.F.,(12,12),(0.,
    6.285617029864),.PIECEWISE_BEZIER_KNOTS.);
#227 = CARTESIAN_POINT('',(20.5,9.246896640493E-17,2.599999999995));
#228 = CARTESIAN_POINT('',(20.500000001828,11.709572714238,
    2.668181818121));
#229 = CARTESIAN_POINT('',(13.144240995948,23.418879322791,
    2.736363636377));
#230 = CARTESIAN_POINT('',(-1.582537187315,29.994551551944,
    2.804545454921));
#231 = CARTESIAN_POINT('',(-19.57354803577,26.282497262837,
    2.872727271319));
#232 = CARTESIAN_POINT('',(-32.98814105608,10.838929595164,
    2.940909093368));
#233 = CARTESIAN_POINT('',(-32.98814104513,-10.83892956904,
    3.009090906458));
#234 = CARTESIAN_POINT('',(-19.57354805086,-26.28249730499,
    3.077272729024));
#235 = CARTESIAN_POINT('',(-1.582537189263,-29.99455150785,3.1454545447)
  );
#236 = CARTESIAN_POINT('',(13.144240990971,-23.41887934846,
    3.213636363797));
#237 = CARTESIAN_POINT('',(20.499999998868,-11.70957271237,
    3.281818181808));
#238 = CARTESIAN_POINT('',(20.500000000064,-4.195413880494E-09,
    3.349999999988));
#239 = ORIENTED_EDGE('',*,*,#164,.T.);
#240 = ORIENTED_EDGE('',*,*,#241,.T.);
#241 = EDGE_CURVE('',#148,#242,#244,.T.);
#242 = VERTEX_POINT('',#243);
#243 = CARTESIAN_POINT('',(20.49999999863,-8.529286610326E-09,
    3.500000000115));
#244 = B_SPLINE_CURVE_WITH_KNOTS('',11,(#245,#246,#247,#248,#249,#250,
    #251,#252,#253,#254,#255,#256),.UNSPECIFIED.,.F.,.F.,(12,12),(0.,
    6.285617029864),.PIECEWISE_BEZIER_KNOTS.);
#245 = CARTESIAN_POINT('',(20.500000000065,-4.195415267219E-09,
    2.749999999989));
#246 = CARTESIAN_POINT('',(20.499999997723,11.709572710116,
    2.818181818697));
#247 = CARTESIAN_POINT('',(13.144241021926,23.418879319204,
    2.886363634501));
#248 = CARTESIAN_POINT('',(-1.58253723536,29.994551546224,2.954545459814
    ));
#249 = CARTESIAN_POINT('',(-19.57354793292,26.282497286939,
    3.022727262851));
#250 = CARTESIAN_POINT('',(-32.98814118158,10.83892955571,3.090909104596
    ));
#251 = CARTESIAN_POINT('',(-32.98814091748,-10.83892949749,
    3.159090895424));
#252 = CARTESIAN_POINT('',(-19.5735481524,-26.28249736219,3.227272737422
    ));
#253 = CARTESIAN_POINT('',(-1.582537141148,-29.99455146633,
    3.295454540078));
#254 = CARTESIAN_POINT('',(13.144240964112,-23.41887936698,
    3.363636365767));
#255 = CARTESIAN_POINT('',(20.500000001632,-11.70957271231,
    3.431818181352));
#256 = CARTESIAN_POINT('',(20.499999998629,-8.529726134168E-09,
    3.500000000116));
#257 = ORIENTED_EDGE('',*,*,#258,.F.);
#258 = EDGE_CURVE('',#224,#242,#259,.T.);
#259 = LINE('',#260,#261);
#260 = CARTESIAN_POINT('',(20.5,0.,2.));
#261 = VECTOR('',#262,1.);
#262 = DIRECTION('',(0.,0.,1.));
#263 = CYLINDRICAL_SURFACE('',#264,20.5);
#264 = AXIS2_PLACEMENT_3D('',#265,#266,#267);
#265 = CARTESIAN_POINT('',(0.,0.,2.));
#266 = DIRECTION('',(-0.,-0.,-1.));
#267 = DIRECTION('',(1.,0.,0.));
#268 = ADVANCED_FACE('',(#269),#295,.T.);
#269 = FACE_BOUND('',#270,.T.);
#270 = EDGE_LOOP('',(#271,#288,#289,#290));
#271 = ORIENTED_EDGE('',*,*,#272,.F.);
#272 = EDGE_CURVE('',#204,#273,#275,.T.);
#273 = VERTEX_POINT('',#274);
#274 = CARTESIAN_POINT('',(20.900000000064,-4.194374458866E-09,
    3.049999999987));
#275 = B_SPLINE_CURVE_WITH_KNOTS('',11,(#276,#277,#278,#279,#280,#281,
    #282,#283,#284,#285,#286,#287),.UNSPECIFIED.,.F.,.F.,(12,12),(0.,
    6.285617029864),.PIECEWISE_BEZIER_KNOTS.);
#276 = CARTESIAN_POINT('',(20.9,9.709676960363E-15,2.299999999992));
#277 = CARTESIAN_POINT('',(20.900000001828,11.938052179936,
    2.368181818118));
#278 = CARTESIAN_POINT('',(13.400713990923,23.875833076479,
    2.436363636374));
#279 = CARTESIAN_POINT('',(-1.613415961607,30.579811062775,
    2.504545454919));
#280 = CARTESIAN_POINT('',(-19.95547092465,26.795326538876,
    2.572727271316));
#281 = CARTESIAN_POINT('',(-33.63181210079,11.050420820472,
    2.640909093366));
#282 = CARTESIAN_POINT('',(-33.63181208998,-11.05042079435,
    2.709090906455));
#283 = CARTESIAN_POINT('',(-19.95547093964,-26.79532658101,
    2.777272729022));
#284 = CARTESIAN_POINT('',(-1.613415963592,-30.5798110187,2.845454544697
    ));
#285 = CARTESIAN_POINT('',(13.400713985957,-23.87583310214,
    2.913636363794));
#286 = CARTESIAN_POINT('',(20.899999998869,-11.93805217807,
    2.981818181805));
#287 = CARTESIAN_POINT('',(20.900000000064,-4.194580591771E-09,
    3.049999999985));
#288 = ORIENTED_EDGE('',*,*,#210,.T.);
#289 = ORIENTED_EDGE('',*,*,#147,.T.);
#290 = ORIENTED_EDGE('',*,*,#291,.F.);
#291 = EDGE_CURVE('',#273,#148,#292,.T.);
#292 = B_SPLINE_CURVE_WITH_KNOTS('',1,(#293,#294),.UNSPECIFIED.,.F.,.F.,
  (2,2),(0.,0.5),.PIECEWISE_BEZIER_KNOTS.);
#293 = CARTESIAN_POINT('',(20.900000000064,-4.194580591771E-09,
    3.049999999985));
#294 = CARTESIAN_POINT('',(20.500000000064,-4.195429778938E-09,
    2.749999999985));
#295 = B_SPLINE_SURFACE_WITH_KNOTS('',1,11,(
    (#296,#297,#298,#299,#300,#301,#302,#303,#304,#305,#306,#307)
    ,(#308,#309,#310,#311,#312,#313,#314,#315,#316,#317,#318,#319
  )),.UNSPECIFIED.,.F.,.F.,.F.,(2,2),(12,12),(0.,0.5),(0.,6.285617029864
    ),.PIECEWISE_BEZIER_KNOTS.);
#296 = CARTESIAN_POINT('',(20.9,9.709676960363E-15,2.299999999992));
#297 = CARTESIAN_POINT('',(20.900000001828,11.938052179936,
    2.368181818118));
#298 = CARTESIAN_POINT('',(13.400713990923,23.875833076479,
    2.436363636374));
#299 = CARTESIAN_POINT('',(-1.613415961607,30.579811062775,
    2.504545454919));
#300 = CARTESIAN_POINT('',(-19.95547092465,26.795326538876,
    2.572727271316));
#301 = CARTESIAN_POINT('',(-33.63181210079,11.050420820472,
    2.640909093366));
#302 = CARTESIAN_POINT('',(-33.63181208998,-11.05042079435,
    2.709090906455));
#303 = CARTESIAN_POINT('',(-19.95547093964,-26.79532658101,
    2.777272729022));
#304 = CARTESIAN_POINT('',(-1.613415963592,-30.5798110187,2.845454544697
    ));
#305 = CARTESIAN_POINT('',(13.400713985957,-23.87583310214,
    2.913636363794));
#306 = CARTESIAN_POINT('',(20.899999998869,-11.93805217807,
    2.981818181805));
#307 = CARTESIAN_POINT('',(20.900000000064,-4.194580591771E-09,
    3.049999999985));
#308 = CARTESIAN_POINT('',(20.5,1.261573456001E-14,1.999999999993));
#309 = CARTESIAN_POINT('',(20.500000001827,11.709572714239,
    2.068181818119));
#310 = CARTESIAN_POINT('',(13.144240995947,23.418879322792,
    2.136363636374));
#311 = CARTESIAN_POINT('',(-1.582537187305,29.994551551941,2.20454545492
    ));
#312 = CARTESIAN_POINT('',(-19.5735480358,26.282497262843,2.272727271316
    ));
#313 = CARTESIAN_POINT('',(-32.98814105603,10.838929595163,
    2.340909093369));
#314 = CARTESIAN_POINT('',(-32.98814104517,-10.83892956904,
    2.409090906453));
#315 = CARTESIAN_POINT('',(-19.57354805083,-26.28249730498,
    2.477272729024));
#316 = CARTESIAN_POINT('',(-1.582537189271,-29.99455150786,
    2.545454544697));
#317 = CARTESIAN_POINT('',(13.144240990971,-23.41887934846,
    2.613636363795));
#318 = CARTESIAN_POINT('',(20.499999998869,-11.70957271237,
    2.681818181805));
#319 = CARTESIAN_POINT('',(20.500000000064,-4.195429778938E-09,
    2.749999999985));
#320 = ADVANCED_FACE('',(#321,#350),#353,.T.);
#321 = FACE_BOUND('',#322,.T.);
#322 = EDGE_LOOP('',(#323,#334,#343));
#323 = ORIENTED_EDGE('',*,*,#324,.T.);
#324 = EDGE_CURVE('',#325,#327,#329,.T.);
#325 = VERTEX_POINT('',#326);
#326 = CARTESIAN_POINT('',(20.5,0.,6.));
#327 = VERTEX_POINT('',#328);
#328 = CARTESIAN_POINT('',(-10.24997917145,17.753509097625,
    5.999999973702));
#329 = CIRCLE('',#330,20.5);
#330 = AXIS2_PLACEMENT_3D('',#331,#332,#333);
#331 = CARTESIAN_POINT('',(0.,0.,6.));
#332 = DIRECTION('',(0.,0.,1.));
#333 = DIRECTION('',(1.,0.,0.));
#334 = ORIENTED_EDGE('',*,*,#335,.T.);
#335 = EDGE_CURVE('',#327,#336,#338,.T.);
#336 = VERTEX_POINT('',#337);
#337 = CARTESIAN_POINT('',(-20.05201767227,-4.262190500716,
    6.000000003787));
#338 = CIRCLE('',#339,20.5);
#339 = AXIS2_PLACEMENT_3D('',#340,#341,#342);
#340 = CARTESIAN_POINT('',(0.,0.,6.));
#341 = DIRECTION('',(0.,0.,1.));
#342 = DIRECTION('',(1.,0.,0.));
#343 = ORIENTED_EDGE('',*,*,#344,.T.);
#344 = EDGE_CURVE('',#336,#325,#345,.T.);
#345 = CIRCLE('',#346,20.5);
#346 = AXIS2_PLACEMENT_3D('',#347,#348,#349);
#347 = CARTESIAN_POINT('',(0.,0.,6.));
#348 = DIRECTION('',(0.,0.,1.));
#349 = DIRECTION('',(1.,0.,0.));
#350 = FACE_BOUND('',#351,.F.);
#351 = EDGE_LOOP('',(#352));
#352 = ORIENTED_EDGE('',*,*,#187,.T.);
#353 = PLANE('',#354);
#354 = AXIS2_PLACEMENT_3D('',#355,#356,#357);
#355 = CARTESIAN_POINT('',(-1.42071702082E-15,-9.118240922447E-16,6.));
#356 = DIRECTION('',(0.,0.,1.));
#357 = DIRECTION('',(1.,0.,0.));
#358 = ADVANCED_FACE('',(#359),#369,.T.);
#359 = FACE_BOUND('',#360,.T.);
#360 = EDGE_LOOP('',(#361,#362,#363,#364));
#361 = ORIENTED_EDGE('',*,*,#223,.F.);
#362 = ORIENTED_EDGE('',*,*,#203,.T.);
#363 = ORIENTED_EDGE('',*,*,#272,.T.);
#364 = ORIENTED_EDGE('',*,*,#365,.F.);
#365 = EDGE_CURVE('',#224,#273,#366,.T.);
#366 = B_SPLINE_CURVE_WITH_KNOTS('',1,(#367,#368),.UNSPECIFIED.,.F.,.F.,
  (2,2),(-0.5,-0.),.PIECEWISE_BEZIER_KNOTS.);
#367 = CARTESIAN_POINT('',(20.500000000064,-4.195413880494E-09,
    3.349999999988));
#368 = CARTESIAN_POINT('',(20.900000000064,-4.194580591771E-09,
    3.049999999985));
#369 = B_SPLINE_SURFACE_WITH_KNOTS('',1,11,(
    (#370,#371,#372,#373,#374,#375,#376,#377,#378,#379,#380,#381)
    ,(#382,#383,#384,#385,#386,#387,#388,#389,#390,#391,#392,#393
  )),.UNSPECIFIED.,.F.,.F.,.F.,(2,2),(12,12),(-0.5,-0.),(0.,
    6.285617029864),.PIECEWISE_BEZIER_KNOTS.);
#370 = CARTESIAN_POINT('',(20.5,9.246896640493E-17,2.599999999995));
#371 = CARTESIAN_POINT('',(20.500000001828,11.709572714238,
    2.668181818121));
#372 = CARTESIAN_POINT('',(13.144240995948,23.418879322791,
    2.736363636377));
#373 = CARTESIAN_POINT('',(-1.582537187315,29.994551551944,
    2.804545454921));
#374 = CARTESIAN_POINT('',(-19.57354803577,26.282497262837,
    2.872727271319));
#375 = CARTESIAN_POINT('',(-32.98814105608,10.838929595164,
    2.940909093368));
#376 = CARTESIAN_POINT('',(-32.98814104513,-10.83892956904,
    3.009090906458));
#377 = CARTESIAN_POINT('',(-19.57354805086,-26.28249730499,
    3.077272729024));
#378 = CARTESIAN_POINT('',(-1.582537189263,-29.99455150785,3.1454545447)
  );
#379 = CARTESIAN_POINT('',(13.144240990971,-23.41887934846,
    3.213636363797));
#380 = CARTESIAN_POINT('',(20.499999998868,-11.70957271237,
    3.281818181808));
#381 = CARTESIAN_POINT('',(20.500000000064,-4.195413880494E-09,
    3.349999999988));
#382 = CARTESIAN_POINT('',(20.9,9.709676960363E-15,2.299999999992));
#383 = CARTESIAN_POINT('',(20.900000001828,11.938052179936,
    2.368181818118));
#384 = CARTESIAN_POINT('',(13.400713990923,23.875833076479,
    2.436363636374));
#385 = CARTESIAN_POINT('',(-1.613415961607,30.579811062775,
    2.504545454919));
#386 = CARTESIAN_POINT('',(-19.95547092465,26.795326538876,
    2.572727271316));
#387 = CARTESIAN_POINT('',(-33.63181210079,11.050420820472,
    2.640909093366));
#388 = CARTESIAN_POINT('',(-33.63181208998,-11.05042079435,
    2.709090906455));
#389 = CARTESIAN_POINT('',(-19.95547093964,-26.79532658101,
    2.777272729022));
#390 = CARTESIAN_POINT('',(-1.613415963592,-30.5798110187,2.845454544697
    ));
#391 = CARTESIAN_POINT('',(13.400713985957,-23.87583310214,
    2.913636363794));
#392 = CARTESIAN_POINT('',(20.899999998869,-11.93805217807,
    2.981818181805));
#393 = CARTESIAN_POINT('',(20.900000000064,-4.194580591771E-09,
    3.049999999985));
#394 = ADVANCED_FACE('',(#395),#438,.T.);
#395 = FACE_BOUND('',#396,.F.);
#396 = EDGE_LOOP('',(#397,#414,#415,#432));
#397 = ORIENTED_EDGE('',*,*,#398,.F.);
#398 = EDGE_CURVE('',#224,#399,#401,.T.);
#399 = VERTEX_POINT('',#400);
#400 = CARTESIAN_POINT('',(20.49999999863,-8.529286499304E-09,
    4.100000000117));
#401 = B_SPLINE_CURVE_WITH_KNOTS('',11,(#402,#403,#404,#405,#406,#407,
    #408,#409,#410,#411,#412,#413),.UNSPECIFIED.,.F.,.F.,(12,12),(0.,
    6.285617029864),.PIECEWISE_BEZIER_KNOTS.);
#402 = CARTESIAN_POINT('',(20.500000000065,-4.19541456633E-09,
    3.349999999991));
#403 = CARTESIAN_POINT('',(20.499999997723,11.709572710116,
    3.418181818699));
#404 = CARTESIAN_POINT('',(13.144241021927,23.418879319204,
    3.486363634504));
#405 = CARTESIAN_POINT('',(-1.582537235368,29.994551546223,
    3.554545459815));
#406 = CARTESIAN_POINT('',(-19.5735479329,26.282497286943,3.622727262854
    ));
#407 = CARTESIAN_POINT('',(-32.98814118162,10.838929555698,
    3.690909104596));
#408 = CARTESIAN_POINT('',(-32.98814091744,-10.83892949747,
    3.759090895428));
#409 = CARTESIAN_POINT('',(-19.57354815242,-26.2824973622,3.827272737423
    ));
#410 = CARTESIAN_POINT('',(-1.582537141141,-29.99455146632,
    3.895454540081));
#411 = CARTESIAN_POINT('',(13.144240964112,-23.41887936698,
    3.963636365768));
#412 = CARTESIAN_POINT('',(20.500000001632,-11.70957271231,
    4.031818181354));
#413 = CARTESIAN_POINT('',(20.499999998629,-8.529725433279E-09,
    4.100000000119));
#414 = ORIENTED_EDGE('',*,*,#258,.T.);
#415 = ORIENTED_EDGE('',*,*,#416,.T.);
#416 = EDGE_CURVE('',#242,#417,#419,.T.);
#417 = VERTEX_POINT('',#418);
#418 = CARTESIAN_POINT('',(20.499999997167,-1.282687073223E-08,
    4.250000000246));
#419 = B_SPLINE_CURVE_WITH_KNOTS('',11,(#420,#421,#422,#423,#424,#425,
    #426,#427,#428,#429,#430,#431),.UNSPECIFIED.,.F.,.F.,(12,12),(0.,
    6.285617029864),.PIECEWISE_BEZIER_KNOTS.);
#420 = CARTESIAN_POINT('',(20.499999998631,-8.528833869483E-09,
    3.500000000113));
#421 = CARTESIAN_POINT('',(20.500000000402,11.709572702794,3.56818181868
    ));
#422 = CARTESIAN_POINT('',(13.144241017689,23.418879322589,
    3.636363635274));
#423 = CARTESIAN_POINT('',(-1.58253720647,29.994551527127,3.704545458461
    ));
#424 = CARTESIAN_POINT('',(-19.57354796335,26.282497314,3.772727264952)
  );
#425 = CARTESIAN_POINT('',(-32.98814113421,10.838929538915,3.84090910306
    ));
#426 = CARTESIAN_POINT('',(-32.98814095078,-10.83892947597,
    3.909090896359));
#427 = CARTESIAN_POINT('',(-19.57354813989,-26.28249735985,
    3.977272737369));
#428 = CARTESIAN_POINT('',(-1.58253715229,-29.99455146451,4.045454540208
    ));
#429 = CARTESIAN_POINT('',(13.144240958467,-23.41887936707,
    4.113636365885));
#430 = CARTESIAN_POINT('',(20.499999997861,-11.7095727165,4.181818181459
    ));
#431 = CARTESIAN_POINT('',(20.499999997165,-1.282775970819E-08,
    4.250000000244));
#432 = ORIENTED_EDGE('',*,*,#433,.F.);
#433 = EDGE_CURVE('',#399,#417,#434,.T.);
#434 = LINE('',#435,#436);
#435 = CARTESIAN_POINT('',(20.5,0.,2.));
#436 = VECTOR('',#437,1.);
#437 = DIRECTION('',(0.,0.,1.));
#438 = CYLINDRICAL_SURFACE('',#439,20.5);
#439 = AXIS2_PLACEMENT_3D('',#440,#441,#442);
#440 = CARTESIAN_POINT('',(0.,0.,2.));
#441 = DIRECTION('',(-0.,-0.,-1.));
#442 = DIRECTION('',(1.,0.,0.));
#443 = ADVANCED_FACE('',(#444),#470,.T.);
#444 = FACE_BOUND('',#445,.T.);
#445 = EDGE_LOOP('',(#446,#463,#464,#465));
#446 = ORIENTED_EDGE('',*,*,#447,.F.);
#447 = EDGE_CURVE('',#273,#448,#450,.T.);
#448 = VERTEX_POINT('',#449);
#449 = CARTESIAN_POINT('',(20.89999999863,-8.527621053744E-09,
    3.800000000114));
#450 = B_SPLINE_CURVE_WITH_KNOTS('',11,(#451,#452,#453,#454,#455,#456,
    #457,#458,#459,#460,#461,#462),.UNSPECIFIED.,.F.,.F.,(12,12),(0.,
    6.285617029864),.PIECEWISE_BEZIER_KNOTS.);
#451 = CARTESIAN_POINT('',(20.900000000065,-4.194600436345E-09,
    3.049999999988));
#452 = CARTESIAN_POINT('',(20.899999997723,11.938052175813,
    3.118181818696));
#453 = CARTESIAN_POINT('',(13.400714016908,23.875833072895,
    3.186363634501));
#454 = CARTESIAN_POINT('',(-1.613416009687,30.579811057047,
    3.254545459812));
#455 = CARTESIAN_POINT('',(-19.95547082171,26.79532656299,3.322727262853
    ));
#456 = CARTESIAN_POINT('',(-33.63181222644,11.050420781001,
    3.390909104591));
#457 = CARTESIAN_POINT('',(-33.63181196219,-11.05042072279,
    3.459090895427));
#458 = CARTESIAN_POINT('',(-19.95547104128,-26.79532663822,
    3.527272737419));
#459 = CARTESIAN_POINT('',(-1.613415915439,-30.57981097718,
    3.595454540079));
#460 = CARTESIAN_POINT('',(13.400713959092,-23.87583312066,
    3.663636365765));
#461 = CARTESIAN_POINT('',(20.900000001633,-11.93805217801,
    3.731818181352));
#462 = CARTESIAN_POINT('',(20.899999998629,-8.52808763178E-09,
    3.800000000116));
#463 = ORIENTED_EDGE('',*,*,#291,.T.);
#464 = ORIENTED_EDGE('',*,*,#241,.T.);
#465 = ORIENTED_EDGE('',*,*,#466,.F.);
#466 = EDGE_CURVE('',#448,#242,#467,.T.);
#467 = B_SPLINE_CURVE_WITH_KNOTS('',1,(#468,#469),.UNSPECIFIED.,.F.,.F.,
  (2,2),(0.,0.5),.PIECEWISE_BEZIER_KNOTS.);
#468 = CARTESIAN_POINT('',(20.899999998629,-8.52808763178E-09,
    3.800000000116));
#469 = CARTESIAN_POINT('',(20.499999998629,-8.529726134168E-09,
    3.500000000116));
#470 = B_SPLINE_SURFACE_WITH_KNOTS('',1,11,(
    (#471,#472,#473,#474,#475,#476,#477,#478,#479,#480,#481,#482)
    ,(#483,#484,#485,#486,#487,#488,#489,#490,#491,#492,#493,#494
  )),.UNSPECIFIED.,.F.,.F.,.F.,(2,2),(12,12),(0.,0.5),(0.,6.285617029864
    ),.PIECEWISE_BEZIER_KNOTS.);
#471 = CARTESIAN_POINT('',(20.900000000065,-4.194600436345E-09,
    3.049999999988));
#472 = CARTESIAN_POINT('',(20.899999997723,11.938052175813,
    3.118181818696));
#473 = CARTESIAN_POINT('',(13.400714016908,23.875833072895,
    3.186363634501));
#474 = CARTESIAN_POINT('',(-1.613416009687,30.579811057047,
    3.254545459812));
#475 = CARTESIAN_POINT('',(-19.95547082171,26.79532656299,3.322727262853
    ));
#476 = CARTESIAN_POINT('',(-33.63181222644,11.050420781001,
    3.390909104591));
#477 = CARTESIAN_POINT('',(-33.63181196219,-11.05042072279,
    3.459090895427));
#478 = CARTESIAN_POINT('',(-19.95547104128,-26.79532663822,
    3.527272737419));
#479 = CARTESIAN_POINT('',(-1.613415915439,-30.57981097718,
    3.595454540079));
#480 = CARTESIAN_POINT('',(13.400713959092,-23.87583312066,
    3.663636365765));
#481 = CARTESIAN_POINT('',(20.900000001633,-11.93805217801,
    3.731818181352));
#482 = CARTESIAN_POINT('',(20.899999998629,-8.52808763178E-09,
    3.800000000116));
#483 = CARTESIAN_POINT('',(20.500000000065,-4.195415267219E-09,
    2.749999999989));
#484 = CARTESIAN_POINT('',(20.499999997723,11.709572710116,
    2.818181818697));
#485 = CARTESIAN_POINT('',(13.144241021926,23.418879319204,
    2.886363634501));
#486 = CARTESIAN_POINT('',(-1.58253723536,29.994551546224,2.954545459814
    ));
#487 = CARTESIAN_POINT('',(-19.57354793292,26.282497286939,
    3.022727262851));
#488 = CARTESIAN_POINT('',(-32.98814118158,10.83892955571,3.090909104596
    ));
#489 = CARTESIAN_POINT('',(-32.98814091748,-10.83892949749,
    3.159090895424));
#490 = CARTESIAN_POINT('',(-19.5735481524,-26.28249736219,3.227272737422
    ));
#491 = CARTESIAN_POINT('',(-1.582537141148,-29.99455146633,
    3.295454540078));
#492 = CARTESIAN_POINT('',(13.144240964112,-23.41887936698,
    3.363636365767));
#493 = CARTESIAN_POINT('',(20.500000001632,-11.70957271231,
    3.431818181352));
#494 = CARTESIAN_POINT('',(20.499999998629,-8.529726134168E-09,
    3.500000000116));
#495 = ADVANCED_FACE('',(#496),#590,.T.);
#496 = FACE_BOUND('',#497,.T.);
#497 = EDGE_LOOP('',(#498,#499,#500,#549,#561));
#498 = ORIENTED_EDGE('',*,*,#324,.F.);
#499 = ORIENTED_EDGE('',*,*,#344,.F.);
#500 = ORIENTED_EDGE('',*,*,#501,.F.);
#501 = EDGE_CURVE('',#502,#336,#504,.T.);
#502 = VERTEX_POINT('',#503);
#503 = CARTESIAN_POINT('',(19.093128597934,-8.500793875194,6.));
#504 = B_SPLINE_CURVE_WITH_KNOTS('',8,(#505,#506,#507,#508,#509,#510,
    #511,#512,#513,#514,#515,#516,#517,#518,#519,#520,#521,#522,#523,
    #524,#525,#526,#527,#528,#529,#530,#531,#532,#533,#534,#535,#536,
    #537,#538,#539,#540,#541,#542,#543,#544,#545,#546,#547,#548),
  .UNSPECIFIED.,.F.,.F.,(9,7,7,7,7,7,9),(0.,0.131096961186,
    0.255839087821,0.38128668099,0.507433560165,0.75381117283,1.),
  .UNSPECIFIED.);
#505 = CARTESIAN_POINT('',(19.093128597934,-8.500793875194,6.));
#506 = CARTESIAN_POINT('',(18.740446925479,-9.276956889629,6.));
#507 = CARTESIAN_POINT('',(18.351573051807,-10.03669259759,6.));
#508 = CARTESIAN_POINT('',(17.92739491976,-10.77800244322,6.));
#509 = CARTESIAN_POINT('',(17.468926166019,-11.49896744277,6.));
#510 = CARTESIAN_POINT('',(16.977298624827,-12.19774359564,6.));
#511 = CARTESIAN_POINT('',(16.453759961014,-12.87256073037,6.));
#512 = CARTESIAN_POINT('',(15.899676432328,-13.52172478595,6.));
#513 = CARTESIAN_POINT('',(14.761672227339,-14.73537615867,6.));
#514 = CARTESIAN_POINT('',(14.180480122578,-15.30246378801,6.));
#515 = CARTESIAN_POINT('',(13.574246213774,-15.84349557018,6.));
#516 = CARTESIAN_POINT('',(12.944329811112,-16.3571751244,6.));
#517 = CARTESIAN_POINT('',(12.292163620195,-16.84229559271,6.));
#518 = CARTESIAN_POINT('',(11.619252395571,-17.29773832686,6.));
#519 = CARTESIAN_POINT('',(10.927174415614,-17.72247520469,6.));
#520 = CARTESIAN_POINT('',(9.503984134769,-18.51089708047,6.));
#521 = CARTESIAN_POINT('',(8.772649050088,-18.87423661238,6.));
#522 = CARTESIAN_POINT('',(8.025263414893,-19.2046415754,6.));
#523 = CARTESIAN_POINT('',(7.263556273989,-19.50127781976,6.));
#524 = CARTESIAN_POINT('',(6.489300245637,-19.76342231863,6.));
#525 = CARTESIAN_POINT('',(5.704310582994,-19.99046137574,6.));
#526 = CARTESIAN_POINT('',(4.910445878121,-20.18189336363,6.));
#527 = CARTESIAN_POINT('',(3.304310819626,-20.49364511007,6.));
#528 = CARTESIAN_POINT('',(2.491934370223,-20.61356798849,6.));
#529 = CARTESIAN_POINT('',(1.67441712223,-20.69671142457,6.));
#530 = CARTESIAN_POINT('',(0.853702801779,-20.74281202366,6.));
#531 = CARTESIAN_POINT('',(3.174228062721E-02,-20.75172904511,6.));
#532 = CARTESIAN_POINT('',(-0.789506778702,-20.72344229556,6.));
#533 = CARTESIAN_POINT('',(-1.608080114008,-20.65805507007,6.));
#534 = CARTESIAN_POINT('',(-4.011688200674,-20.35609182974,6.));
#535 = CARTESIAN_POINT('',(-5.584113912436,-20.01569452686,6.));
#536 = CARTESIAN_POINT('',(-7.124116923009,-19.53627324131,6.));
#537 = CARTESIAN_POINT('',(-8.61736830063,-18.9215220723,6.));
#538 = CARTESIAN_POINT('',(-10.0502066014,-18.17671012838,6.));
#539 = CARTESIAN_POINT('',(-11.40966193682,-17.30868559046,6.));
#540 = CARTESIAN_POINT('',(-12.68347497195,-16.32587031439,6.));
#541 = CARTESIAN_POINT('',(-15.03632470083,-14.15238840234,6.));
#542 = CARTESIAN_POINT('',(-16.11611601436,-12.96132171017,6.));
#543 = CARTESIAN_POINT('',(-17.08826551172,-11.67576453784,6.));
#544 = CARTESIAN_POINT('',(-17.94320364951,-10.30714678758,6.));
#545 = CARTESIAN_POINT('',(-18.67283749643,-8.867799447437,6.));
#546 = CARTESIAN_POINT('',(-19.27057357057,-7.370943941149,6.));
#547 = CARTESIAN_POINT('',(-19.73132885961,-5.830675516404,6.));
#548 = CARTESIAN_POINT('',(-20.05201032254,-4.262187608716,6.));
#549 = ORIENTED_EDGE('',*,*,#550,.F.);
#550 = EDGE_CURVE('',#551,#502,#553,.T.);
#551 = VERTEX_POINT('',#552);
#552 = CARTESIAN_POINT('',(20.833333326887,-2.046493763994E-08,6.));
#553 = B_SPLINE_CURVE_WITH_KNOTS('',6,(#554,#555,#556,#557,#558,#559,
    #560),.UNSPECIFIED.,.F.,.F.,(7,7),(0.,1.),.PIECEWISE_BEZIER_KNOTS.);
#554 = CARTESIAN_POINT('',(20.833333326887,-2.04654071617E-08,6.));
#555 = CARTESIAN_POINT('',(20.844461942118,-1.456732552076,6.));
#556 = CARTESIAN_POINT('',(20.733379155699,-2.914510825843,6.));
#557 = CARTESIAN_POINT('',(20.500010313006,-4.360269196417,6.));
#558 = CARTESIAN_POINT('',(20.146245654238,-5.78135982663,6.));
#559 = CARTESIAN_POINT('',(19.675512003428,-7.165486388104,6.));
#560 = CARTESIAN_POINT('',(19.093128597934,-8.500793875194,6.));
#561 = ORIENTED_EDGE('',*,*,#562,.T.);
#562 = EDGE_CURVE('',#551,#327,#563,.T.);
#563 = B_SPLINE_CURVE_WITH_KNOTS('',7,(#564,#565,#566,#567,#568,#569,
    #570,#571,#572,#573,#574,#575,#576,#577,#578,#579,#580,#581,#582,
    #583,#584,#585,#586,#587,#588,#589),.UNSPECIFIED.,.F.,.F.,(8,6,6,6,8
    ),(0.,0.261949211464,0.513208732327,0.752705235183,1.),
  .UNSPECIFIED.);
#564 = CARTESIAN_POINT('',(20.833333326889,-2.046591337143E-08,6.));
#565 = CARTESIAN_POINT('',(20.820959853684,1.619684740605,6.));
#566 = CARTESIAN_POINT('',(20.661631505078,3.238538506712,6.));
#567 = CARTESIAN_POINT('',(20.355326426592,4.840051140534,6.));
#568 = CARTESIAN_POINT('',(19.90437082346,6.408296070579,6.));
#569 = CARTESIAN_POINT('',(19.313058490377,7.927866130407,6.));
#570 = CARTESIAN_POINT('',(18.587639148183,9.383872699931,6.));
#571 = CARTESIAN_POINT('',(16.920718243798,12.084166532061,6.));
#572 = CARTESIAN_POINT('',(15.988982483412,13.335090590227,6.));
#573 = CARTESIAN_POINT('',(14.949160127413,14.502339432085,6.));
#574 = CARTESIAN_POINT('',(13.810315881336,15.574840944604,6.));
#575 = CARTESIAN_POINT('',(12.582741640547,16.542751200897,6.));
#576 = CARTESIAN_POINT('',(11.27794702052,17.397477814504,6.));
#577 = CARTESIAN_POINT('',(8.60400314502,18.832136772432,6.));
#578 = CARTESIAN_POINT('',(7.240366166819,19.423254214271,6.));
#579 = CARTESIAN_POINT('',(5.82919855712,19.899181992413,6.));
#580 = CARTESIAN_POINT('',(4.382158550417,20.255441513383,6.));
#581 = CARTESIAN_POINT('',(2.911294769134,20.488960245379,6.));
#582 = CARTESIAN_POINT('',(1.429032666421,20.598087383555,6.));
#583 = CARTESIAN_POINT('',(-1.580779564345,20.567242386646,6.));
#584 = CARTESIAN_POINT('',(-3.108665713349,20.41903922959,6.));
#585 = CARTESIAN_POINT('',(-4.6212234049,20.138272568358,6.));
#586 = CARTESIAN_POINT('',(-6.104731339544,19.726900550119,6.));
#587 = CARTESIAN_POINT('',(-7.545867415696,19.18850488014,6.));
#588 = CARTESIAN_POINT('',(-8.931732349825,18.52829583705,6.));
#589 = CARTESIAN_POINT('',(-10.2499767293,17.753486802204,6.));
#590 = PLANE('',#591);
#591 = AXIS2_PLACEMENT_3D('',#592,#593,#594);
#592 = CARTESIAN_POINT('',(-1.643377654526E-15,-1.496708104474E-17,6.));
#593 = DIRECTION('',(0.,0.,1.));
#594 = DIRECTION('',(1.,0.,0.));
#595 = ADVANCED_FACE('',(#596),#637,.T.);
#596 = FACE_BOUND('',#597,.F.);
#597 = EDGE_LOOP('',(#598,#615,#623,#636));
#598 = ORIENTED_EDGE('',*,*,#599,.F.);
#599 = EDGE_CURVE('',#600,#336,#602,.T.);
#600 = VERTEX_POINT('',#601);
#601 = CARTESIAN_POINT('',(20.499999995694,-1.648958358746E-08,
    5.600000000379));
#602 = B_SPLINE_CURVE_WITH_KNOTS('',11,(#603,#604,#605,#606,#607,#608,
    #609,#610,#611,#612,#613,#614),.UNSPECIFIED.,.F.,.F.,(12,12),(0.,
    6.285617029864),.PIECEWISE_BEZIER_KNOTS.);
#603 = CARTESIAN_POINT('',(20.499999995694,-1.648981573633E-08,
    5.600000000377));
#604 = CARTESIAN_POINT('',(20.499999992133,11.709572693925,
    5.668181819819));
#605 = CARTESIAN_POINT('',(13.144241058777,23.418879307847,
    5.736363632617));
#606 = CARTESIAN_POINT('',(-1.582537268484,29.994551540994,
    5.804545464778));
#607 = CARTESIAN_POINT('',(-19.57354785137,26.2824972743,5.872727258249)
  );
#608 = CARTESIAN_POINT('',(-32.98814120036,10.838929616373,
    5.940909107532));
#609 = CARTESIAN_POINT('',(-32.98814093268,-10.83892953701,
    6.009090897572));
#610 = CARTESIAN_POINT('',(-19.57354811334,-26.2824972853,6.077272733553
    ));
#611 = CARTESIAN_POINT('',(-1.582537205114,-29.99455149483,6.14545454456
    ));
#612 = CARTESIAN_POINT('',(13.144240971162,-23.41887935394,6.21363636405
    ));
#613 = CARTESIAN_POINT('',(20.499999982291,-11.70957272537,
    6.281818182445));
#614 = CARTESIAN_POINT('',(20.499999994223,-2.04682583795E-08,
    6.350000000504));
#615 = ORIENTED_EDGE('',*,*,#616,.T.);
#616 = EDGE_CURVE('',#600,#617,#619,.T.);
#617 = VERTEX_POINT('',#618);
#618 = CARTESIAN_POINT('',(20.499999994224,-2.046889818752E-08,
    5.750000000502));
#619 = LINE('',#620,#621);
#620 = CARTESIAN_POINT('',(20.5,0.,2.));
#621 = VECTOR('',#622,1.);
#622 = DIRECTION('',(0.,0.,1.));
#623 = ORIENTED_EDGE('',*,*,#624,.T.);
#624 = EDGE_CURVE('',#617,#327,#625,.T.);
#625 = B_SPLINE_CURVE_WITH_KNOTS('',9,(#626,#627,#628,#629,#630,#631,
    #632,#633,#634,#635),.UNSPECIFIED.,.F.,.F.,(10,10),(0.,
    4.525644261502),.PIECEWISE_BEZIER_KNOTS.);
#626 = CARTESIAN_POINT('',(20.499999994224,-2.046924230115E-08,
    5.750000000502));
#627 = CARTESIAN_POINT('',(20.500000034889,10.30442392933,5.809999997696
    ));
#628 = CARTESIAN_POINT('',(14.67160603669,20.611133298461,5.8700000078)
  );
#629 = CARTESIAN_POINT('',(3.025960716463,27.134409941666,5.929999986551
    ));
#630 = CARTESIAN_POINT('',(-11.64004409176,26.194401690515,
    5.990000015794));
#631 = CARTESIAN_POINT('',(-23.54930013043,16.342208382131,
    6.049999988441));
#632 = CARTESIAN_POINT('',(-27.22079328622,2.11211888082,6.11000000584)
  );
#633 = CARTESIAN_POINT('',(-22.99523840939,-10.54959032143,
    6.169999998583));
#634 = CARTESIAN_POINT('',(-13.96322120488,-18.20603212348,
    6.230000000372));
#635 = CARTESIAN_POINT('',(-3.841316966468,-20.13688863435,
    6.290000000183));
#636 = ORIENTED_EDGE('',*,*,#335,.T.);
#637 = CYLINDRICAL_SURFACE('',#638,20.5);
#638 = AXIS2_PLACEMENT_3D('',#639,#640,#641);
#639 = CARTESIAN_POINT('',(0.,0.,2.));
#640 = DIRECTION('',(-0.,-0.,-1.));
#641 = DIRECTION('',(1.,0.,0.));
#642 = ADVANCED_FACE('',(#643),#653,.T.);
#643 = FACE_BOUND('',#644,.T.);
#644 = EDGE_LOOP('',(#645,#646,#647,#648));
#645 = ORIENTED_EDGE('',*,*,#398,.F.);
#646 = ORIENTED_EDGE('',*,*,#365,.T.);
#647 = ORIENTED_EDGE('',*,*,#447,.T.);
#648 = ORIENTED_EDGE('',*,*,#649,.F.);
#649 = EDGE_CURVE('',#399,#448,#650,.T.);
#650 = B_SPLINE_CURVE_WITH_KNOTS('',1,(#651,#652),.UNSPECIFIED.,.F.,.F.,
  (2,2),(-0.5,-0.),.PIECEWISE_BEZIER_KNOTS.);
#651 = CARTESIAN_POINT('',(20.499999998629,-8.529725433279E-09,
    4.100000000119));
#652 = CARTESIAN_POINT('',(20.899999998629,-8.52808763178E-09,
    3.800000000116));
#653 = B_SPLINE_SURFACE_WITH_KNOTS('',1,11,(
    (#654,#655,#656,#657,#658,#659,#660,#661,#662,#663,#664,#665)
    ,(#666,#667,#668,#669,#670,#671,#672,#673,#674,#675,#676,#677
  )),.UNSPECIFIED.,.F.,.F.,.F.,(2,2),(12,12),(-0.5,-0.),(0.,
    6.285617029864),.PIECEWISE_BEZIER_KNOTS.);
#654 = CARTESIAN_POINT('',(20.500000000065,-4.19541456633E-09,
    3.349999999991));
#655 = CARTESIAN_POINT('',(20.499999997723,11.709572710116,
    3.418181818699));
#656 = CARTESIAN_POINT('',(13.144241021927,23.418879319204,
    3.486363634504));
#657 = CARTESIAN_POINT('',(-1.582537235368,29.994551546223,
    3.554545459815));
#658 = CARTESIAN_POINT('',(-19.5735479329,26.282497286943,3.622727262854
    ));
#659 = CARTESIAN_POINT('',(-32.98814118162,10.838929555698,
    3.690909104596));
#660 = CARTESIAN_POINT('',(-32.98814091744,-10.83892949747,
    3.759090895428));
#661 = CARTESIAN_POINT('',(-19.57354815242,-26.2824973622,3.827272737423
    ));
#662 = CARTESIAN_POINT('',(-1.582537141141,-29.99455146632,
    3.895454540081));
#663 = CARTESIAN_POINT('',(13.144240964112,-23.41887936698,
    3.963636365768));
#664 = CARTESIAN_POINT('',(20.500000001632,-11.70957271231,
    4.031818181354));
#665 = CARTESIAN_POINT('',(20.499999998629,-8.529725433279E-09,
    4.100000000119));
#666 = CARTESIAN_POINT('',(20.900000000065,-4.194600436345E-09,
    3.049999999988));
#667 = CARTESIAN_POINT('',(20.899999997723,11.938052175813,
    3.118181818696));
#668 = CARTESIAN_POINT('',(13.400714016908,23.875833072895,
    3.186363634501));
#669 = CARTESIAN_POINT('',(-1.613416009687,30.579811057047,
    3.254545459812));
#670 = CARTESIAN_POINT('',(-19.95547082171,26.79532656299,3.322727262853
    ));
#671 = CARTESIAN_POINT('',(-33.63181222644,11.050420781001,
    3.390909104591));
#672 = CARTESIAN_POINT('',(-33.63181196219,-11.05042072279,
    3.459090895427));
#673 = CARTESIAN_POINT('',(-19.95547104128,-26.79532663822,
    3.527272737419));
#674 = CARTESIAN_POINT('',(-1.613415915439,-30.57981097718,
    3.595454540079));
#675 = CARTESIAN_POINT('',(13.400713959092,-23.87583312066,
    3.663636365765));
#676 = CARTESIAN_POINT('',(20.900000001633,-11.93805217801,
    3.731818181352));
#677 = CARTESIAN_POINT('',(20.899999998629,-8.52808763178E-09,
    3.800000000116));
#678 = ADVANCED_FACE('',(#679),#722,.T.);
#679 = FACE_BOUND('',#680,.F.);
#680 = EDGE_LOOP('',(#681,#698,#699,#716));
#681 = ORIENTED_EDGE('',*,*,#682,.F.);
#682 = EDGE_CURVE('',#399,#683,#685,.T.);
#683 = VERTEX_POINT('',#684);
#684 = CARTESIAN_POINT('',(20.499999997167,-1.282687073223E-08,
    4.850000000248));
#685 = B_SPLINE_CURVE_WITH_KNOTS('',11,(#686,#687,#688,#689,#690,#691,
    #692,#693,#694,#695,#696,#697),.UNSPECIFIED.,.F.,.F.,(12,12),(0.,
    6.285617029864),.PIECEWISE_BEZIER_KNOTS.);
#686 = CARTESIAN_POINT('',(20.499999998631,-8.528818428804E-09,
    4.100000000115));
#687 = CARTESIAN_POINT('',(20.500000000402,11.709572702794,
    4.168181818682));
#688 = CARTESIAN_POINT('',(13.14424101769,23.418879322592,4.236363635276
    ));
#689 = CARTESIAN_POINT('',(-1.582537206472,29.994551527111,
    4.304545458464));
#690 = CARTESIAN_POINT('',(-19.57354796335,26.282497314044,
    4.372727264952));
#691 = CARTESIAN_POINT('',(-32.98814113422,10.838929538849,
    4.440909103064));
#692 = CARTESIAN_POINT('',(-32.98814095076,-10.83892947591,4.50909089636
    ));
#693 = CARTESIAN_POINT('',(-19.57354813991,-26.28249735988,
    4.577272737372));
#694 = CARTESIAN_POINT('',(-1.58253715228,-29.99455146449,4.645454540209
    ));
#695 = CARTESIAN_POINT('',(13.144240958463,-23.41887936707,
    4.713636365887));
#696 = CARTESIAN_POINT('',(20.499999997861,-11.7095727165,4.781818181461
    ));
#697 = CARTESIAN_POINT('',(20.499999997166,-1.282778690008E-08,
    4.850000000246));
#698 = ORIENTED_EDGE('',*,*,#433,.T.);
#699 = ORIENTED_EDGE('',*,*,#700,.T.);
#700 = EDGE_CURVE('',#417,#701,#703,.T.);
#701 = VERTEX_POINT('',#702);
#702 = CARTESIAN_POINT('',(20.499999995694,-1.648958347644E-08,
    5.000000000377));
#703 = B_SPLINE_CURVE_WITH_KNOTS('',11,(#704,#705,#706,#707,#708,#709,
    #710,#711,#712,#713,#714,#715),.UNSPECIFIED.,.F.,.F.,(12,12),(0.,
    6.285617029864),.PIECEWISE_BEZIER_KNOTS.);
#704 = CARTESIAN_POINT('',(20.499999997167,-1.282638909835E-08,
    4.250000000247));
#705 = CARTESIAN_POINT('',(20.499999997778,11.709572707056,
    4.318181819105));
#706 = CARTESIAN_POINT('',(13.144241038689,23.418879283459,
    4.386363633902));
#707 = CARTESIAN_POINT('',(-1.58253725036,29.994551608213,4.454545462684
    ));
#708 = CARTESIAN_POINT('',(-19.57354786803,26.282497184228,
    4.522727257632));
#709 = CARTESIAN_POINT('',(-32.98814124143,10.838929690083,
    4.590909113237));
#710 = CARTESIAN_POINT('',(-32.98814085036,-10.83892958436,
    4.659090886413));
#711 = CARTESIAN_POINT('',(-19.5735482094,-26.2824972923,4.727272744798)
  );
#712 = CARTESIAN_POINT('',(-1.582537125587,-29.9945514825,4.795454536756
    ));
#713 = CARTESIAN_POINT('',(13.144240943001,-23.41887936525,
    4.863636367111));
#714 = CARTESIAN_POINT('',(20.49999999601,-11.70957271895,4.93181818144)
  );
#715 = CARTESIAN_POINT('',(20.499999995694,-1.648970603821E-08,
    5.000000000378));
#716 = ORIENTED_EDGE('',*,*,#717,.F.);
#717 = EDGE_CURVE('',#683,#701,#718,.T.);
#718 = LINE('',#719,#720);
#719 = CARTESIAN_POINT('',(20.5,0.,2.));
#720 = VECTOR('',#721,1.);
#721 = DIRECTION('',(0.,0.,1.));
#722 = CYLINDRICAL_SURFACE('',#723,20.5);
#723 = AXIS2_PLACEMENT_3D('',#724,#725,#726);
#724 = CARTESIAN_POINT('',(0.,0.,2.));
#725 = DIRECTION('',(-0.,-0.,-1.));
#726 = DIRECTION('',(1.,0.,0.));
#727 = ADVANCED_FACE('',(#728),#754,.T.);
#728 = FACE_BOUND('',#729,.T.);
#729 = EDGE_LOOP('',(#730,#747,#748,#749));
#730 = ORIENTED_EDGE('',*,*,#731,.F.);
#731 = EDGE_CURVE('',#448,#732,#734,.T.);
#732 = VERTEX_POINT('',#733);
#733 = CARTESIAN_POINT('',(20.899999997167,-1.282436584704E-08,
    4.550000000245));
#734 = B_SPLINE_CURVE_WITH_KNOTS('',11,(#735,#736,#737,#738,#739,#740,
    #741,#742,#743,#744,#745,#746),.UNSPECIFIED.,.F.,.F.,(12,12),(0.,
    6.285617029864),.PIECEWISE_BEZIER_KNOTS.);
#735 = CARTESIAN_POINT('',(20.899999998631,-8.527184014152E-09,
    3.800000000112));
#736 = CARTESIAN_POINT('',(20.900000000402,11.938052168493,
    3.868181818679));
#737 = CARTESIAN_POINT('',(13.400714012667,23.875833076275,
    3.936363635273));
#738 = CARTESIAN_POINT('',(-1.613415980783,30.579811037966,4.00454545846
    ));
#739 = CARTESIAN_POINT('',(-19.95547085219,26.795326590026,
    4.072727264952));
#740 = CARTESIAN_POINT('',(-33.63181217898,11.050420764236,
    4.140909103058));
#741 = CARTESIAN_POINT('',(-33.63181199558,-11.05042070131,4.20909089636
    ));
#742 = CARTESIAN_POINT('',(-19.9554710287,-26.79532663585,4.277272737367
    ));
#743 = CARTESIAN_POINT('',(-1.613415926602,-30.57981097536,
    4.345454540208));
#744 = CARTESIAN_POINT('',(13.400713953449,-23.87583312075,
    4.413636365884));
#745 = CARTESIAN_POINT('',(20.899999997863,-11.93805218219,
    4.481818181458));
#746 = CARTESIAN_POINT('',(20.899999997166,-1.282524354878E-08,
    4.550000000243));
#747 = ORIENTED_EDGE('',*,*,#466,.T.);
#748 = ORIENTED_EDGE('',*,*,#416,.T.);
#749 = ORIENTED_EDGE('',*,*,#750,.F.);
#750 = EDGE_CURVE('',#732,#417,#751,.T.);
#751 = B_SPLINE_CURVE_WITH_KNOTS('',1,(#752,#753),.UNSPECIFIED.,.F.,.F.,
  (2,2),(0.,0.5),.PIECEWISE_BEZIER_KNOTS.);
#752 = CARTESIAN_POINT('',(20.899999997166,-1.282524354878E-08,
    4.550000000243));
#753 = CARTESIAN_POINT('',(20.499999997165,-1.282775970819E-08,
    4.250000000244));
#754 = B_SPLINE_SURFACE_WITH_KNOTS('',1,11,(
    (#755,#756,#757,#758,#759,#760,#761,#762,#763,#764,#765,#766)
    ,(#767,#768,#769,#770,#771,#772,#773,#774,#775,#776,#777,#778
  )),.UNSPECIFIED.,.F.,.F.,.F.,(2,2),(12,12),(0.,0.5),(0.,6.285617029864
    ),.PIECEWISE_BEZIER_KNOTS.);
#755 = CARTESIAN_POINT('',(20.899999998631,-8.527184014152E-09,
    3.800000000112));
#756 = CARTESIAN_POINT('',(20.900000000402,11.938052168493,
    3.868181818679));
#757 = CARTESIAN_POINT('',(13.400714012667,23.875833076275,
    3.936363635273));
#758 = CARTESIAN_POINT('',(-1.613415980783,30.579811037966,4.00454545846
    ));
#759 = CARTESIAN_POINT('',(-19.95547085219,26.795326590026,
    4.072727264952));
#760 = CARTESIAN_POINT('',(-33.63181217898,11.050420764236,
    4.140909103058));
#761 = CARTESIAN_POINT('',(-33.63181199558,-11.05042070131,4.20909089636
    ));
#762 = CARTESIAN_POINT('',(-19.9554710287,-26.79532663585,4.277272737367
    ));
#763 = CARTESIAN_POINT('',(-1.613415926602,-30.57981097536,
    4.345454540208));
#764 = CARTESIAN_POINT('',(13.400713953449,-23.87583312075,
    4.413636365884));
#765 = CARTESIAN_POINT('',(20.899999997863,-11.93805218219,
    4.481818181458));
#766 = CARTESIAN_POINT('',(20.899999997166,-1.282524354878E-08,
    4.550000000243));
#767 = CARTESIAN_POINT('',(20.499999998631,-8.528833869483E-09,
    3.500000000113));
#768 = CARTESIAN_POINT('',(20.500000000402,11.709572702794,3.56818181868
    ));
#769 = CARTESIAN_POINT('',(13.144241017689,23.418879322589,
    3.636363635274));
#770 = CARTESIAN_POINT('',(-1.58253720647,29.994551527127,3.704545458461
    ));
#771 = CARTESIAN_POINT('',(-19.57354796335,26.282497314,3.772727264952)
  );
#772 = CARTESIAN_POINT('',(-32.98814113421,10.838929538915,3.84090910306
    ));
#773 = CARTESIAN_POINT('',(-32.98814095078,-10.83892947597,
    3.909090896359));
#774 = CARTESIAN_POINT('',(-19.57354813989,-26.28249735985,
    3.977272737369));
#775 = CARTESIAN_POINT('',(-1.58253715229,-29.99455146451,4.045454540208
    ));
#776 = CARTESIAN_POINT('',(13.144240958467,-23.41887936707,
    4.113636365885));
#777 = CARTESIAN_POINT('',(20.499999997861,-11.7095727165,4.181818181459
    ));
#778 = CARTESIAN_POINT('',(20.499999997165,-1.282775970819E-08,
    4.250000000244));
#779 = ADVANCED_FACE('',(#780),#789,.T.);
#780 = FACE_BOUND('',#781,.T.);
#781 = EDGE_LOOP('',(#782,#783,#788));
#782 = ORIENTED_EDGE('',*,*,#562,.F.);
#783 = ORIENTED_EDGE('',*,*,#784,.T.);
#784 = EDGE_CURVE('',#551,#617,#785,.T.);
#785 = B_SPLINE_CURVE_WITH_KNOTS('',1,(#786,#787),.UNSPECIFIED.,.F.,.F.,
  (2,2),(0.,0.5),.PIECEWISE_BEZIER_KNOTS.);
#786 = CARTESIAN_POINT('',(20.899999994223,-2.046426939806E-08,
    6.050000000501));
#787 = CARTESIAN_POINT('',(20.499999994222,-2.046827884927E-08,
    5.750000000502));
#788 = ORIENTED_EDGE('',*,*,#624,.T.);
#789 = B_SPLINE_SURFACE_WITH_KNOTS('',1,9,(
    (#790,#791,#792,#793,#794,#795,#796,#797,#798,#799)
    ,(#800,#801,#802,#803,#804,#805,#806,#807,#808,#809
  )),.UNSPECIFIED.,.F.,.F.,.F.,(2,2),(10,10),(0.,0.5),(0.,4.525644261502
    ),.PIECEWISE_BEZIER_KNOTS.);
#790 = CARTESIAN_POINT('',(20.899999994224,-2.046525082733E-08,
    6.050000000501));
#791 = CARTESIAN_POINT('',(20.900000034887,10.505485859154,
    6.109999997696));
#792 = CARTESIAN_POINT('',(14.957881277929,21.013301756388,
    6.170000007775));
#793 = CARTESIAN_POINT('',(3.085003848171,27.663861837595,6.229999986613
    ));
#794 = CARTESIAN_POINT('',(-11.86716689863,26.705511973317,
    6.290000015672));
#795 = CARTESIAN_POINT('',(-24.00879867478,16.661080736322,
    6.349999988565));
#796 = CARTESIAN_POINT('',(-27.75193071314,2.153330957573,6.410000005757
    ));
#797 = CARTESIAN_POINT('',(-23.44392598927,-10.75543598678,
    6.469999998612));
#798 = CARTESIAN_POINT('',(-14.23567430099,-18.56127177505,
    6.530000000367));
#799 = CARTESIAN_POINT('',(-3.916269492299,-20.52980353464,
    6.590000000178));
#800 = CARTESIAN_POINT('',(20.499999994224,-2.046924230115E-08,
    5.750000000502));
#801 = CARTESIAN_POINT('',(20.500000034889,10.30442392933,5.809999997696
    ));
#802 = CARTESIAN_POINT('',(14.67160603669,20.611133298461,5.8700000078)
  );
#803 = CARTESIAN_POINT('',(3.025960716463,27.134409941666,5.929999986551
    ));
#804 = CARTESIAN_POINT('',(-11.64004409176,26.194401690515,
    5.990000015794));
#805 = CARTESIAN_POINT('',(-23.54930013043,16.342208382131,
    6.049999988441));
#806 = CARTESIAN_POINT('',(-27.22079328622,2.11211888082,6.11000000584)
  );
#807 = CARTESIAN_POINT('',(-22.99523840939,-10.54959032143,
    6.169999998583));
#808 = CARTESIAN_POINT('',(-13.96322120488,-18.20603212348,
    6.230000000372));
#809 = CARTESIAN_POINT('',(-3.841316966468,-20.13688863435,
    6.290000000183));
#810 = ADVANCED_FACE('',(#811),#852,.T.);
#811 = FACE_BOUND('',#812,.T.);
#812 = EDGE_LOOP('',(#813,#830,#835,#850,#851));
#813 = ORIENTED_EDGE('',*,*,#814,.F.);
#814 = EDGE_CURVE('',#815,#502,#817,.T.);
#815 = VERTEX_POINT('',#816);
#816 = CARTESIAN_POINT('',(20.899999995694,-1.648636316354E-08,
    5.300000000376));
#817 = B_SPLINE_CURVE_WITH_KNOTS('',11,(#818,#819,#820,#821,#822,#823,
    #824,#825,#826,#827,#828,#829),.UNSPECIFIED.,.F.,.F.,(12,12),(0.,
    6.285617029864),.PIECEWISE_BEZIER_KNOTS.);
#818 = CARTESIAN_POINT('',(20.899999995695,-1.648660779384E-08,
    5.300000000374));
#819 = CARTESIAN_POINT('',(20.899999992131,11.938052159625,
    5.368181819816));
#820 = CARTESIAN_POINT('',(13.400714053755,23.875833061538,
    5.436363632615));
#821 = CARTESIAN_POINT('',(-1.613416042809,30.579811051815,
    5.504545464773));
#822 = CARTESIAN_POINT('',(-19.95547074018,26.795326550361,
    5.572727258249));
#823 = CARTESIAN_POINT('',(-33.63181224517,11.05042084163,5.640909107527
    ));
#824 = CARTESIAN_POINT('',(-33.63181197745,-11.05042076228,
    5.709090897569));
#825 = CARTESIAN_POINT('',(-19.95547100215,-26.79532656137,
    5.777272733551));
#826 = CARTESIAN_POINT('',(-1.61341597943,-30.57981100566,5.845454544556
    ));
#827 = CARTESIAN_POINT('',(13.400713966152,-23.87583310763,
    5.913636364048));
#828 = CARTESIAN_POINT('',(20.899999982293,-11.93805219106,
    5.981818182441));
#829 = CARTESIAN_POINT('',(20.899999994223,-2.046426939806E-08,
    6.050000000501));
#830 = ORIENTED_EDGE('',*,*,#831,.T.);
#831 = EDGE_CURVE('',#815,#701,#832,.T.);
#832 = B_SPLINE_CURVE_WITH_KNOTS('',1,(#833,#834),.UNSPECIFIED.,.F.,.F.,
  (2,2),(0.,0.5),.PIECEWISE_BEZIER_KNOTS.);
#833 = CARTESIAN_POINT('',(20.899999995694,-1.648647819038E-08,
    5.300000000378));
#834 = CARTESIAN_POINT('',(20.499999995694,-1.648970603821E-08,
    5.000000000378));
#835 = ORIENTED_EDGE('',*,*,#836,.T.);
#836 = EDGE_CURVE('',#701,#617,#837,.T.);
#837 = B_SPLINE_CURVE_WITH_KNOTS('',11,(#838,#839,#840,#841,#842,#843,
    #844,#845,#846,#847,#848,#849),.UNSPECIFIED.,.F.,.F.,(12,12),(0.,
    6.285617029864),.PIECEWISE_BEZIER_KNOTS.);
#838 = CARTESIAN_POINT('',(20.499999995694,-1.648979357353E-08,
    5.000000000375));
#839 = CARTESIAN_POINT('',(20.499999992132,11.709572693925,
    5.068181819817));
#840 = CARTESIAN_POINT('',(13.144241058779,23.418879307845,
    5.136363632615));
#841 = CARTESIAN_POINT('',(-1.58253726849,29.994551541002,5.204545464775
    ));
#842 = CARTESIAN_POINT('',(-19.57354785136,26.282497274279,
    5.272727258249));
#843 = CARTESIAN_POINT('',(-32.98814120036,10.838929616403,
    5.340909107528));
#844 = CARTESIAN_POINT('',(-32.98814093269,-10.83892953703,
    5.409090897571));
#845 = CARTESIAN_POINT('',(-19.57354811332,-26.28249728529,
    5.477272733549));
#846 = CARTESIAN_POINT('',(-1.582537205123,-29.99455149484,
    5.545454544558));
#847 = CARTESIAN_POINT('',(13.144240971164,-23.41887935394,
    5.613636364047));
#848 = CARTESIAN_POINT('',(20.499999982291,-11.70957272537,
    5.681818182442));
#849 = CARTESIAN_POINT('',(20.499999994222,-2.046827884927E-08,
    5.750000000502));
#850 = ORIENTED_EDGE('',*,*,#784,.F.);
#851 = ORIENTED_EDGE('',*,*,#550,.T.);
#852 = B_SPLINE_SURFACE_WITH_KNOTS('',1,11,(
    (#853,#854,#855,#856,#857,#858,#859,#860,#861,#862,#863,#864)
    ,(#865,#866,#867,#868,#869,#870,#871,#872,#873,#874,#875,#876
  )),.UNSPECIFIED.,.F.,.F.,.F.,(2,2),(12,12),(0.,0.5),(0.,6.285617029864
    ),.PIECEWISE_BEZIER_KNOTS.);
#853 = CARTESIAN_POINT('',(20.899999995695,-1.648660779384E-08,
    5.300000000374));
#854 = CARTESIAN_POINT('',(20.899999992131,11.938052159625,
    5.368181819816));
#855 = CARTESIAN_POINT('',(13.400714053755,23.875833061538,
    5.436363632615));
#856 = CARTESIAN_POINT('',(-1.613416042809,30.579811051815,
    5.504545464773));
#857 = CARTESIAN_POINT('',(-19.95547074018,26.795326550361,
    5.572727258249));
#858 = CARTESIAN_POINT('',(-33.63181224517,11.05042084163,5.640909107527
    ));
#859 = CARTESIAN_POINT('',(-33.63181197745,-11.05042076228,
    5.709090897569));
#860 = CARTESIAN_POINT('',(-19.95547100215,-26.79532656137,
    5.777272733551));
#861 = CARTESIAN_POINT('',(-1.61341597943,-30.57981100566,5.845454544556
    ));
#862 = CARTESIAN_POINT('',(13.400713966152,-23.87583310763,
    5.913636364048));
#863 = CARTESIAN_POINT('',(20.899999982293,-11.93805219106,
    5.981818182441));
#864 = CARTESIAN_POINT('',(20.899999994223,-2.046426939806E-08,
    6.050000000501));
#865 = CARTESIAN_POINT('',(20.499999995694,-1.648979357353E-08,
    5.000000000375));
#866 = CARTESIAN_POINT('',(20.499999992132,11.709572693925,
    5.068181819817));
#867 = CARTESIAN_POINT('',(13.144241058779,23.418879307845,
    5.136363632615));
#868 = CARTESIAN_POINT('',(-1.58253726849,29.994551541002,5.204545464775
    ));
#869 = CARTESIAN_POINT('',(-19.57354785136,26.282497274279,
    5.272727258249));
#870 = CARTESIAN_POINT('',(-32.98814120036,10.838929616403,
    5.340909107528));
#871 = CARTESIAN_POINT('',(-32.98814093269,-10.83892953703,
    5.409090897571));
#872 = CARTESIAN_POINT('',(-19.57354811332,-26.28249728529,
    5.477272733549));
#873 = CARTESIAN_POINT('',(-1.582537205123,-29.99455149484,
    5.545454544558));
#874 = CARTESIAN_POINT('',(13.144240971164,-23.41887935394,
    5.613636364047));
#875 = CARTESIAN_POINT('',(20.499999982291,-11.70957272537,
    5.681818182442));
#876 = CARTESIAN_POINT('',(20.499999994222,-2.046827884927E-08,
    5.750000000502));
#877 = ADVANCED_FACE('',(#878),#888,.T.);
#878 = FACE_BOUND('',#879,.T.);
#879 = EDGE_LOOP('',(#880,#881,#886,#887));
#880 = ORIENTED_EDGE('',*,*,#599,.F.);
#881 = ORIENTED_EDGE('',*,*,#882,.T.);
#882 = EDGE_CURVE('',#600,#815,#883,.T.);
#883 = B_SPLINE_CURVE_WITH_KNOTS('',1,(#884,#885),.UNSPECIFIED.,.F.,.F.,
  (2,2),(-0.5,-0.),.PIECEWISE_BEZIER_KNOTS.);
#884 = CARTESIAN_POINT('',(20.499999995694,-1.648970821045E-08,
    5.600000000381));
#885 = CARTESIAN_POINT('',(20.899999995694,-1.648647819038E-08,
    5.300000000378));
#886 = ORIENTED_EDGE('',*,*,#814,.T.);
#887 = ORIENTED_EDGE('',*,*,#501,.T.);
#888 = B_SPLINE_SURFACE_WITH_KNOTS('',1,11,(
    (#889,#890,#891,#892,#893,#894,#895,#896,#897,#898,#899,#900)
    ,(#901,#902,#903,#904,#905,#906,#907,#908,#909,#910,#911,#912
  )),.UNSPECIFIED.,.F.,.F.,.F.,(2,2),(12,12),(-0.5,-0.),(0.,
    6.285617029864),.PIECEWISE_BEZIER_KNOTS.);
#889 = CARTESIAN_POINT('',(20.499999995694,-1.648981573633E-08,
    5.600000000377));
#890 = CARTESIAN_POINT('',(20.499999992133,11.709572693925,
    5.668181819819));
#891 = CARTESIAN_POINT('',(13.144241058777,23.418879307847,
    5.736363632617));
#892 = CARTESIAN_POINT('',(-1.582537268484,29.994551540994,
    5.804545464778));
#893 = CARTESIAN_POINT('',(-19.57354785137,26.2824972743,5.872727258249)
  );
#894 = CARTESIAN_POINT('',(-32.98814120036,10.838929616373,
    5.940909107532));
#895 = CARTESIAN_POINT('',(-32.98814093268,-10.83892953701,
    6.009090897572));
#896 = CARTESIAN_POINT('',(-19.57354811334,-26.2824972853,6.077272733553
    ));
#897 = CARTESIAN_POINT('',(-1.582537205114,-29.99455149483,6.14545454456
    ));
#898 = CARTESIAN_POINT('',(13.144240971162,-23.41887935394,6.21363636405
    ));
#899 = CARTESIAN_POINT('',(20.499999982291,-11.70957272537,
    6.281818182445));
#900 = CARTESIAN_POINT('',(20.499999994223,-2.04682583795E-08,
    6.350000000504));
#901 = CARTESIAN_POINT('',(20.899999995695,-1.648660779384E-08,
    5.300000000374));
#902 = CARTESIAN_POINT('',(20.899999992131,11.938052159625,
    5.368181819816));
#903 = CARTESIAN_POINT('',(13.400714053755,23.875833061538,
    5.436363632615));
#904 = CARTESIAN_POINT('',(-1.613416042809,30.579811051815,
    5.504545464773));
#905 = CARTESIAN_POINT('',(-19.95547074018,26.795326550361,
    5.572727258249));
#906 = CARTESIAN_POINT('',(-33.63181224517,11.05042084163,5.640909107527
    ));
#907 = CARTESIAN_POINT('',(-33.63181197745,-11.05042076228,
    5.709090897569));
#908 = CARTESIAN_POINT('',(-19.95547100215,-26.79532656137,
    5.777272733551));
#909 = CARTESIAN_POINT('',(-1.61341597943,-30.57981100566,5.845454544556
    ));
#910 = CARTESIAN_POINT('',(13.400713966152,-23.87583310763,
    5.913636364048));
#911 = CARTESIAN_POINT('',(20.899999982293,-11.93805219106,
    5.981818182441));
#912 = CARTESIAN_POINT('',(20.899999994223,-2.046426939806E-08,
    6.050000000501));
#913 = ADVANCED_FACE('',(#914),#934,.T.);
#914 = FACE_BOUND('',#915,.F.);
#915 = EDGE_LOOP('',(#916,#931,#932,#933));
#916 = ORIENTED_EDGE('',*,*,#917,.F.);
#917 = EDGE_CURVE('',#683,#600,#918,.T.);
#918 = B_SPLINE_CURVE_WITH_KNOTS('',11,(#919,#920,#921,#922,#923,#924,
    #925,#926,#927,#928,#929,#930),.UNSPECIFIED.,.F.,.F.,(12,12),(0.,
    6.285617029864),.PIECEWISE_BEZIER_KNOTS.);
#919 = CARTESIAN_POINT('',(20.499999997167,-1.282637705973E-08,
    4.85000000025));
#920 = CARTESIAN_POINT('',(20.499999997779,11.709572707056,
    4.918181819107));
#921 = CARTESIAN_POINT('',(13.144241038681,23.418879283458,
    4.986363633904));
#922 = CARTESIAN_POINT('',(-1.582537250332,29.994551608215,
    5.054545462687));
#923 = CARTESIAN_POINT('',(-19.57354786808,26.282497184221,
    5.122727257634));
#924 = CARTESIAN_POINT('',(-32.98814124135,10.838929690097,5.19090911324
    ));
#925 = CARTESIAN_POINT('',(-32.98814085043,-10.83892958438,
    5.259090886415));
#926 = CARTESIAN_POINT('',(-19.57354820936,-26.28249729229,
    5.327272744801));
#927 = CARTESIAN_POINT('',(-1.582537125605,-29.9945514825,5.395454536758
    ));
#928 = CARTESIAN_POINT('',(13.144240943005,-23.41887936525,
    5.463636367113));
#929 = CARTESIAN_POINT('',(20.49999999601,-11.70957271895,5.531818181442
    ));
#930 = CARTESIAN_POINT('',(20.499999995694,-1.648970821045E-08,
    5.600000000381));
#931 = ORIENTED_EDGE('',*,*,#717,.T.);
#932 = ORIENTED_EDGE('',*,*,#836,.T.);
#933 = ORIENTED_EDGE('',*,*,#616,.F.);
#934 = CYLINDRICAL_SURFACE('',#935,20.5);
#935 = AXIS2_PLACEMENT_3D('',#936,#937,#938);
#936 = CARTESIAN_POINT('',(0.,0.,2.));
#937 = DIRECTION('',(-0.,-0.,-1.));
#938 = DIRECTION('',(1.,0.,0.));
#939 = ADVANCED_FACE('',(#940),#950,.T.);
#940 = FACE_BOUND('',#941,.T.);
#941 = EDGE_LOOP('',(#942,#943,#944,#945));
#942 = ORIENTED_EDGE('',*,*,#682,.F.);
#943 = ORIENTED_EDGE('',*,*,#649,.T.);
#944 = ORIENTED_EDGE('',*,*,#731,.T.);
#945 = ORIENTED_EDGE('',*,*,#946,.F.);
#946 = EDGE_CURVE('',#683,#732,#947,.T.);
#947 = B_SPLINE_CURVE_WITH_KNOTS('',1,(#948,#949),.UNSPECIFIED.,.F.,.F.,
  (2,2),(-0.5,-0.),.PIECEWISE_BEZIER_KNOTS.);
#948 = CARTESIAN_POINT('',(20.499999997166,-1.282778690008E-08,
    4.850000000246));
#949 = CARTESIAN_POINT('',(20.899999997166,-1.282524354878E-08,
    4.550000000243));
#950 = B_SPLINE_SURFACE_WITH_KNOTS('',1,11,(
    (#951,#952,#953,#954,#955,#956,#957,#958,#959,#960,#961,#962)
    ,(#963,#964,#965,#966,#967,#968,#969,#970,#971,#972,#973,#974
  )),.UNSPECIFIED.,.F.,.F.,.F.,(2,2),(12,12),(-0.5,-0.),(0.,
    6.285617029864),.PIECEWISE_BEZIER_KNOTS.);
#951 = CARTESIAN_POINT('',(20.499999998631,-8.528818428804E-09,
    4.100000000115));
#952 = CARTESIAN_POINT('',(20.500000000402,11.709572702794,
    4.168181818682));
#953 = CARTESIAN_POINT('',(13.14424101769,23.418879322592,4.236363635276
    ));
#954 = CARTESIAN_POINT('',(-1.582537206472,29.994551527111,
    4.304545458464));
#955 = CARTESIAN_POINT('',(-19.57354796335,26.282497314044,
    4.372727264952));
#956 = CARTESIAN_POINT('',(-32.98814113422,10.838929538849,
    4.440909103064));
#957 = CARTESIAN_POINT('',(-32.98814095076,-10.83892947591,4.50909089636
    ));
#958 = CARTESIAN_POINT('',(-19.57354813991,-26.28249735988,
    4.577272737372));
#959 = CARTESIAN_POINT('',(-1.58253715228,-29.99455146449,4.645454540209
    ));
#960 = CARTESIAN_POINT('',(13.144240958463,-23.41887936707,
    4.713636365887));
#961 = CARTESIAN_POINT('',(20.499999997861,-11.7095727165,4.781818181461
    ));
#962 = CARTESIAN_POINT('',(20.499999997166,-1.282778690008E-08,
    4.850000000246));
#963 = CARTESIAN_POINT('',(20.899999998631,-8.527184014152E-09,
    3.800000000112));
#964 = CARTESIAN_POINT('',(20.900000000402,11.938052168493,
    3.868181818679));
#965 = CARTESIAN_POINT('',(13.400714012667,23.875833076275,
    3.936363635273));
#966 = CARTESIAN_POINT('',(-1.613415980783,30.579811037966,4.00454545846
    ));
#967 = CARTESIAN_POINT('',(-19.95547085219,26.795326590026,
    4.072727264952));
#968 = CARTESIAN_POINT('',(-33.63181217898,11.050420764236,
    4.140909103058));
#969 = CARTESIAN_POINT('',(-33.63181199558,-11.05042070131,4.20909089636
    ));
#970 = CARTESIAN_POINT('',(-19.9554710287,-26.79532663585,4.277272737367
    ));
#971 = CARTESIAN_POINT('',(-1.613415926602,-30.57981097536,
    4.345454540208));
#972 = CARTESIAN_POINT('',(13.400713953449,-23.87583312075,
    4.413636365884));
#973 = CARTESIAN_POINT('',(20.899999997863,-11.93805218219,
    4.481818181458));
#974 = CARTESIAN_POINT('',(20.899999997166,-1.282524354878E-08,
    4.550000000243));
#975 = ADVANCED_FACE('',(#976),#996,.T.);
#976 = FACE_BOUND('',#977,.T.);
#977 = EDGE_LOOP('',(#978,#993,#994,#995));
#978 = ORIENTED_EDGE('',*,*,#979,.F.);
#979 = EDGE_CURVE('',#732,#815,#980,.T.);
#980 = B_SPLINE_CURVE_WITH_KNOTS('',11,(#981,#982,#983,#984,#985,#986,
    #987,#988,#989,#990,#991,#992),.UNSPECIFIED.,.F.,.F.,(12,12),(0.,
    6.285617029864),.PIECEWISE_BEZIER_KNOTS.);
#981 = CARTESIAN_POINT('',(20.899999997167,-1.282389965691E-08,
    4.550000000247));
#982 = CARTESIAN_POINT('',(20.899999997777,11.938052172755,
    4.618181819105));
#983 = CARTESIAN_POINT('',(13.400714033659,23.87583303715,4.686363633906
    ));
#984 = CARTESIAN_POINT('',(-1.613416024653,30.579811119037,4.75454546266
    ));
#985 = CARTESIAN_POINT('',(-19.9554707569,26.795326460276,4.822727257688
    ));
#986 = CARTESIAN_POINT('',(-33.63181228616,11.050420915375,
    4.890909113162));
#987 = CARTESIAN_POINT('',(-33.63181189518,-11.05042080967,
    4.959090886461));
#988 = CARTESIAN_POINT('',(-19.95547109821,-26.79532656833,
    5.027272744797));
#989 = CARTESIAN_POINT('',(-1.613415899902,-30.57981099334,
    5.095454536735));
#990 = CARTESIAN_POINT('',(13.400713937987,-23.87583311893,
    5.163636367117));
#991 = CARTESIAN_POINT('',(20.899999996012,-11.93805218465,
    5.231818181439));
#992 = CARTESIAN_POINT('',(20.899999995694,-1.648647819038E-08,
    5.300000000378));
#993 = ORIENTED_EDGE('',*,*,#750,.T.);
#994 = ORIENTED_EDGE('',*,*,#700,.T.);
#995 = ORIENTED_EDGE('',*,*,#831,.F.);
#996 = B_SPLINE_SURFACE_WITH_KNOTS('',1,11,(
    (#997,#998,#999,#1000,#1001,#1002,#1003,#1004,#1005,#1006,#1007
      ,#1008)
    ,(#1009,#1010,#1011,#1012,#1013,#1014,#1015,#1016,#1017,#1018,#1019
      ,#1020
    )),.UNSPECIFIED.,.F.,.F.,.F.,(2,2),(12,12),(0.,0.5),(0.,
    6.285617029864),.PIECEWISE_BEZIER_KNOTS.);
#997 = CARTESIAN_POINT('',(20.899999997167,-1.282389965691E-08,
    4.550000000247));
#998 = CARTESIAN_POINT('',(20.899999997777,11.938052172755,
    4.618181819105));
#999 = CARTESIAN_POINT('',(13.400714033659,23.87583303715,4.686363633906
    ));
#1000 = CARTESIAN_POINT('',(-1.613416024653,30.579811119037,
    4.75454546266));
#1001 = CARTESIAN_POINT('',(-19.9554707569,26.795326460276,
    4.822727257688));
#1002 = CARTESIAN_POINT('',(-33.63181228616,11.050420915375,
    4.890909113162));
#1003 = CARTESIAN_POINT('',(-33.63181189518,-11.05042080967,
    4.959090886461));
#1004 = CARTESIAN_POINT('',(-19.95547109821,-26.79532656833,
    5.027272744797));
#1005 = CARTESIAN_POINT('',(-1.613415899902,-30.57981099334,
    5.095454536735));
#1006 = CARTESIAN_POINT('',(13.400713937987,-23.87583311893,
    5.163636367117));
#1007 = CARTESIAN_POINT('',(20.899999996012,-11.93805218465,
    5.231818181439));
#1008 = CARTESIAN_POINT('',(20.899999995694,-1.648647819038E-08,
    5.300000000378));
#1009 = CARTESIAN_POINT('',(20.499999997167,-1.282638909835E-08,
    4.250000000247));
#1010 = CARTESIAN_POINT('',(20.499999997778,11.709572707056,
    4.318181819105));
#1011 = CARTESIAN_POINT('',(13.144241038689,23.418879283459,
    4.386363633902));
#1012 = CARTESIAN_POINT('',(-1.58253725036,29.994551608213,
    4.454545462684));
#1013 = CARTESIAN_POINT('',(-19.57354786803,26.282497184228,
    4.522727257632));
#1014 = CARTESIAN_POINT('',(-32.98814124143,10.838929690083,
    4.590909113237));
#1015 = CARTESIAN_POINT('',(-32.98814085036,-10.83892958436,
    4.659090886413));
#1016 = CARTESIAN_POINT('',(-19.5735482094,-26.2824972923,4.727272744798
    ));
#1017 = CARTESIAN_POINT('',(-1.582537125587,-29.9945514825,
    4.795454536756));
#1018 = CARTESIAN_POINT('',(13.144240943001,-23.41887936525,
    4.863636367111));
#1019 = CARTESIAN_POINT('',(20.49999999601,-11.70957271895,4.93181818144
    ));
#1020 = CARTESIAN_POINT('',(20.499999995694,-1.648970603821E-08,
    5.000000000378));
#1021 = ADVANCED_FACE('',(#1022),#1028,.T.);
#1022 = FACE_BOUND('',#1023,.T.);
#1023 = EDGE_LOOP('',(#1024,#1025,#1026,#1027));
#1024 = ORIENTED_EDGE('',*,*,#917,.F.);
#1025 = ORIENTED_EDGE('',*,*,#946,.T.);
#1026 = ORIENTED_EDGE('',*,*,#979,.T.);
#1027 = ORIENTED_EDGE('',*,*,#882,.F.);
#1028 = B_SPLINE_SURFACE_WITH_KNOTS('',1,11,(
    (#1029,#1030,#1031,#1032,#1033,#1034,#1035,#1036,#1037,#1038,#1039
      ,#1040)
    ,(#1041,#1042,#1043,#1044,#1045,#1046,#1047,#1048,#1049,#1050,#1051
      ,#1052
    )),.UNSPECIFIED.,.F.,.F.,.F.,(2,2),(12,12),(-0.5,-0.),(0.,
    6.285617029864),.PIECEWISE_BEZIER_KNOTS.);
#1029 = CARTESIAN_POINT('',(20.499999997167,-1.282637705973E-08,
    4.85000000025));
#1030 = CARTESIAN_POINT('',(20.499999997779,11.709572707056,
    4.918181819107));
#1031 = CARTESIAN_POINT('',(13.144241038681,23.418879283458,
    4.986363633904));
#1032 = CARTESIAN_POINT('',(-1.582537250332,29.994551608215,
    5.054545462687));
#1033 = CARTESIAN_POINT('',(-19.57354786808,26.282497184221,
    5.122727257634));
#1034 = CARTESIAN_POINT('',(-32.98814124135,10.838929690097,
    5.19090911324));
#1035 = CARTESIAN_POINT('',(-32.98814085043,-10.83892958438,
    5.259090886415));
#1036 = CARTESIAN_POINT('',(-19.57354820936,-26.28249729229,
    5.327272744801));
#1037 = CARTESIAN_POINT('',(-1.582537125605,-29.9945514825,
    5.395454536758));
#1038 = CARTESIAN_POINT('',(13.144240943005,-23.41887936525,
    5.463636367113));
#1039 = CARTESIAN_POINT('',(20.49999999601,-11.70957271895,
    5.531818181442));
#1040 = CARTESIAN_POINT('',(20.499999995694,-1.648970821045E-08,
    5.600000000381));
#1041 = CARTESIAN_POINT('',(20.899999997167,-1.282389965691E-08,
    4.550000000247));
#1042 = CARTESIAN_POINT('',(20.899999997777,11.938052172755,
    4.618181819105));
#1043 = CARTESIAN_POINT('',(13.400714033659,23.87583303715,
    4.686363633906));
#1044 = CARTESIAN_POINT('',(-1.613416024653,30.579811119037,
    4.75454546266));
#1045 = CARTESIAN_POINT('',(-19.9554707569,26.795326460276,
    4.822727257688));
#1046 = CARTESIAN_POINT('',(-33.63181228616,11.050420915375,
    4.890909113162));
#1047 = CARTESIAN_POINT('',(-33.63181189518,-11.05042080967,
    4.959090886461));
#1048 = CARTESIAN_POINT('',(-19.95547109821,-26.79532656833,
    5.027272744797));
#1049 = CARTESIAN_POINT('',(-1.613415899902,-30.57981099334,
    5.095454536735));
#1050 = CARTESIAN_POINT('',(13.400713937987,-23.87583311893,
    5.163636367117));
#1051 = CARTESIAN_POINT('',(20.899999996012,-11.93805218465,
    5.231818181439));
#1052 = CARTESIAN_POINT('',(20.899999995694,-1.648647819038E-08,
    5.300000000378));
#1053 = ( GEOMETRIC_REPRESENTATION_CONTEXT(3) 
GLOBAL_UNCERTAINTY_ASSIGNED_CONTEXT((#1057)) 
GLOBAL_UNIT_ASSIGNED_CONTEXT((#1054,#1055,#1056)) REPRESENTATION_CONTEXT
('Context #1','3D Context with UNIT and UNCERTAINTY') );
#1054 = ( LENGTH_UNIT() NAMED_UNIT(*) SI_UNIT(.MILLI.,.METRE.) );
#1055 = ( NAMED_UNIT(*) PLANE_ANGLE_UNIT() SI_UNIT($,.RADIAN.) );
#1056 = ( NAMED_UNIT(*) SI_UNIT($,.STERADIAN.) SOLID_ANGLE_UNIT() );
#1057 = UNCERTAINTY_MEASURE_WITH_UNIT(LENGTH_MEASURE(2.E-04),#1054,
  'distance_accuracy_value','confusion accuracy');
#1058 = PRODUCT_RELATED_PRODUCT_CATEGORY('part',$,(#7));
#1059 = MECHANICAL_DESIGN_GEOMETRIC_PRESENTATION_REPRESENTATION('',(
    #1060),#1053);
#1060 = STYLED_ITEM('color',(#1061),#15);
#1061 = PRESENTATION_STYLE_ASSIGNMENT((#1062,#1070));
#1062 = SURFACE_STYLE_USAGE(.BOTH.,#1063);
#1063 = SURFACE_SIDE_STYLE('',(#1064,#1068));
#1064 = SURFACE_STYLE_FILL_AREA(#1065);
#1065 = FILL_AREA_STYLE('',(#1066));
#1066 = FILL_AREA_STYLE_COLOUR('',#1067);
#1067 = COLOUR_RGB('',0.97254901356,0.639215714193,0.113725493293);
#1068 = SURFACE_STYLE_RENDERING_WITH_PROPERTIES(.NORMAL_SHADING.,#1067,(
    #1069));
#1069 = SURFACE_STYLE_TRANSPARENT(0.460000038147);
#1070 = CURVE_STYLE('',#1071,POSITIVE_LENGTH_MEASURE(0.1),#1072);
#1071 = DRAUGHTING_PRE_DEFINED_CURVE_FONT('continuous');
#1072 = COLOUR_RGB('',9.803921802644E-02,9.803921802644E-02,
  9.803921802644E-02);
ENDSEC;
END-ISO-10303-21;
