ISO-10303-21;
HEADER;
FILE_DESCRIPTION(('FreeCAD Model'),'2;1');
FILE_NAME('Open CASCADE Shape Model','2026-07-09T13:36:33',(''),(''),
  'Open CASCADE STEP processor 7.8','FreeCAD','Unknown');
FILE_SCHEMA(('AUTOMOTIVE_DESIGN { 1 0 10303 214 1 1 1 1 }'));
ENDSEC;
DATA;
#1 = APPLICATION_PROTOCOL_DEFINITION('international standard',
  'automotive_design',2000,#2);
#2 = APPLICATION_CONTEXT(
  'core data for automotive mechanical design processes');
#3 = SHAPE_DEFINITION_REPRESENTATION(#4,#10);
#4 = PRODUCT_DEFINITION_SHAPE('','',#5);
#5 = PRODUCT_DEFINITION('design','',#6,#9);
#6 = PRODUCT_DEFINITION_FORMATION('','',#7);
#7 = PRODUCT('M48_connector','M48_connector','',(#8));
#8 = PRODUCT_CONTEXT('',#2,'mechanical');
#9 = PRODUCT_DEFINITION_CONTEXT('part definition',#2,'design');
#10 = ADVANCED_BREP_SHAPE_REPRESENTATION('',(#11,#15),#1036);
#11 = AXIS2_PLACEMENT_3D('',#12,#13,#14);
#12 = CARTESIAN_POINT('',(0.,0.,0.));
#13 = DIRECTION('',(0.,0.,1.));
#14 = DIRECTION('',(1.,0.,-0.));
#15 = MANIFOLD_SOLID_BREP('',#16);
#16 = CLOSED_SHELL('',(#17,#59,#87,#107,#133,#158,#187,#207,#255,#306,
    #330,#352,#404,#460,#492,#597,#649,#701,#769,#804,#856,#908,#958,
    #1004));
#17 = ADVANCED_FACE('',(#18),#54,.T.);
#18 = FACE_BOUND('',#19,.T.);
#19 = EDGE_LOOP('',(#20,#31,#39,#46,#47));
#20 = ORIENTED_EDGE('',*,*,#21,.F.);
#21 = EDGE_CURVE('',#22,#24,#26,.T.);
#22 = VERTEX_POINT('',#23);
#23 = CARTESIAN_POINT('',(26.9,0.,0.));
#24 = VERTEX_POINT('',#25);
#25 = CARTESIAN_POINT('',(-3.791183436E-06,-26.9,0.));
#26 = CIRCLE('',#27,26.9);
#27 = AXIS2_PLACEMENT_3D('',#28,#29,#30);
#28 = CARTESIAN_POINT('',(0.,0.,0.));
#29 = DIRECTION('',(0.,0.,1.));
#30 = DIRECTION('',(1.,0.,0.));
#31 = ORIENTED_EDGE('',*,*,#32,.T.);
#32 = EDGE_CURVE('',#22,#33,#35,.T.);
#33 = VERTEX_POINT('',#34);
#34 = CARTESIAN_POINT('',(26.9,0.,-15.));
#35 = LINE('',#36,#37);
#36 = CARTESIAN_POINT('',(26.9,0.,0.));
#37 = VECTOR('',#38,1.);
#38 = DIRECTION('',(-0.,-0.,-1.));
#39 = ORIENTED_EDGE('',*,*,#40,.T.);
#40 = EDGE_CURVE('',#33,#33,#41,.T.);
#41 = CIRCLE('',#42,26.9);
#42 = AXIS2_PLACEMENT_3D('',#43,#44,#45);
#43 = CARTESIAN_POINT('',(0.,0.,-15.));
#44 = DIRECTION('',(0.,0.,1.));
#45 = DIRECTION('',(1.,0.,0.));
#46 = ORIENTED_EDGE('',*,*,#32,.F.);
#47 = ORIENTED_EDGE('',*,*,#48,.F.);
#48 = EDGE_CURVE('',#24,#22,#49,.T.);
#49 = CIRCLE('',#50,26.9);
#50 = AXIS2_PLACEMENT_3D('',#51,#52,#53);
#51 = CARTESIAN_POINT('',(0.,0.,0.));
#52 = DIRECTION('',(0.,0.,1.));
#53 = DIRECTION('',(1.,0.,0.));
#54 = CYLINDRICAL_SURFACE('',#55,26.9);
#55 = AXIS2_PLACEMENT_3D('',#56,#57,#58);
#56 = CARTESIAN_POINT('',(0.,0.,0.));
#57 = DIRECTION('',(0.,0.,1.));
#58 = DIRECTION('',(1.,0.,0.));
#59 = ADVANCED_FACE('',(#60,#64),#82,.T.);
#60 = FACE_BOUND('',#61,.T.);
#61 = EDGE_LOOP('',(#62,#63));
#62 = ORIENTED_EDGE('',*,*,#48,.T.);
#63 = ORIENTED_EDGE('',*,*,#21,.T.);
#64 = FACE_BOUND('',#65,.T.);
#65 = EDGE_LOOP('',(#66,#75));
#66 = ORIENTED_EDGE('',*,*,#67,.F.);
#67 = EDGE_CURVE('',#24,#68,#70,.T.);
#68 = VERTEX_POINT('',#69);
#69 = CARTESIAN_POINT('',(26.873656212222,-2.634378777838E-02,0.));
#70 = CIRCLE('',#71,26.873656212222);
#71 = AXIS2_PLACEMENT_3D('',#72,#73,#74);
#72 = CARTESIAN_POINT('',(0.,-2.634378777838E-02,0.));
#73 = DIRECTION('',(0.,0.,1.));
#74 = DIRECTION('',(1.,0.,0.));
#75 = ORIENTED_EDGE('',*,*,#76,.F.);
#76 = EDGE_CURVE('',#68,#24,#77,.T.);
#77 = CIRCLE('',#78,26.873656212222);
#78 = AXIS2_PLACEMENT_3D('',#79,#80,#81);
#79 = CARTESIAN_POINT('',(0.,-2.634378777838E-02,0.));
#80 = DIRECTION('',(0.,0.,1.));
#81 = DIRECTION('',(1.,0.,0.));
#82 = PLANE('',#83);
#83 = AXIS2_PLACEMENT_3D('',#84,#85,#86);
#84 = CARTESIAN_POINT('',(-2.15E-15,4.E-16,0.));
#85 = DIRECTION('',(0.,0.,1.));
#86 = DIRECTION('',(1.,0.,0.));
#87 = ADVANCED_FACE('',(#88,#91),#102,.F.);
#88 = FACE_BOUND('',#89,.F.);
#89 = EDGE_LOOP('',(#90));
#90 = ORIENTED_EDGE('',*,*,#40,.T.);
#91 = FACE_BOUND('',#92,.T.);
#92 = EDGE_LOOP('',(#93));
#93 = ORIENTED_EDGE('',*,*,#94,.T.);
#94 = EDGE_CURVE('',#95,#95,#97,.T.);
#95 = VERTEX_POINT('',#96);
#96 = CARTESIAN_POINT('',(24.,0.,-15.));
#97 = CIRCLE('',#98,24.);
#98 = AXIS2_PLACEMENT_3D('',#99,#100,#101);
#99 = CARTESIAN_POINT('',(0.,0.,-15.));
#100 = DIRECTION('',(0.,0.,1.));
#101 = DIRECTION('',(1.,0.,0.));
#102 = PLANE('',#103);
#103 = AXIS2_PLACEMENT_3D('',#104,#105,#106);
#104 = CARTESIAN_POINT('',(-2.15E-15,4.E-16,-15.));
#105 = DIRECTION('',(0.,0.,1.));
#106 = DIRECTION('',(1.,0.,0.));
#107 = ADVANCED_FACE('',(#108),#128,.T.);
#108 = FACE_BOUND('',#109,.F.);
#109 = EDGE_LOOP('',(#110,#111,#119,#126,#127));
#110 = ORIENTED_EDGE('',*,*,#76,.F.);
#111 = ORIENTED_EDGE('',*,*,#112,.T.);
#112 = EDGE_CURVE('',#68,#113,#115,.T.);
#113 = VERTEX_POINT('',#114);
#114 = CARTESIAN_POINT('',(26.873656212222,-2.634378777838E-02,2.));
#115 = LINE('',#116,#117);
#116 = CARTESIAN_POINT('',(26.873656212222,-2.634378777838E-02,0.));
#117 = VECTOR('',#118,1.);
#118 = DIRECTION('',(0.,0.,1.));
#119 = ORIENTED_EDGE('',*,*,#120,.T.);
#120 = EDGE_CURVE('',#113,#113,#121,.T.);
#121 = CIRCLE('',#122,26.873656212222);
#122 = AXIS2_PLACEMENT_3D('',#123,#124,#125);
#123 = CARTESIAN_POINT('',(0.,-2.634378777838E-02,2.));
#124 = DIRECTION('',(0.,0.,1.));
#125 = DIRECTION('',(1.,0.,0.));
#126 = ORIENTED_EDGE('',*,*,#112,.F.);
#127 = ORIENTED_EDGE('',*,*,#67,.F.);
#128 = CYLINDRICAL_SURFACE('',#129,26.873656212222);
#129 = AXIS2_PLACEMENT_3D('',#130,#131,#132);
#130 = CARTESIAN_POINT('',(0.,-2.634378777838E-02,0.));
#131 = DIRECTION('',(-0.,-0.,-1.));
#132 = DIRECTION('',(1.,0.,0.));
#133 = ADVANCED_FACE('',(#134),#153,.F.);
#134 = FACE_BOUND('',#135,.F.);
#135 = EDGE_LOOP('',(#136,#144,#145,#146));
#136 = ORIENTED_EDGE('',*,*,#137,.T.);
#137 = EDGE_CURVE('',#138,#95,#140,.T.);
#138 = VERTEX_POINT('',#139);
#139 = CARTESIAN_POINT('',(24.,0.,0.));
#140 = LINE('',#141,#142);
#141 = CARTESIAN_POINT('',(24.,0.,0.));
#142 = VECTOR('',#143,1.);
#143 = DIRECTION('',(-0.,-0.,-1.));
#144 = ORIENTED_EDGE('',*,*,#94,.T.);
#145 = ORIENTED_EDGE('',*,*,#137,.F.);
#146 = ORIENTED_EDGE('',*,*,#147,.F.);
#147 = EDGE_CURVE('',#138,#138,#148,.T.);
#148 = CIRCLE('',#149,24.);
#149 = AXIS2_PLACEMENT_3D('',#150,#151,#152);
#150 = CARTESIAN_POINT('',(0.,0.,0.));
#151 = DIRECTION('',(0.,0.,1.));
#152 = DIRECTION('',(1.,0.,0.));
#153 = CYLINDRICAL_SURFACE('',#154,24.);
#154 = AXIS2_PLACEMENT_3D('',#155,#156,#157);
#155 = CARTESIAN_POINT('',(0.,0.,0.));
#156 = DIRECTION('',(0.,0.,1.));
#157 = DIRECTION('',(1.,0.,0.));
#158 = ADVANCED_FACE('',(#159,#162),#182,.T.);
#159 = FACE_BOUND('',#160,.T.);
#160 = EDGE_LOOP('',(#161));
#161 = ORIENTED_EDGE('',*,*,#120,.T.);
#162 = FACE_BOUND('',#163,.T.);
#163 = EDGE_LOOP('',(#164,#175));
#164 = ORIENTED_EDGE('',*,*,#165,.F.);
#165 = EDGE_CURVE('',#166,#168,#170,.T.);
#166 = VERTEX_POINT('',#167);
#167 = CARTESIAN_POINT('',(23.900000012738,-6.954152E-09,2.000000000466)
  );
#168 = VERTEX_POINT('',#169);
#169 = CARTESIAN_POINT('',(20.378099931026,12.487715689387,2.));
#170 = CIRCLE('',#171,23.9);
#171 = AXIS2_PLACEMENT_3D('',#172,#173,#174);
#172 = CARTESIAN_POINT('',(0.,0.,2.));
#173 = DIRECTION('',(0.,0.,1.));
#174 = DIRECTION('',(1.,0.,0.));
#175 = ORIENTED_EDGE('',*,*,#176,.F.);
#176 = EDGE_CURVE('',#168,#166,#177,.T.);
#177 = CIRCLE('',#178,23.9);
#178 = AXIS2_PLACEMENT_3D('',#179,#180,#181);
#179 = CARTESIAN_POINT('',(0.,0.,2.));
#180 = DIRECTION('',(0.,0.,1.));
#181 = DIRECTION('',(1.,0.,0.));
#182 = PLANE('',#183);
#183 = AXIS2_PLACEMENT_3D('',#184,#185,#186);
#184 = CARTESIAN_POINT('',(-1.83E-15,-1.478796382181E-02,2.));
#185 = DIRECTION('',(0.,0.,1.));
#186 = DIRECTION('',(1.,0.,0.));
#187 = ADVANCED_FACE('',(#188,#191),#202,.F.);
#188 = FACE_BOUND('',#189,.F.);
#189 = EDGE_LOOP('',(#190));
#190 = ORIENTED_EDGE('',*,*,#147,.T.);
#191 = FACE_BOUND('',#192,.F.);
#192 = EDGE_LOOP('',(#193));
#193 = ORIENTED_EDGE('',*,*,#194,.F.);
#194 = EDGE_CURVE('',#195,#195,#197,.T.);
#195 = VERTEX_POINT('',#196);
#196 = CARTESIAN_POINT('',(21.,0.,0.));
#197 = CIRCLE('',#198,21.);
#198 = AXIS2_PLACEMENT_3D('',#199,#200,#201);
#199 = CARTESIAN_POINT('',(0.,0.,0.));
#200 = DIRECTION('',(0.,0.,1.));
#201 = DIRECTION('',(1.,0.,0.));
#202 = PLANE('',#203);
#203 = AXIS2_PLACEMENT_3D('',#204,#205,#206);
#204 = CARTESIAN_POINT('',(-1.83E-15,-1.478796382181E-02,0.));
#205 = DIRECTION('',(0.,0.,1.));
#206 = DIRECTION('',(1.,0.,0.));
#207 = ADVANCED_FACE('',(#208),#250,.T.);
#208 = FACE_BOUND('',#209,.F.);
#209 = EDGE_LOOP('',(#210,#211,#228,#245));
#210 = ORIENTED_EDGE('',*,*,#165,.F.);
#211 = ORIENTED_EDGE('',*,*,#212,.F.);
#212 = EDGE_CURVE('',#213,#166,#215,.T.);
#213 = VERTEX_POINT('',#214);
#214 = CARTESIAN_POINT('',(23.900000015644,-9.391196E-09,2.800000000572)
  );
#215 = B_SPLINE_CURVE_WITH_KNOTS('',11,(#216,#217,#218,#219,#220,#221,
    #222,#223,#224,#225,#226,#227),.UNSPECIFIED.,.F.,.F.,(12,12),(0.,
    6.285461291037),.PIECEWISE_BEZIER_KNOTS.);
#216 = CARTESIAN_POINT('',(23.900000011662,-8.19601299E-09,
    2.800000000432));
#217 = CARTESIAN_POINT('',(23.900000030975,-13.6516482332,2.727272728577
    ));
#218 = CARTESIAN_POINT('',(15.324261363004,-27.30298603663,
    2.654545452168));
#219 = CARTESIAN_POINT('',(-1.845006495479,-34.96925808214,
    2.581818191511));
#220 = CARTESIAN_POINT('',(-22.8198932804,-30.64154473218,2.509090888852
    ));
#221 = CARTESIAN_POINT('',(-38.45934390194,-12.63660705857,
    2.436363671294));
#222 = CARTESIAN_POINT('',(-38.45934616863,12.636607236788,
    2.363636323117));
#223 = CARTESIAN_POINT('',(-22.81989159701,30.641544413901,
    2.290909126619));
#224 = CARTESIAN_POINT('',(-1.845007347709,34.969258374026,
    2.218181797655));
#225 = CARTESIAN_POINT('',(15.324261702304,27.302985882466,
    2.145454554422));
#226 = CARTESIAN_POINT('',(23.89999996665,13.651648254549,2.07272727135)
  );
#227 = CARTESIAN_POINT('',(23.900000019104,-1.043114814E-08,
    2.000000000698));
#228 = ORIENTED_EDGE('',*,*,#229,.T.);
#229 = EDGE_CURVE('',#213,#230,#232,.T.);
#230 = VERTEX_POINT('',#231);
#231 = CARTESIAN_POINT('',(20.378099929918,12.487715688708,
    2.069999999905));
#232 = B_SPLINE_CURVE_WITH_KNOTS('',11,(#233,#234,#235,#236,#237,#238,
    #239,#240,#241,#242,#243,#244),.UNSPECIFIED.,.F.,.F.,(12,12),(0.,
    5.735483428071),.PIECEWISE_BEZIER_KNOTS.);
#233 = CARTESIAN_POINT('',(23.900000019108,-1.043136066E-08,
    2.800000000694));
#234 = CARTESIAN_POINT('',(23.899999894162,-12.45712890108,2.73363635994
    ));
#235 = CARTESIAN_POINT('',(16.758410207848,-24.91399051604,
    2.667272743335));
#236 = CARTESIAN_POINT('',(2.46959251345,-32.82343842633,2.600909051336)
  );
#237 = CARTESIAN_POINT('',(-15.67906685537,-31.62131571692,2.5345455235)
  );
#238 = CARTESIAN_POINT('',(-31.24803930402,-19.47912870581,
    2.468181733122));
#239 = CARTESIAN_POINT('',(-36.82114582663,0.281633223583,2.401818259922
    ));
#240 = CARTESIAN_POINT('',(-29.89069733371,18.769312681006,
    2.335454492962));
#241 = CARTESIAN_POINT('',(-15.04452403996,29.276941268614,
    2.269090935505));
#242 = CARTESIAN_POINT('',(1.271368766785,29.998913914514,2.202727263764
    ));
#243 = CARTESIAN_POINT('',(13.869268022983,23.109164155969,
    2.136363638752));
#244 = CARTESIAN_POINT('',(20.378099929918,12.487715688708,
    2.069999999905));
#245 = ORIENTED_EDGE('',*,*,#246,.T.);
#246 = EDGE_CURVE('',#230,#168,#247,.T.);
#247 = B_SPLINE_CURVE_WITH_KNOTS('',1,(#248,#249),.UNSPECIFIED.,.F.,.F.,
  (2,2),(-0.8,-0.),.PIECEWISE_BEZIER_KNOTS.);
#248 = CARTESIAN_POINT('',(20.378099929918,12.487715688708,
    2.069999999905));
#249 = CARTESIAN_POINT('',(20.378099929918,12.487715688708,
    1.269999999909));
#250 = CYLINDRICAL_SURFACE('',#251,23.9);
#251 = AXIS2_PLACEMENT_3D('',#252,#253,#254);
#252 = CARTESIAN_POINT('',(0.,0.,2.));
#253 = DIRECTION('',(-0.,-0.,-1.));
#254 = DIRECTION('',(1.,0.,0.));
#255 = ADVANCED_FACE('',(#256),#281,.T.);
#256 = FACE_BOUND('',#257,.T.);
#257 = EDGE_LOOP('',(#258,#259,#276));
#258 = ORIENTED_EDGE('',*,*,#176,.T.);
#259 = ORIENTED_EDGE('',*,*,#260,.T.);
#260 = EDGE_CURVE('',#166,#261,#263,.T.);
#261 = VERTEX_POINT('',#262);
#262 = CARTESIAN_POINT('',(20.378099929918,12.487715688708,
    1.269999999909));
#263 = B_SPLINE_CURVE_WITH_KNOTS('',11,(#264,#265,#266,#267,#268,#269,
    #270,#271,#272,#273,#274,#275),.UNSPECIFIED.,.F.,.F.,(12,12),(0.,
    5.735483428071),.PIECEWISE_BEZIER_KNOTS.);
#264 = CARTESIAN_POINT('',(23.900000019107,-1.043136599E-08,
    2.000000000698));
#265 = CARTESIAN_POINT('',(23.899999894163,-12.45712890109,
    1.933636359944));
#266 = CARTESIAN_POINT('',(16.758410207841,-24.91399051604,
    1.867272743339));
#267 = CARTESIAN_POINT('',(2.469592513477,-32.82343842634,1.800909051341
    ));
#268 = CARTESIAN_POINT('',(-15.67906685543,-31.62131571691,
    1.734545523504));
#269 = CARTESIAN_POINT('',(-31.24803930393,-19.47912870582,
    1.668181733127));
#270 = CARTESIAN_POINT('',(-36.82114582672,0.281633223582,1.601818259925
    ));
#271 = CARTESIAN_POINT('',(-29.89069733366,18.769312681013,
    1.535454492967));
#272 = CARTESIAN_POINT('',(-15.04452403998,29.276941268608,
    1.469090935509));
#273 = CARTESIAN_POINT('',(1.27136876679,29.998913914516,1.402727263769)
  );
#274 = CARTESIAN_POINT('',(13.869268022982,23.109164155969,
    1.336363638756));
#275 = CARTESIAN_POINT('',(20.378099929918,12.487715688708,
    1.269999999909));
#276 = ORIENTED_EDGE('',*,*,#277,.F.);
#277 = EDGE_CURVE('',#168,#261,#278,.T.);
#278 = B_SPLINE_CURVE_WITH_KNOTS('',1,(#279,#280),.UNSPECIFIED.,.F.,.F.,
  (2,2),(-0.8,-0.),.PIECEWISE_BEZIER_KNOTS.);
#279 = CARTESIAN_POINT('',(20.378099929918,12.487715688708,
    2.069999999905));
#280 = CARTESIAN_POINT('',(20.378099929918,12.487715688708,
    1.269999999909));
#281 = B_SPLINE_SURFACE_WITH_KNOTS('',1,11,(
    (#282,#283,#284,#285,#286,#287,#288,#289,#290,#291,#292,#293)
    ,(#294,#295,#296,#297,#298,#299,#300,#301,#302,#303,#304,#305
  )),.UNSPECIFIED.,.F.,.F.,.F.,(2,2),(12,12),(-0.8,-0.),(0.,
    5.735483428071),.PIECEWISE_BEZIER_KNOTS.);
#282 = CARTESIAN_POINT('',(23.900000019108,-1.043136066E-08,
    2.800000000694));
#283 = CARTESIAN_POINT('',(23.899999894162,-12.45712890108,2.73363635994
    ));
#284 = CARTESIAN_POINT('',(16.758410207848,-24.91399051604,
    2.667272743335));
#285 = CARTESIAN_POINT('',(2.46959251345,-32.82343842633,2.600909051336)
  );
#286 = CARTESIAN_POINT('',(-15.67906685537,-31.62131571692,2.5345455235)
  );
#287 = CARTESIAN_POINT('',(-31.24803930402,-19.47912870581,
    2.468181733122));
#288 = CARTESIAN_POINT('',(-36.82114582663,0.281633223583,2.401818259922
    ));
#289 = CARTESIAN_POINT('',(-29.89069733371,18.769312681006,
    2.335454492962));
#290 = CARTESIAN_POINT('',(-15.04452403996,29.276941268614,
    2.269090935505));
#291 = CARTESIAN_POINT('',(1.271368766785,29.998913914514,2.202727263764
    ));
#292 = CARTESIAN_POINT('',(13.869268022983,23.109164155969,
    2.136363638752));
#293 = CARTESIAN_POINT('',(20.378099929918,12.487715688708,
    2.069999999905));
#294 = CARTESIAN_POINT('',(23.900000019107,-1.043136599E-08,
    2.000000000698));
#295 = CARTESIAN_POINT('',(23.899999894163,-12.45712890109,
    1.933636359944));
#296 = CARTESIAN_POINT('',(16.758410207841,-24.91399051604,
    1.867272743339));
#297 = CARTESIAN_POINT('',(2.469592513477,-32.82343842634,1.800909051341
    ));
#298 = CARTESIAN_POINT('',(-15.67906685543,-31.62131571691,
    1.734545523504));
#299 = CARTESIAN_POINT('',(-31.24803930393,-19.47912870582,
    1.668181733127));
#300 = CARTESIAN_POINT('',(-36.82114582672,0.281633223582,1.601818259925
    ));
#301 = CARTESIAN_POINT('',(-29.89069733366,18.769312681013,
    1.535454492967));
#302 = CARTESIAN_POINT('',(-15.04452403998,29.276941268608,
    1.469090935509));
#303 = CARTESIAN_POINT('',(1.27136876679,29.998913914516,1.402727263769)
  );
#304 = CARTESIAN_POINT('',(13.869268022982,23.109164155969,
    1.336363638756));
#305 = CARTESIAN_POINT('',(20.378099929918,12.487715688708,
    1.269999999909));
#306 = ADVANCED_FACE('',(#307),#325,.F.);
#307 = FACE_BOUND('',#308,.T.);
#308 = EDGE_LOOP('',(#309,#318,#323,#324));
#309 = ORIENTED_EDGE('',*,*,#310,.T.);
#310 = EDGE_CURVE('',#311,#311,#313,.T.);
#311 = VERTEX_POINT('',#312);
#312 = CARTESIAN_POINT('',(21.,0.,6.));
#313 = CIRCLE('',#314,21.);
#314 = AXIS2_PLACEMENT_3D('',#315,#316,#317);
#315 = CARTESIAN_POINT('',(0.,0.,6.));
#316 = DIRECTION('',(0.,0.,1.));
#317 = DIRECTION('',(1.,0.,0.));
#318 = ORIENTED_EDGE('',*,*,#319,.T.);
#319 = EDGE_CURVE('',#311,#195,#320,.T.);
#320 = B_SPLINE_CURVE_WITH_KNOTS('',1,(#321,#322),.UNSPECIFIED.,.F.,.F.,
  (2,2),(-6.,0.),.PIECEWISE_BEZIER_KNOTS.);
#321 = CARTESIAN_POINT('',(21.,0.,6.));
#322 = CARTESIAN_POINT('',(21.,0.,0.));
#323 = ORIENTED_EDGE('',*,*,#194,.F.);
#324 = ORIENTED_EDGE('',*,*,#319,.F.);
#325 = CYLINDRICAL_SURFACE('',#326,21.);
#326 = AXIS2_PLACEMENT_3D('',#327,#328,#329);
#327 = CARTESIAN_POINT('',(0.,0.,0.));
#328 = DIRECTION('',(-0.,-0.,-1.));
#329 = DIRECTION('',(1.,0.,0.));
#330 = ADVANCED_FACE('',(#331),#347,.T.);
#331 = FACE_BOUND('',#332,.F.);
#332 = EDGE_LOOP('',(#333,#334,#341,#346));
#333 = ORIENTED_EDGE('',*,*,#246,.F.);
#334 = ORIENTED_EDGE('',*,*,#335,.F.);
#335 = EDGE_CURVE('',#336,#230,#338,.T.);
#336 = VERTEX_POINT('',#337);
#337 = CARTESIAN_POINT('',(19.695987798436,12.069716836933,
    1.669999999904));
#338 = B_SPLINE_CURVE_WITH_KNOTS('',1,(#339,#340),.UNSPECIFIED.,.F.,.F.,
  (2,2),(-0.894427191,-0.),.PIECEWISE_BEZIER_KNOTS.);
#339 = CARTESIAN_POINT('',(19.695987798436,12.069716836933,
    1.669999999904));
#340 = CARTESIAN_POINT('',(20.378099929918,12.487715688708,
    2.069999999905));
#341 = ORIENTED_EDGE('',*,*,#342,.F.);
#342 = EDGE_CURVE('',#261,#336,#343,.T.);
#343 = B_SPLINE_CURVE_WITH_KNOTS('',1,(#344,#345),.UNSPECIFIED.,.F.,.F.,
  (2,2),(-0.894427191,-0.),.PIECEWISE_BEZIER_KNOTS.);
#344 = CARTESIAN_POINT('',(20.378099929918,12.487715688708,
    1.269999999909));
#345 = CARTESIAN_POINT('',(19.695987798436,12.069716836933,
    1.669999999904));
#346 = ORIENTED_EDGE('',*,*,#277,.F.);
#347 = PLANE('',#348);
#348 = AXIS2_PLACEMENT_3D('',#349,#350,#351);
#349 = CARTESIAN_POINT('',(20.142435984526,12.343300637234,
    1.669999999903));
#350 = DIRECTION('',(-0.522498564719,0.852640164352,-1.9E-16));
#351 = DIRECTION('',(-3.459269885896E-14,-2.097559586246E-14,1.));
#352 = ADVANCED_FACE('',(#353),#379,.T.);
#353 = FACE_BOUND('',#354,.T.);
#354 = EDGE_LOOP('',(#355,#372,#377,#378));
#355 = ORIENTED_EDGE('',*,*,#356,.F.);
#356 = EDGE_CURVE('',#357,#336,#359,.T.);
#357 = VERTEX_POINT('',#358);
#358 = CARTESIAN_POINT('',(23.100000019107,-1.0434826E-08,2.400000000693
    ));
#359 = B_SPLINE_CURVE_WITH_KNOTS('',11,(#360,#361,#362,#363,#364,#365,
    #366,#367,#368,#369,#370,#371),.UNSPECIFIED.,.F.,.F.,(12,12),(0.,
    5.735483428071),.PIECEWISE_BEZIER_KNOTS.);
#360 = CARTESIAN_POINT('',(23.100000019107,-1.043495246E-08,
    2.400000000693));
#361 = CARTESIAN_POINT('',(23.09999989416,-12.04015387616,2.333636359937
    ));
#362 = CARTESIAN_POINT('',(16.197459252693,-24.0800494067,2.267272743341
    ));
#363 = CARTESIAN_POINT('',(2.386928293559,-31.72474594177,2.200909051313
    ));
#364 = CARTESIAN_POINT('',(-15.15424447561,-30.5628616038,2.134545523538
    ));
#365 = CARTESIAN_POINT('',(-30.20207990036,-18.82710770603,
    2.068181733069));
#366 = CARTESIAN_POINT('',(-35.5886387924,0.272206218312,2.001818259969)
  );
#367 = CARTESIAN_POINT('',(-28.89017193853,18.141051132183,
    1.935454492928));
#368 = CARTESIAN_POINT('',(-14.54094162779,28.29695999178,1.869090935519
    ));
#369 = CARTESIAN_POINT('',(1.228812484894,28.994766161028,1.802727263758
    ));
#370 = CARTESIAN_POINT('',(13.405024743547,22.335635650413,
    1.736363638751));
#371 = CARTESIAN_POINT('',(19.695987798436,12.069716836933,
    1.669999999904));
#372 = ORIENTED_EDGE('',*,*,#373,.T.);
#373 = EDGE_CURVE('',#357,#213,#374,.T.);
#374 = B_SPLINE_CURVE_WITH_KNOTS('',1,(#375,#376),.UNSPECIFIED.,.F.,.F.,
  (2,2),(-0.894427191,-0.),.PIECEWISE_BEZIER_KNOTS.);
#375 = CARTESIAN_POINT('',(23.100000019105,-1.043472798E-08,
    2.400000000693));
#376 = CARTESIAN_POINT('',(23.900000019105,-1.043113965E-08,
    2.800000000694));
#377 = ORIENTED_EDGE('',*,*,#229,.T.);
#378 = ORIENTED_EDGE('',*,*,#335,.F.);
#379 = B_SPLINE_SURFACE_WITH_KNOTS('',1,11,(
    (#380,#381,#382,#383,#384,#385,#386,#387,#388,#389,#390,#391)
    ,(#392,#393,#394,#395,#396,#397,#398,#399,#400,#401,#402,#403
  )),.UNSPECIFIED.,.F.,.F.,.F.,(2,2),(12,12),(-0.894427191,-0.),(0.,
    5.735483428071),.PIECEWISE_BEZIER_KNOTS.);
#380 = CARTESIAN_POINT('',(23.100000019107,-1.043495246E-08,
    2.400000000693));
#381 = CARTESIAN_POINT('',(23.09999989416,-12.04015387616,2.333636359937
    ));
#382 = CARTESIAN_POINT('',(16.197459252693,-24.0800494067,2.267272743341
    ));
#383 = CARTESIAN_POINT('',(2.386928293559,-31.72474594177,2.200909051313
    ));
#384 = CARTESIAN_POINT('',(-15.15424447561,-30.5628616038,2.134545523538
    ));
#385 = CARTESIAN_POINT('',(-30.20207990036,-18.82710770603,
    2.068181733069));
#386 = CARTESIAN_POINT('',(-35.5886387924,0.272206218312,2.001818259969)
  );
#387 = CARTESIAN_POINT('',(-28.89017193853,18.141051132183,
    1.935454492928));
#388 = CARTESIAN_POINT('',(-14.54094162779,28.29695999178,1.869090935519
    ));
#389 = CARTESIAN_POINT('',(1.228812484894,28.994766161028,1.802727263758
    ));
#390 = CARTESIAN_POINT('',(13.405024743547,22.335635650413,
    1.736363638751));
#391 = CARTESIAN_POINT('',(19.695987798436,12.069716836933,
    1.669999999904));
#392 = CARTESIAN_POINT('',(23.900000019108,-1.043136066E-08,
    2.800000000694));
#393 = CARTESIAN_POINT('',(23.899999894162,-12.45712890108,2.73363635994
    ));
#394 = CARTESIAN_POINT('',(16.758410207848,-24.91399051604,
    2.667272743335));
#395 = CARTESIAN_POINT('',(2.46959251345,-32.82343842633,2.600909051336)
  );
#396 = CARTESIAN_POINT('',(-15.67906685537,-31.62131571692,2.5345455235)
  );
#397 = CARTESIAN_POINT('',(-31.24803930402,-19.47912870581,
    2.468181733122));
#398 = CARTESIAN_POINT('',(-36.82114582663,0.281633223583,2.401818259922
    ));
#399 = CARTESIAN_POINT('',(-29.89069733371,18.769312681006,
    2.335454492962));
#400 = CARTESIAN_POINT('',(-15.04452403996,29.276941268614,
    2.269090935505));
#401 = CARTESIAN_POINT('',(1.271368766785,29.998913914514,2.202727263764
    ));
#402 = CARTESIAN_POINT('',(13.869268022983,23.109164155969,
    2.136363638752));
#403 = CARTESIAN_POINT('',(20.378099929918,12.487715688708,
    2.069999999905));
#404 = ADVANCED_FACE('',(#405),#435,.T.);
#405 = FACE_BOUND('',#406,.T.);
#406 = EDGE_LOOP('',(#407,#408,#415,#430));
#407 = ORIENTED_EDGE('',*,*,#212,.F.);
#408 = ORIENTED_EDGE('',*,*,#409,.T.);
#409 = EDGE_CURVE('',#213,#410,#412,.T.);
#410 = VERTEX_POINT('',#411);
#411 = CARTESIAN_POINT('',(23.100000011662,-8.198271E-09,3.200000000426)
  );
#412 = B_SPLINE_CURVE_WITH_KNOTS('',1,(#413,#414),.UNSPECIFIED.,.F.,.F.,
  (2,2),(-0.894427191,-0.),.PIECEWISE_BEZIER_KNOTS.);
#413 = CARTESIAN_POINT('',(23.900000011662,-8.19489098E-09,
    2.800000000432));
#414 = CARTESIAN_POINT('',(23.100000011661,-8.19771025E-09,
    3.200000000426));
#415 = ORIENTED_EDGE('',*,*,#416,.T.);
#416 = EDGE_CURVE('',#410,#357,#417,.T.);
#417 = B_SPLINE_CURVE_WITH_KNOTS('',11,(#418,#419,#420,#421,#422,#423,
    #424,#425,#426,#427,#428,#429),.UNSPECIFIED.,.F.,.F.,(12,12),(0.,
    6.285461291037),.PIECEWISE_BEZIER_KNOTS.);
#418 = CARTESIAN_POINT('',(23.100000011662,-8.19885275E-09,
    3.200000000426));
#419 = CARTESIAN_POINT('',(23.100000030974,-13.19468930182,
    3.127272728572));
#420 = CARTESIAN_POINT('',(14.811315373039,-26.38907852921,
    3.054545452161));
#421 = CARTESIAN_POINT('',(-1.783248946866,-33.79873906064,
    2.981818191512));
#422 = CARTESIAN_POINT('',(-22.05604750273,-29.61588617977,
    2.909090888833));
#423 = CARTESIAN_POINT('',(-37.17200181243,-12.21362460845,
    2.836363671308));
#424 = CARTESIAN_POINT('',(-37.17200407899,12.213624786733,
    2.763636323089));
#425 = CARTESIAN_POINT('',(-22.05604581942,29.615885861388,
    2.690909126631));
#426 = CARTESIAN_POINT('',(-1.783249799048,33.798739352612,
    2.618181797639));
#427 = CARTESIAN_POINT('',(14.811315712336,26.389078374993,
    2.545454554419));
#428 = CARTESIAN_POINT('',(23.099999966652,13.194689323176,
    2.472727271343));
#429 = CARTESIAN_POINT('',(23.100000019105,-1.043472798E-08,
    2.400000000693));
#430 = ORIENTED_EDGE('',*,*,#431,.F.);
#431 = EDGE_CURVE('',#166,#357,#432,.T.);
#432 = B_SPLINE_CURVE_WITH_KNOTS('',1,(#433,#434),.UNSPECIFIED.,.F.,.F.,
  (2,2),(-0.894427191,-0.),.PIECEWISE_BEZIER_KNOTS.);
#433 = CARTESIAN_POINT('',(23.900000019104,-1.043114814E-08,
    2.000000000698));
#434 = CARTESIAN_POINT('',(23.100000019105,-1.043472798E-08,
    2.400000000693));
#435 = B_SPLINE_SURFACE_WITH_KNOTS('',1,11,(
    (#436,#437,#438,#439,#440,#441,#442,#443,#444,#445,#446,#447)
    ,(#448,#449,#450,#451,#452,#453,#454,#455,#456,#457,#458,#459
  )),.UNSPECIFIED.,.F.,.F.,.F.,(2,2),(12,12),(-0.894427191,-0.),(0.,
    6.285461291037),.PIECEWISE_BEZIER_KNOTS.);
#436 = CARTESIAN_POINT('',(23.900000011662,-8.19601299E-09,
    2.800000000432));
#437 = CARTESIAN_POINT('',(23.900000030976,-13.6516482332,2.727272728577
    ));
#438 = CARTESIAN_POINT('',(15.324261363003,-27.30298603663,
    2.654545452168));
#439 = CARTESIAN_POINT('',(-1.845006495478,-34.96925808214,
    2.581818191511));
#440 = CARTESIAN_POINT('',(-22.8198932804,-30.64154473218,2.509090888852
    ));
#441 = CARTESIAN_POINT('',(-38.45934390194,-12.63660705857,
    2.436363671294));
#442 = CARTESIAN_POINT('',(-38.45934616863,12.636607236788,
    2.363636323117));
#443 = CARTESIAN_POINT('',(-22.81989159701,30.641544413901,
    2.290909126619));
#444 = CARTESIAN_POINT('',(-1.845007347714,34.969258374026,
    2.218181797655));
#445 = CARTESIAN_POINT('',(15.324261702306,27.302985882466,
    2.145454554422));
#446 = CARTESIAN_POINT('',(23.89999996665,13.651648254549,2.07272727135)
  );
#447 = CARTESIAN_POINT('',(23.900000019104,-1.043114814E-08,
    2.000000000698));
#448 = CARTESIAN_POINT('',(23.100000011662,-8.19885275E-09,
    3.200000000426));
#449 = CARTESIAN_POINT('',(23.100000030974,-13.19468930182,
    3.127272728572));
#450 = CARTESIAN_POINT('',(14.811315373039,-26.38907852921,
    3.054545452161));
#451 = CARTESIAN_POINT('',(-1.783248946866,-33.79873906064,
    2.981818191512));
#452 = CARTESIAN_POINT('',(-22.05604750273,-29.61588617977,
    2.909090888833));
#453 = CARTESIAN_POINT('',(-37.17200181243,-12.21362460845,
    2.836363671308));
#454 = CARTESIAN_POINT('',(-37.17200407899,12.213624786733,
    2.763636323089));
#455 = CARTESIAN_POINT('',(-22.05604581942,29.615885861388,
    2.690909126631));
#456 = CARTESIAN_POINT('',(-1.783249799048,33.798739352612,
    2.618181797639));
#457 = CARTESIAN_POINT('',(14.811315712336,26.389078374993,
    2.545454554419));
#458 = CARTESIAN_POINT('',(23.099999966652,13.194689323176,
    2.472727271343));
#459 = CARTESIAN_POINT('',(23.100000019105,-1.043472798E-08,
    2.400000000693));
#460 = ADVANCED_FACE('',(#461),#467,.T.);
#461 = FACE_BOUND('',#462,.T.);
#462 = EDGE_LOOP('',(#463,#464,#465,#466));
#463 = ORIENTED_EDGE('',*,*,#260,.F.);
#464 = ORIENTED_EDGE('',*,*,#431,.T.);
#465 = ORIENTED_EDGE('',*,*,#356,.T.);
#466 = ORIENTED_EDGE('',*,*,#342,.F.);
#467 = B_SPLINE_SURFACE_WITH_KNOTS('',1,11,(
    (#468,#469,#470,#471,#472,#473,#474,#475,#476,#477,#478,#479)
    ,(#480,#481,#482,#483,#484,#485,#486,#487,#488,#489,#490,#491
  )),.UNSPECIFIED.,.F.,.F.,.F.,(2,2),(12,12),(-0.894427191,-0.),(0.,
    5.735483428071),.PIECEWISE_BEZIER_KNOTS.);
#468 = CARTESIAN_POINT('',(23.900000019107,-1.043136599E-08,
    2.000000000698));
#469 = CARTESIAN_POINT('',(23.899999894163,-12.45712890109,
    1.933636359944));
#470 = CARTESIAN_POINT('',(16.758410207841,-24.91399051604,
    1.867272743339));
#471 = CARTESIAN_POINT('',(2.469592513477,-32.82343842634,1.800909051341
    ));
#472 = CARTESIAN_POINT('',(-15.67906685543,-31.62131571691,
    1.734545523504));
#473 = CARTESIAN_POINT('',(-31.24803930393,-19.47912870582,
    1.668181733127));
#474 = CARTESIAN_POINT('',(-36.82114582671,0.281633223582,1.601818259925
    ));
#475 = CARTESIAN_POINT('',(-29.89069733366,18.769312681013,
    1.535454492967));
#476 = CARTESIAN_POINT('',(-15.04452403998,29.276941268608,
    1.469090935509));
#477 = CARTESIAN_POINT('',(1.271368766789,29.998913914516,1.402727263769
    ));
#478 = CARTESIAN_POINT('',(13.869268022983,23.109164155969,
    1.336363638756));
#479 = CARTESIAN_POINT('',(20.378099929918,12.487715688708,
    1.269999999909));
#480 = CARTESIAN_POINT('',(23.100000019107,-1.043495246E-08,
    2.400000000693));
#481 = CARTESIAN_POINT('',(23.09999989416,-12.04015387616,2.333636359937
    ));
#482 = CARTESIAN_POINT('',(16.197459252693,-24.0800494067,2.267272743341
    ));
#483 = CARTESIAN_POINT('',(2.386928293559,-31.72474594177,2.200909051313
    ));
#484 = CARTESIAN_POINT('',(-15.15424447561,-30.5628616038,2.134545523538
    ));
#485 = CARTESIAN_POINT('',(-30.20207990036,-18.82710770603,
    2.068181733069));
#486 = CARTESIAN_POINT('',(-35.5886387924,0.272206218312,2.001818259969)
  );
#487 = CARTESIAN_POINT('',(-28.89017193853,18.141051132183,
    1.935454492928));
#488 = CARTESIAN_POINT('',(-14.54094162779,28.29695999178,1.869090935519
    ));
#489 = CARTESIAN_POINT('',(1.228812484894,28.994766161028,1.802727263758
    ));
#490 = CARTESIAN_POINT('',(13.405024743547,22.335635650413,
    1.736363638751));
#491 = CARTESIAN_POINT('',(19.695987798436,12.069716836933,
    1.669999999904));
#492 = ADVANCED_FACE('',(#493,#589),#592,.T.);
#493 = FACE_BOUND('',#494,.T.);
#494 = EDGE_LOOP('',(#495,#544));
#495 = ORIENTED_EDGE('',*,*,#496,.F.);
#496 = EDGE_CURVE('',#497,#499,#501,.T.);
#497 = VERTEX_POINT('',#498);
#498 = CARTESIAN_POINT('',(23.900000000634,-3.85071E-10,6.000000000027)
  );
#499 = VERTEX_POINT('',#500);
#500 = CARTESIAN_POINT('',(-23.09997513196,-3.47951E-10,6.));
#501 = B_SPLINE_CURVE_WITH_KNOTS('',6,(#502,#503,#504,#505,#506,#507,
    #508,#509,#510,#511,#512,#513,#514,#515,#516,#517,#518,#519,#520,
    #521,#522,#523,#524,#525,#526,#527,#528,#529,#530,#531,#532,#533,
    #534,#535,#536,#537,#538,#539,#540,#541,#542,#543),.UNSPECIFIED.,.F.
  ,.F.,(7,5,5,5,5,5,5,5,7),(0.,0.124832761145,0.256211294182,
    0.382998653307,0.509246541792,0.633960218937,0.756160160724,
    0.877845613834,1.),.UNSPECIFIED.);
#502 = CARTESIAN_POINT('',(23.9,-4.622E-14,6.));
#503 = CARTESIAN_POINT('',(23.883633962051,-1.536035826137,6.));
#504 = CARTESIAN_POINT('',(23.748814999086,-3.070894607853,6.));
#505 = CARTESIAN_POINT('',(23.495486264467,-4.592962733817,6.));
#506 = CARTESIAN_POINT('',(23.125183233737,-6.090892940185,6.));
#507 = CARTESIAN_POINT('',(22.640755422975,-7.553559893923,6.));
#508 = CARTESIAN_POINT('',(21.421380034219,-10.46097942348,6.));
#509 = CARTESIAN_POINT('',(20.674548011222,-11.90096176267,6.));
#510 = CARTESIAN_POINT('',(19.811277958762,-13.2774020574,6.));
#511 = CARTESIAN_POINT('',(18.838370914193,-14.57868414319,6.));
#512 = CARTESIAN_POINT('',(17.764002033602,-15.79406670802,6.));
#513 = CARTESIAN_POINT('',(15.472811844453,-17.99463709024,6.));
#514 = CARTESIAN_POINT('',(14.262139531575,-18.98652079556,6.));
#515 = CARTESIAN_POINT('',(12.974837565979,-19.88087841155,6.));
#516 = CARTESIAN_POINT('',(11.62070907703,-20.67044163557,6.));
#517 = CARTESIAN_POINT('',(10.210376579434,-21.34913372047,6.));
#518 = CARTESIAN_POINT('',(7.306701246592,-22.4731686875,6.));
#519 = CARTESIAN_POINT('',(5.813563157953,-22.91955958563,6.));
#520 = CARTESIAN_POINT('',(4.287471199088,-23.24692343537,6.));
#521 = CARTESIAN_POINT('',(2.740223391108,-23.45234864468,6.));
#522 = CARTESIAN_POINT('',(1.183912658586,-23.53433256882,6.));
#523 = CARTESIAN_POINT('',(-1.903105309844,-23.45236888232,6.));
#524 = CARTESIAN_POINT('',(-3.434074431943,-23.29139308416,6.));
#525 = CARTESIAN_POINT('',(-4.949955452549,-23.01033826985,6.));
#526 = CARTESIAN_POINT('',(-6.439071346944,-22.61100113826,6.));
#527 = CARTESIAN_POINT('',(-7.890004611597,-22.09654403316,6.));
#528 = CARTESIAN_POINT('',(-10.66509882993,-20.8596289634,6.));
#529 = CARTESIAN_POINT('',(-11.99137898708,-20.14150415689,6.));
#530 = CARTESIAN_POINT('',(-13.26007884703,-19.32190985622,6.));
#531 = CARTESIAN_POINT('',(-14.46160079833,-18.40663705331,6.));
#532 = CARTESIAN_POINT('',(-15.58705827897,-17.40256858307,6.));
#533 = CARTESIAN_POINT('',(-17.66544691071,-15.23779625196,6.));
#534 = CARTESIAN_POINT('',(-18.61919772552,-14.07765178691,6.));
#535 = CARTESIAN_POINT('',(-19.48175504074,-12.8455289477,6.));
#536 = CARTESIAN_POINT('',(-20.24644042024,-11.5503715288,6.));
#537 = CARTESIAN_POINT('',(-20.90764124553,-10.20186352598,6.));
#538 = CARTESIAN_POINT('',(-22.01658895714,-7.413911475587,6.));
#539 = CARTESIAN_POINT('',(-22.46356537383,-5.973981466948,6.));
#540 = CARTESIAN_POINT('',(-22.79757241693,-4.501453831904,6.));
#541 = CARTESIAN_POINT('',(-23.01575144066,-3.007351247202,6.));
#542 = CARTESIAN_POINT('',(-23.11654361717,-1.502985931226,6.));
#543 = CARTESIAN_POINT('',(-23.09997513196,-3.480132E-10,6.));
#544 = ORIENTED_EDGE('',*,*,#545,.T.);
#545 = EDGE_CURVE('',#497,#499,#546,.T.);
#546 = B_SPLINE_CURVE_WITH_KNOTS('',6,(#547,#548,#549,#550,#551,#552,
    #553,#554,#555,#556,#557,#558,#559,#560,#561,#562,#563,#564,#565,
    #566,#567,#568,#569,#570,#571,#572,#573,#574,#575,#576,#577,#578,
    #579,#580,#581,#582,#583,#584,#585,#586,#587,#588),.UNSPECIFIED.,.F.
  ,.F.,(7,5,5,5,5,5,5,5,7),(0.,0.124832761634,0.256211294528,
    0.382998653663,0.509246542143,0.63396021926,0.756160161043,
    0.877845614166,1.),.UNSPECIFIED.);
#547 = CARTESIAN_POINT('',(23.900000003805,-2.31043181E-09,6.));
#548 = CARTESIAN_POINT('',(23.883633963186,1.53603582939,6.));
#549 = CARTESIAN_POINT('',(23.748814997402,3.070894617842,6.));
#550 = CARTESIAN_POINT('',(23.495486263608,4.592962748296,6.));
#551 = CARTESIAN_POINT('',(23.125183228427,6.090892961269,6.));
#552 = CARTESIAN_POINT('',(22.640755414833,7.553559919577,6.));
#553 = CARTESIAN_POINT('',(21.421380020091,10.460979451435,6.));
#554 = CARTESIAN_POINT('',(20.67454799578,11.900961788022,6.));
#555 = CARTESIAN_POINT('',(19.811277942257,13.27740208007,6.));
#556 = CARTESIAN_POINT('',(18.83837089701,14.578684163211,6.));
#557 = CARTESIAN_POINT('',(17.764002016152,15.794066725527,6.));
#558 = CARTESIAN_POINT('',(15.472811825886,17.994637104448,6.));
#559 = CARTESIAN_POINT('',(14.262139511922,18.986520808772,6.));
#560 = CARTESIAN_POINT('',(12.974837545397,19.88087842376,6.));
#561 = CARTESIAN_POINT('',(11.620709055601,20.670441646779,6.));
#562 = CARTESIAN_POINT('',(10.21037655726,21.349133730603,6.));
#563 = CARTESIAN_POINT('',(7.306701223227,22.473168695223,6.));
#564 = CARTESIAN_POINT('',(5.813563134164,22.919559592056,6.));
#565 = CARTESIAN_POINT('',(4.28747117496,23.246923440393,6.));
#566 = CARTESIAN_POINT('',(2.74022336674,23.452348648176,6.));
#567 = CARTESIAN_POINT('',(1.183912634096,23.534332570689,6.));
#568 = CARTESIAN_POINT('',(-1.903105334012,23.452368880818,6.));
#569 = CARTESIAN_POINT('',(-3.434074455671,23.291393080966,6.));
#570 = CARTESIAN_POINT('',(-4.949955475705,23.010338264971,6.));
#571 = CARTESIAN_POINT('',(-6.439071369388,22.61100113176,6.));
#572 = CARTESIAN_POINT('',(-7.890004633221,22.096544025127,6.));
#573 = CARTESIAN_POINT('',(-10.66509885001,20.859628952471,6.));
#574 = CARTESIAN_POINT('',(-11.99137900644,20.141504144538,6.));
#575 = CARTESIAN_POINT('',(-13.26007886557,19.321909842552,6.));
#576 = CARTESIAN_POINT('',(-14.461600816,18.406637038415,6.));
#577 = CARTESIAN_POINT('',(-15.58705829569,17.402568567062,6.));
#578 = CARTESIAN_POINT('',(-17.66544692557,15.237796233754,6.));
#579 = CARTESIAN_POINT('',(-18.61919773944,14.077651767609,6.));
#580 = CARTESIAN_POINT('',(-19.48175505362,12.845528927369,6.));
#581 = CARTESIAN_POINT('',(-20.24644043199,11.550371507504,6.));
#582 = CARTESIAN_POINT('',(-20.90764125605,10.201863503795,6.));
#583 = CARTESIAN_POINT('',(-22.01658896339,7.413911455741,6.));
#584 = CARTESIAN_POINT('',(-22.46356537768,5.973981450582,6.));
#585 = CARTESIAN_POINT('',(-22.79757241891,4.501453819284,6.));
#586 = CARTESIAN_POINT('',(-23.01575144137,3.007351238489,6.));
#587 = CARTESIAN_POINT('',(-23.11654361721,1.502985926525,6.));
#588 = CARTESIAN_POINT('',(-23.09997513196,-3.4784364E-10,6.));
#589 = FACE_BOUND('',#590,.T.);
#590 = EDGE_LOOP('',(#591));
#591 = ORIENTED_EDGE('',*,*,#310,.F.);
#592 = PLANE('',#593);
#593 = AXIS2_PLACEMENT_3D('',#594,#595,#596);
#594 = CARTESIAN_POINT('',(-2.19E-15,-3.E-17,6.));
#595 = DIRECTION('',(0.,0.,1.));
#596 = DIRECTION('',(1.,0.,0.));
#597 = ADVANCED_FACE('',(#598),#624,.T.);
#598 = FACE_BOUND('',#599,.T.);
#599 = EDGE_LOOP('',(#600,#601,#608,#623));
#600 = ORIENTED_EDGE('',*,*,#416,.F.);
#601 = ORIENTED_EDGE('',*,*,#602,.T.);
#602 = EDGE_CURVE('',#410,#603,#605,.T.);
#603 = VERTEX_POINT('',#604);
#604 = CARTESIAN_POINT('',(23.900000011496,-7.217712E-09,3.600000000422)
  );
#605 = B_SPLINE_CURVE_WITH_KNOTS('',1,(#606,#607),.UNSPECIFIED.,.F.,.F.,
  (2,2),(-0.894427191,-0.),.PIECEWISE_BEZIER_KNOTS.);
#606 = CARTESIAN_POINT('',(23.100000011661,-8.19771025E-09,
    3.200000000426));
#607 = CARTESIAN_POINT('',(23.900000011662,-8.1949006E-09,3.600000000428
    ));
#608 = ORIENTED_EDGE('',*,*,#609,.T.);
#609 = EDGE_CURVE('',#603,#213,#610,.T.);
#610 = B_SPLINE_CURVE_WITH_KNOTS('',11,(#611,#612,#613,#614,#615,#616,
    #617,#618,#619,#620,#621,#622),.UNSPECIFIED.,.F.,.F.,(12,12),(0.,
    6.285461291037),.PIECEWISE_BEZIER_KNOTS.);
#611 = CARTESIAN_POINT('',(23.900000011448,-6.92897875E-09,
    3.600000000421));
#612 = CARTESIAN_POINT('',(23.900000007764,-13.65164822783,3.5272727277)
  );
#613 = CARTESIAN_POINT('',(15.324261435787,-27.30298603502,
    3.454545454575));
#614 = CARTESIAN_POINT('',(-1.845006697313,-34.96925806882,
    3.381818184413));
#615 = CARTESIAN_POINT('',(-22.81989284953,-30.64154475271,
    3.309090903236));
#616 = CARTESIAN_POINT('',(-38.45934454888,-12.63660699585,
    3.236363648541));
#617 = CARTESIAN_POINT('',(-38.45934542647,12.63660712279,3.163636348942
    ));
#618 = CARTESIAN_POINT('',(-22.81989220054,30.64154453058,3.090909104819
    ));
#619 = CARTESIAN_POINT('',(-1.845006993409,34.969258280321,3.01818181038
    ));
#620 = CARTESIAN_POINT('',(15.324261554618,27.302985918479,
    2.945454549077));
#621 = CARTESIAN_POINT('',(23.899999997568,13.65164824387,2.872727272507
    ));
#622 = CARTESIAN_POINT('',(23.900000011662,-8.19489098E-09,
    2.800000000432));
#623 = ORIENTED_EDGE('',*,*,#373,.F.);
#624 = B_SPLINE_SURFACE_WITH_KNOTS('',1,11,(
    (#625,#626,#627,#628,#629,#630,#631,#632,#633,#634,#635,#636)
    ,(#637,#638,#639,#640,#641,#642,#643,#644,#645,#646,#647,#648
  )),.UNSPECIFIED.,.F.,.F.,.F.,(2,2),(12,12),(-0.894427191,-0.),(0.,
    6.285461291037),.PIECEWISE_BEZIER_KNOTS.);
#625 = CARTESIAN_POINT('',(23.100000011662,-8.19885275E-09,
    3.200000000426));
#626 = CARTESIAN_POINT('',(23.100000030974,-13.19468930182,
    3.127272728572));
#627 = CARTESIAN_POINT('',(14.811315373037,-26.38907852921,
    3.054545452161));
#628 = CARTESIAN_POINT('',(-1.783248946862,-33.79873906064,
    2.981818191512));
#629 = CARTESIAN_POINT('',(-22.05604750273,-29.61588617977,
    2.909090888833));
#630 = CARTESIAN_POINT('',(-37.17200181242,-12.21362460845,
    2.836363671308));
#631 = CARTESIAN_POINT('',(-37.17200407899,12.213624786733,
    2.763636323089));
#632 = CARTESIAN_POINT('',(-22.05604581941,29.615885861388,
    2.690909126631));
#633 = CARTESIAN_POINT('',(-1.783249799049,33.798739352612,
    2.618181797639));
#634 = CARTESIAN_POINT('',(14.811315712336,26.389078374993,
    2.545454554419));
#635 = CARTESIAN_POINT('',(23.099999966652,13.194689323176,
    2.472727271343));
#636 = CARTESIAN_POINT('',(23.100000019105,-1.043472798E-08,
    2.400000000693));
#637 = CARTESIAN_POINT('',(23.900000011662,-8.19603292E-09,
    3.600000000428));
#638 = CARTESIAN_POINT('',(23.900000030976,-13.6516482332,3.527272728573
    ));
#639 = CARTESIAN_POINT('',(15.324261363008,-27.30298603664,
    3.454545452164));
#640 = CARTESIAN_POINT('',(-1.845006495496,-34.96925808214,
    3.381818191507));
#641 = CARTESIAN_POINT('',(-22.81989328036,-30.64154473217,
    3.309090888847));
#642 = CARTESIAN_POINT('',(-38.459343902,-12.63660705859,3.23636367129)
  );
#643 = CARTESIAN_POINT('',(-38.45934616857,12.636607236811,
    3.163636323112));
#644 = CARTESIAN_POINT('',(-22.81989159705,30.641544413888,
    3.090909126615));
#645 = CARTESIAN_POINT('',(-1.845007347695,34.969258374028,3.01818179765
    ));
#646 = CARTESIAN_POINT('',(15.324261702302,27.302985882468,
    2.945454554417));
#647 = CARTESIAN_POINT('',(23.89999996665,13.651648254548,2.872727271345
    ));
#648 = CARTESIAN_POINT('',(23.900000019105,-1.043113965E-08,
    2.800000000694));
#649 = ADVANCED_FACE('',(#650),#676,.T.);
#650 = FACE_BOUND('',#651,.T.);
#651 = EDGE_LOOP('',(#652,#653,#660,#675));
#652 = ORIENTED_EDGE('',*,*,#609,.F.);
#653 = ORIENTED_EDGE('',*,*,#654,.T.);
#654 = EDGE_CURVE('',#603,#655,#657,.T.);
#655 = VERTEX_POINT('',#656);
#656 = CARTESIAN_POINT('',(23.100000011447,-6.931222E-09,4.000000000415)
  );
#657 = B_SPLINE_CURVE_WITH_KNOTS('',1,(#658,#659),.UNSPECIFIED.,.F.,.F.,
  (2,2),(-0.894427191,-0.),.PIECEWISE_BEZIER_KNOTS.);
#658 = CARTESIAN_POINT('',(23.900000011447,-6.9289858E-09,3.600000000421
    ));
#659 = CARTESIAN_POINT('',(23.100000011447,-6.93136076E-09,
    4.000000000415));
#660 = ORIENTED_EDGE('',*,*,#661,.T.);
#661 = EDGE_CURVE('',#655,#410,#662,.T.);
#662 = B_SPLINE_CURVE_WITH_KNOTS('',11,(#663,#664,#665,#666,#667,#668,
    #669,#670,#671,#672,#673,#674),.UNSPECIFIED.,.F.,.F.,(12,12),(0.,
    6.285461291037),.PIECEWISE_BEZIER_KNOTS.);
#663 = CARTESIAN_POINT('',(23.100000011448,-6.93137058E-09,
    4.000000000415));
#664 = CARTESIAN_POINT('',(23.100000007762,-13.19468929645,
    3.927272727695));
#665 = CARTESIAN_POINT('',(14.811315445824,-26.3890785276,3.854545454545
    ));
#666 = CARTESIAN_POINT('',(-1.783249148692,-33.79873904731,
    3.781818184531));
#667 = CARTESIAN_POINT('',(-22.05604707189,-29.6158862003,3.709090902985
    ));
#668 = CARTESIAN_POINT('',(-37.1720024593,-12.21362454574,3.636363648816
    ));
#669 = CARTESIAN_POINT('',(-37.17200333693,12.213624672727,
    3.563636348728));
#670 = CARTESIAN_POINT('',(-22.05604642287,29.615885978091,
    3.490909104915));
#671 = CARTESIAN_POINT('',(-1.783249444783,33.798739258879,
    3.418181810343));
#672 = CARTESIAN_POINT('',(14.811315564656,26.389078411022,
    3.345454549076));
#673 = CARTESIAN_POINT('',(23.09999999757,13.194689312493,3.272727272501
    ));
#674 = CARTESIAN_POINT('',(23.100000011661,-8.19771025E-09,
    3.200000000426));
#675 = ORIENTED_EDGE('',*,*,#409,.F.);
#676 = B_SPLINE_SURFACE_WITH_KNOTS('',1,11,(
    (#677,#678,#679,#680,#681,#682,#683,#684,#685,#686,#687,#688)
    ,(#689,#690,#691,#692,#693,#694,#695,#696,#697,#698,#699,#700
  )),.UNSPECIFIED.,.F.,.F.,.F.,(2,2),(12,12),(-0.894427191,-0.),(0.,
    6.285461291037),.PIECEWISE_BEZIER_KNOTS.);
#677 = CARTESIAN_POINT('',(23.900000011448,-6.92897875E-09,
    3.600000000421));
#678 = CARTESIAN_POINT('',(23.900000007764,-13.65164822783,3.5272727277)
  );
#679 = CARTESIAN_POINT('',(15.324261435789,-27.30298603502,
    3.454545454575));
#680 = CARTESIAN_POINT('',(-1.845006697317,-34.96925806882,
    3.381818184413));
#681 = CARTESIAN_POINT('',(-22.81989284953,-30.64154475271,
    3.309090903236));
#682 = CARTESIAN_POINT('',(-38.45934454889,-12.63660699585,
    3.236363648541));
#683 = CARTESIAN_POINT('',(-38.45934542647,12.63660712279,3.163636348942
    ));
#684 = CARTESIAN_POINT('',(-22.81989220054,30.64154453058,3.090909104819
    ));
#685 = CARTESIAN_POINT('',(-1.845006993406,34.969258280321,3.01818181038
    ));
#686 = CARTESIAN_POINT('',(15.324261554616,27.302985918479,
    2.945454549077));
#687 = CARTESIAN_POINT('',(23.899999997568,13.65164824387,2.872727272507
    ));
#688 = CARTESIAN_POINT('',(23.900000011662,-8.19489098E-09,
    2.800000000432));
#689 = CARTESIAN_POINT('',(23.100000011448,-6.93137058E-09,
    4.000000000415));
#690 = CARTESIAN_POINT('',(23.100000007762,-13.19468929645,
    3.927272727695));
#691 = CARTESIAN_POINT('',(14.811315445824,-26.3890785276,3.854545454545
    ));
#692 = CARTESIAN_POINT('',(-1.783249148692,-33.79873904731,
    3.781818184531));
#693 = CARTESIAN_POINT('',(-22.05604707189,-29.6158862003,3.709090902985
    ));
#694 = CARTESIAN_POINT('',(-37.1720024593,-12.21362454574,3.636363648816
    ));
#695 = CARTESIAN_POINT('',(-37.17200333693,12.213624672727,
    3.563636348728));
#696 = CARTESIAN_POINT('',(-22.05604642287,29.615885978091,
    3.490909104915));
#697 = CARTESIAN_POINT('',(-1.783249444783,33.798739258879,
    3.418181810343));
#698 = CARTESIAN_POINT('',(14.811315564656,26.389078411022,
    3.345454549076));
#699 = CARTESIAN_POINT('',(23.09999999757,13.194689312493,3.272727272501
    ));
#700 = CARTESIAN_POINT('',(23.100000011661,-8.19771025E-09,
    3.200000000426));
#701 = ADVANCED_FACE('',(#702),#744,.T.);
#702 = FACE_BOUND('',#703,.T.);
#703 = EDGE_LOOP('',(#704,#721,#722,#739));
#704 = ORIENTED_EDGE('',*,*,#705,.F.);
#705 = EDGE_CURVE('',#497,#706,#708,.T.);
#706 = VERTEX_POINT('',#707);
#707 = CARTESIAN_POINT('',(23.90000000391,-3.416494E-09,5.200000000147)
  );
#708 = B_SPLINE_CURVE_WITH_KNOTS('',11,(#709,#710,#711,#712,#713,#714,
    #715,#716,#717,#718,#719,#720),.UNSPECIFIED.,.F.,.F.,(12,12),(0.,
    6.285461291037),.PIECEWISE_BEZIER_KNOTS.);
#709 = CARTESIAN_POINT('',(23.9,-2.287E-14,6.000000000007));
#710 = CARTESIAN_POINT('',(23.900000000071,-13.65164821644,
    5.927272727283));
#711 = CARTESIAN_POINT('',(15.32426144637,-27.30298600273,5.854545454242
    ));
#712 = CARTESIAN_POINT('',(-1.845006744083,-34.9692581027,5.781818183327
    ));
#713 = CARTESIAN_POINT('',(-22.81989267877,-30.64154463612,
    5.709090905223));
#714 = CARTESIAN_POINT('',(-38.45934476601,-12.63660717515,
    5.636363643162));
#715 = CARTESIAN_POINT('',(-38.4593451623,12.636607323624,5.563636355081
    ));
#716 = CARTESIAN_POINT('',(-22.81989237583,30.64154430442,5.49090909874)
  );
#717 = CARTESIAN_POINT('',(-1.845006919086,34.969258399011,
    5.418181813056));
#718 = CARTESIAN_POINT('',(15.324261519918,27.302985852813,
    5.345454547868));
#719 = CARTESIAN_POINT('',(23.899999978379,13.651648256186,
    5.272727271947));
#720 = CARTESIAN_POINT('',(23.900000003805,-2.31039028E-09,
    5.200000000143));
#721 = ORIENTED_EDGE('',*,*,#496,.T.);
#722 = ORIENTED_EDGE('',*,*,#723,.T.);
#723 = EDGE_CURVE('',#499,#724,#726,.T.);
#724 = VERTEX_POINT('',#725);
#725 = CARTESIAN_POINT('',(23.100000003805,-2.310845E-09,5.600000000137)
  );
#726 = B_SPLINE_CURVE_WITH_KNOTS('',11,(#727,#728,#729,#730,#731,#732,
    #733,#734,#735,#736,#737,#738),.UNSPECIFIED.,.F.,.F.,(12,12),(0.,
    6.285461291037),.PIECEWISE_BEZIER_KNOTS.);
#727 = CARTESIAN_POINT('',(23.1,-5.97E-15,6.400000000001));
#728 = CARTESIAN_POINT('',(23.10000000007,-13.19468928506,6.327272727277
    ));
#729 = CARTESIAN_POINT('',(14.811315456408,-26.3890784953,6.254545454235
    ));
#730 = CARTESIAN_POINT('',(-1.783249195454,-33.79873908119,
    6.181818183323));
#731 = CARTESIAN_POINT('',(-22.05604690113,-29.61588608372,
    6.109090905212));
#732 = CARTESIAN_POINT('',(-37.17200267643,-12.21362472504,
    6.036363643164));
#733 = CARTESIAN_POINT('',(-37.17200307274,12.213624873563,
    5.963636355066));
#734 = CARTESIAN_POINT('',(-22.05604659819,29.615885751896,
    5.890909098743));
#735 = CARTESIAN_POINT('',(-1.783249370453,33.798739377605,
    5.818181813045));
#736 = CARTESIAN_POINT('',(14.811315529951,26.389078345339,
    5.745454547864));
#737 = CARTESIAN_POINT('',(23.09999997838,13.194689324816,5.67272727194)
  );
#738 = CARTESIAN_POINT('',(23.100000003805,-2.31117031E-09,
    5.600000000137));
#739 = ORIENTED_EDGE('',*,*,#740,.F.);
#740 = EDGE_CURVE('',#706,#724,#741,.T.);
#741 = B_SPLINE_CURVE_WITH_KNOTS('',1,(#742,#743),.UNSPECIFIED.,.F.,.F.,
  (2,2),(-0.894427191,-0.),.PIECEWISE_BEZIER_KNOTS.);
#742 = CARTESIAN_POINT('',(23.900000003805,-2.31039028E-09,
    5.200000000143));
#743 = CARTESIAN_POINT('',(23.100000003805,-2.31117031E-09,
    5.600000000137));
#744 = B_SPLINE_SURFACE_WITH_KNOTS('',1,11,(
    (#745,#746,#747,#748,#749,#750,#751,#752,#753,#754,#755,#756)
    ,(#757,#758,#759,#760,#761,#762,#763,#764,#765,#766,#767,#768
  )),.UNSPECIFIED.,.F.,.F.,.F.,(2,2),(12,12),(-0.894427191,-0.),(0.,
    6.285461291037),.PIECEWISE_BEZIER_KNOTS.);
#745 = CARTESIAN_POINT('',(23.9,-2.287E-14,6.000000000007));
#746 = CARTESIAN_POINT('',(23.900000000071,-13.65164821644,
    5.927272727283));
#747 = CARTESIAN_POINT('',(15.32426144637,-27.30298600273,5.854545454242
    ));
#748 = CARTESIAN_POINT('',(-1.845006744083,-34.9692581027,5.781818183327
    ));
#749 = CARTESIAN_POINT('',(-22.81989267877,-30.64154463612,
    5.709090905223));
#750 = CARTESIAN_POINT('',(-38.45934476601,-12.63660717515,
    5.636363643162));
#751 = CARTESIAN_POINT('',(-38.4593451623,12.636607323624,5.563636355081
    ));
#752 = CARTESIAN_POINT('',(-22.81989237583,30.64154430442,5.49090909874)
  );
#753 = CARTESIAN_POINT('',(-1.845006919086,34.969258399011,
    5.418181813056));
#754 = CARTESIAN_POINT('',(15.324261519918,27.302985852813,
    5.345454547868));
#755 = CARTESIAN_POINT('',(23.899999978379,13.651648256186,
    5.272727271947));
#756 = CARTESIAN_POINT('',(23.900000003805,-2.31039028E-09,
    5.200000000143));
#757 = CARTESIAN_POINT('',(23.1,-5.97E-15,6.400000000001));
#758 = CARTESIAN_POINT('',(23.10000000007,-13.19468928506,6.327272727277
    ));
#759 = CARTESIAN_POINT('',(14.811315456408,-26.3890784953,6.254545454235
    ));
#760 = CARTESIAN_POINT('',(-1.783249195454,-33.79873908119,
    6.181818183323));
#761 = CARTESIAN_POINT('',(-22.05604690113,-29.61588608372,
    6.109090905212));
#762 = CARTESIAN_POINT('',(-37.17200267643,-12.21362472504,
    6.036363643164));
#763 = CARTESIAN_POINT('',(-37.17200307274,12.213624873563,
    5.963636355066));
#764 = CARTESIAN_POINT('',(-22.05604659819,29.615885751896,
    5.890909098743));
#765 = CARTESIAN_POINT('',(-1.783249370453,33.798739377605,
    5.818181813045));
#766 = CARTESIAN_POINT('',(14.811315529951,26.389078345339,
    5.745454547864));
#767 = CARTESIAN_POINT('',(23.09999997838,13.194689324816,5.67272727194)
  );
#768 = CARTESIAN_POINT('',(23.100000003805,-2.31117031E-09,
    5.600000000137));
#769 = ADVANCED_FACE('',(#770),#779,.T.);
#770 = FACE_BOUND('',#771,.T.);
#771 = EDGE_LOOP('',(#772,#773,#774));
#772 = ORIENTED_EDGE('',*,*,#723,.F.);
#773 = ORIENTED_EDGE('',*,*,#545,.F.);
#774 = ORIENTED_EDGE('',*,*,#775,.F.);
#775 = EDGE_CURVE('',#724,#497,#776,.T.);
#776 = B_SPLINE_CURVE_WITH_KNOTS('',1,(#777,#778),.UNSPECIFIED.,.F.,.F.,
  (2,2),(-0.894427191,-0.),.PIECEWISE_BEZIER_KNOTS.);
#777 = CARTESIAN_POINT('',(23.100000003805,-2.31117031E-09,
    5.600000000137));
#778 = CARTESIAN_POINT('',(23.900000003805,-2.3103984E-09,6.000000000138
    ));
#779 = B_SPLINE_SURFACE_WITH_KNOTS('',1,11,(
    (#780,#781,#782,#783,#784,#785,#786,#787,#788,#789,#790,#791)
    ,(#792,#793,#794,#795,#796,#797,#798,#799,#800,#801,#802,#803
  )),.UNSPECIFIED.,.F.,.F.,.F.,(2,2),(12,12),(-0.894427191,-0.),(0.,
    6.285461291037),.PIECEWISE_BEZIER_KNOTS.);
#780 = CARTESIAN_POINT('',(23.1,-5.97E-15,6.400000000001));
#781 = CARTESIAN_POINT('',(23.100000000071,-13.19468928506,
    6.327272727277));
#782 = CARTESIAN_POINT('',(14.811315456404,-26.3890784953,6.254545454235
    ));
#783 = CARTESIAN_POINT('',(-1.783249195446,-33.79873908119,
    6.181818183323));
#784 = CARTESIAN_POINT('',(-22.05604690115,-29.61588608372,
    6.109090905212));
#785 = CARTESIAN_POINT('',(-37.17200267641,-12.21362472504,
    6.036363643164));
#786 = CARTESIAN_POINT('',(-37.17200307275,12.213624873563,
    5.963636355066));
#787 = CARTESIAN_POINT('',(-22.05604659817,29.615885751896,
    5.890909098743));
#788 = CARTESIAN_POINT('',(-1.783249370459,33.798739377605,
    5.818181813045));
#789 = CARTESIAN_POINT('',(14.811315529953,26.389078345339,
    5.745454547864));
#790 = CARTESIAN_POINT('',(23.099999978379,13.194689324816,5.67272727194
    ));
#791 = CARTESIAN_POINT('',(23.100000003805,-2.31117031E-09,
    5.600000000137));
#792 = CARTESIAN_POINT('',(23.9,-1.677E-14,6.800000000003));
#793 = CARTESIAN_POINT('',(23.900000000071,-13.65164821644,
    6.727272727279));
#794 = CARTESIAN_POINT('',(15.324261446369,-27.30298600273,
    6.654545454237));
#795 = CARTESIAN_POINT('',(-1.84500674408,-34.9692581027,6.581818183324)
  );
#796 = CARTESIAN_POINT('',(-22.81989267878,-30.64154463613,
    6.509090905217));
#797 = CARTESIAN_POINT('',(-38.45934476602,-12.63660717513,
    6.436363643159));
#798 = CARTESIAN_POINT('',(-38.45934516229,12.636607323606,
    6.363636355075));
#799 = CARTESIAN_POINT('',(-22.81989237584,30.641544304425,
    6.290909098737));
#800 = CARTESIAN_POINT('',(-1.845006919085,34.969258399013,
    6.218181813051));
#801 = CARTESIAN_POINT('',(15.324261519919,27.302985852811,
    6.145454547864));
#802 = CARTESIAN_POINT('',(23.899999978379,13.651648256187,
    6.072727271942));
#803 = CARTESIAN_POINT('',(23.900000003805,-2.3103984E-09,6.000000000138
    ));
#804 = ADVANCED_FACE('',(#805),#831,.T.);
#805 = FACE_BOUND('',#806,.T.);
#806 = EDGE_LOOP('',(#807,#808,#815,#830));
#807 = ORIENTED_EDGE('',*,*,#661,.F.);
#808 = ORIENTED_EDGE('',*,*,#809,.T.);
#809 = EDGE_CURVE('',#655,#810,#812,.T.);
#810 = VERTEX_POINT('',#811);
#811 = CARTESIAN_POINT('',(23.900000007743,-5.607017E-09,4.400000000286)
  );
#812 = B_SPLINE_CURVE_WITH_KNOTS('',1,(#813,#814),.UNSPECIFIED.,.F.,.F.,
  (2,2),(-0.894427191,-0.),.PIECEWISE_BEZIER_KNOTS.);
#813 = CARTESIAN_POINT('',(23.100000011447,-6.93136076E-09,
    4.000000000415));
#814 = CARTESIAN_POINT('',(23.900000011447,-6.92897732E-09,
    4.400000000416));
#815 = ORIENTED_EDGE('',*,*,#816,.T.);
#816 = EDGE_CURVE('',#810,#603,#817,.T.);
#817 = B_SPLINE_CURVE_WITH_KNOTS('',11,(#818,#819,#820,#821,#822,#823,
    #824,#825,#826,#827,#828,#829),.UNSPECIFIED.,.F.,.F.,(12,12),(0.,
    6.285461291037),.PIECEWISE_BEZIER_KNOTS.);
#818 = CARTESIAN_POINT('',(23.900000003991,-4.26752501E-09,
    4.400000000154));
#819 = CARTESIAN_POINT('',(23.900000025067,-13.65164823391,
    4.327272728294));
#820 = CARTESIAN_POINT('',(15.324261381675,-27.30298599033,
    4.254545452094));
#821 = CARTESIAN_POINT('',(-1.845006603633,-34.96925815536,
    4.181818189698));
#822 = CARTESIAN_POINT('',(-22.8198929451,-30.64154459925,4.109090893885
    ));
#823 = CARTESIAN_POINT('',(-38.45934445829,-12.63660718297,
    4.036363659636));
#824 = CARTESIAN_POINT('',(-38.45934548388,12.636607306727,3.9636363392)
  );
#825 = CARTESIAN_POINT('',(-22.81989214862,30.64154436339,3.890909110303
    ));
#826 = CARTESIAN_POINT('',(-1.845007033053,34.969258377168,
    3.818181807912));
#827 = CARTESIAN_POINT('',(15.324261572799,27.302985874006,
    3.745454549855));
#828 = CARTESIAN_POINT('',(23.899999980776,13.651648251713,
    3.672727271933));
#829 = CARTESIAN_POINT('',(23.900000011447,-6.9289858E-09,3.600000000421
    ));
#830 = ORIENTED_EDGE('',*,*,#602,.F.);
#831 = B_SPLINE_SURFACE_WITH_KNOTS('',1,11,(
    (#832,#833,#834,#835,#836,#837,#838,#839,#840,#841,#842,#843)
    ,(#844,#845,#846,#847,#848,#849,#850,#851,#852,#853,#854,#855
  )),.UNSPECIFIED.,.F.,.F.,.F.,(2,2),(12,12),(-0.894427191,-0.),(0.,
    6.285461291037),.PIECEWISE_BEZIER_KNOTS.);
#832 = CARTESIAN_POINT('',(23.100000011448,-6.93137058E-09,
    4.000000000415));
#833 = CARTESIAN_POINT('',(23.100000007763,-13.19468929645,
    3.927272727695));
#834 = CARTESIAN_POINT('',(14.811315445818,-26.3890785276,3.854545454545
    ));
#835 = CARTESIAN_POINT('',(-1.783249148679,-33.79873904731,
    3.781818184531));
#836 = CARTESIAN_POINT('',(-22.05604707191,-29.6158862003,3.709090902985
    ));
#837 = CARTESIAN_POINT('',(-37.17200245927,-12.21362454574,
    3.636363648816));
#838 = CARTESIAN_POINT('',(-37.17200333695,12.213624672727,
    3.563636348728));
#839 = CARTESIAN_POINT('',(-22.05604642285,29.615885978091,
    3.490909104915));
#840 = CARTESIAN_POINT('',(-1.783249444792,33.798739258879,
    3.418181810343));
#841 = CARTESIAN_POINT('',(14.81131556466,26.389078411022,3.345454549076
    ));
#842 = CARTESIAN_POINT('',(23.099999997569,13.194689312493,
    3.272727272501));
#843 = CARTESIAN_POINT('',(23.100000011661,-8.19771025E-09,
    3.200000000426));
#844 = CARTESIAN_POINT('',(23.900000011448,-6.92895995E-09,
    4.400000000416));
#845 = CARTESIAN_POINT('',(23.900000007764,-13.65164822783,
    4.327272727696));
#846 = CARTESIAN_POINT('',(15.324261435791,-27.30298603502,4.25454545457
    ));
#847 = CARTESIAN_POINT('',(-1.845006697322,-34.96925806883,
    4.181818184409));
#848 = CARTESIAN_POINT('',(-22.81989284952,-30.64154475267,
    4.109090903231));
#849 = CARTESIAN_POINT('',(-38.45934454888,-12.63660699591,
    4.036363648538));
#850 = CARTESIAN_POINT('',(-38.4593454265,12.636607122845,3.963636348937
    ));
#851 = CARTESIAN_POINT('',(-22.8198922005,30.641544530554,3.890909104815
    ));
#852 = CARTESIAN_POINT('',(-1.845006993428,34.969258280325,
    3.818181810375));
#853 = CARTESIAN_POINT('',(15.324261554624,27.302985918481,
    3.745454549073));
#854 = CARTESIAN_POINT('',(23.899999997567,13.651648243869,
    3.672727272502));
#855 = CARTESIAN_POINT('',(23.900000011662,-8.1949006E-09,3.600000000428
    ));
#856 = ADVANCED_FACE('',(#857),#883,.T.);
#857 = FACE_BOUND('',#858,.T.);
#858 = EDGE_LOOP('',(#859,#860,#867,#882));
#859 = ORIENTED_EDGE('',*,*,#816,.F.);
#860 = ORIENTED_EDGE('',*,*,#861,.T.);
#861 = EDGE_CURVE('',#810,#862,#864,.T.);
#862 = VERTEX_POINT('',#863);
#863 = CARTESIAN_POINT('',(23.100000003991,-4.269544E-09,4.800000000148)
  );
#864 = B_SPLINE_CURVE_WITH_KNOTS('',1,(#865,#866),.UNSPECIFIED.,.F.,.F.,
  (2,2),(-0.894427191,-0.),.PIECEWISE_BEZIER_KNOTS.);
#865 = CARTESIAN_POINT('',(23.90000000399,-4.26865206E-09,4.400000000154
    ));
#866 = CARTESIAN_POINT('',(23.10000000399,-4.27011641E-09,4.800000000148
    ));
#867 = ORIENTED_EDGE('',*,*,#868,.T.);
#868 = EDGE_CURVE('',#862,#655,#869,.T.);
#869 = B_SPLINE_CURVE_WITH_KNOTS('',11,(#870,#871,#872,#873,#874,#875,
    #876,#877,#878,#879,#880,#881),.UNSPECIFIED.,.F.,.F.,(12,12),(0.,
    6.285461291037),.PIECEWISE_BEZIER_KNOTS.);
#870 = CARTESIAN_POINT('',(23.100000003991,-4.26898935E-09,
    4.800000000148));
#871 = CARTESIAN_POINT('',(23.100000025067,-13.19468930253,
    4.727272728289));
#872 = CARTESIAN_POINT('',(14.8113153917,-26.38907848289,4.654545452065)
  );
#873 = CARTESIAN_POINT('',(-1.783249054985,-33.79873913387,
    4.581818189804));
#874 = CARTESIAN_POINT('',(-22.05604716748,-29.6158860468,4.509090893615
    ));
#875 = CARTESIAN_POINT('',(-37.17200236871,-12.2136247329,4.436363659973
    ));
#876 = CARTESIAN_POINT('',(-37.1720033943,12.213624856701,4.363636338952
    ));
#877 = CARTESIAN_POINT('',(-22.05604637098,29.615885810862,
    4.290909110393));
#878 = CARTESIAN_POINT('',(-1.783249484414,33.798739355754,
    4.218181807886));
#879 = CARTESIAN_POINT('',(14.811315582837,26.389078366537,
    4.145454549852));
#880 = CARTESIAN_POINT('',(23.099999980776,13.19468932034,4.072727271926
    ));
#881 = CARTESIAN_POINT('',(23.100000011447,-6.93136076E-09,
    4.000000000415));
#882 = ORIENTED_EDGE('',*,*,#654,.F.);
#883 = B_SPLINE_SURFACE_WITH_KNOTS('',1,11,(
    (#884,#885,#886,#887,#888,#889,#890,#891,#892,#893,#894,#895)
    ,(#896,#897,#898,#899,#900,#901,#902,#903,#904,#905,#906,#907
  )),.UNSPECIFIED.,.F.,.F.,.F.,(2,2),(12,12),(-0.894427191,-0.),(0.,
    6.285461291037),.PIECEWISE_BEZIER_KNOTS.);
#884 = CARTESIAN_POINT('',(23.900000003991,-4.26752501E-09,
    4.400000000154));
#885 = CARTESIAN_POINT('',(23.900000025067,-13.65164823391,
    4.327272728294));
#886 = CARTESIAN_POINT('',(15.324261381674,-27.30298599033,
    4.254545452094));
#887 = CARTESIAN_POINT('',(-1.84500660363,-34.96925815536,4.181818189698
    ));
#888 = CARTESIAN_POINT('',(-22.8198929451,-30.64154459925,4.109090893885
    ));
#889 = CARTESIAN_POINT('',(-38.45934445829,-12.63660718297,
    4.036363659636));
#890 = CARTESIAN_POINT('',(-38.45934548389,12.636607306727,3.9636363392)
  );
#891 = CARTESIAN_POINT('',(-22.81989214861,30.64154436339,3.890909110303
    ));
#892 = CARTESIAN_POINT('',(-1.845007033054,34.969258377168,
    3.818181807912));
#893 = CARTESIAN_POINT('',(15.3242615728,27.302985874006,3.745454549855)
  );
#894 = CARTESIAN_POINT('',(23.899999980776,13.651648251713,
    3.672727271933));
#895 = CARTESIAN_POINT('',(23.900000011447,-6.9289858E-09,3.600000000421
    ));
#896 = CARTESIAN_POINT('',(23.100000003991,-4.26898935E-09,
    4.800000000148));
#897 = CARTESIAN_POINT('',(23.100000025067,-13.19468930253,
    4.727272728289));
#898 = CARTESIAN_POINT('',(14.8113153917,-26.38907848289,4.654545452065)
  );
#899 = CARTESIAN_POINT('',(-1.783249054985,-33.79873913387,
    4.581818189804));
#900 = CARTESIAN_POINT('',(-22.05604716748,-29.6158860468,4.509090893615
    ));
#901 = CARTESIAN_POINT('',(-37.17200236871,-12.2136247329,4.436363659973
    ));
#902 = CARTESIAN_POINT('',(-37.1720033943,12.213624856701,4.363636338952
    ));
#903 = CARTESIAN_POINT('',(-22.05604637098,29.615885810862,
    4.290909110393));
#904 = CARTESIAN_POINT('',(-1.783249484414,33.798739355754,
    4.218181807886));
#905 = CARTESIAN_POINT('',(14.811315582837,26.389078366537,
    4.145454549852));
#906 = CARTESIAN_POINT('',(23.099999980776,13.19468932034,4.072727271926
    ));
#907 = CARTESIAN_POINT('',(23.100000011447,-6.93136076E-09,
    4.000000000415));
#908 = ADVANCED_FACE('',(#909),#933,.T.);
#909 = FACE_BOUND('',#910,.T.);
#910 = EDGE_LOOP('',(#911,#926,#927,#928));
#911 = ORIENTED_EDGE('',*,*,#912,.F.);
#912 = EDGE_CURVE('',#724,#862,#913,.T.);
#913 = B_SPLINE_CURVE_WITH_KNOTS('',11,(#914,#915,#916,#917,#918,#919,
    #920,#921,#922,#923,#924,#925),.UNSPECIFIED.,.F.,.F.,(12,12),(0.,
    6.285461291037),.PIECEWISE_BEZIER_KNOTS.);
#914 = CARTESIAN_POINT('',(23.100000003806,-2.31098336E-09,
    5.600000000137));
#915 = CARTESIAN_POINT('',(23.100000002599,-13.19468929442,5.52727272742
    ));
#916 = CARTESIAN_POINT('',(14.811315454124,-26.38907849109,
    5.454545454692));
#917 = CARTESIAN_POINT('',(-1.783249184016,-33.79873908645,
    5.381818182044));
#918 = CARTESIAN_POINT('',(-22.05604695634,-29.61588612749,
    5.309090908418));
#919 = CARTESIAN_POINT('',(-37.17200260803,-12.21362462313,
    5.236363639035));
#920 = CARTESIAN_POINT('',(-37.17200314082,12.213624741291,5.16363635935
    ));
#921 = CARTESIAN_POINT('',(-22.05604657841,29.615885892056,
    5.090909095854));
#922 = CARTESIAN_POINT('',(-1.783249353312,33.798739293169,
    5.018181814946));
#923 = CARTESIAN_POINT('',(14.811315515495,26.389078387694,
    4.945454547072));
#924 = CARTESIAN_POINT('',(23.099999995887,13.194689315583,
    4.872727272528));
#925 = CARTESIAN_POINT('',(23.10000000399,-4.27011641E-09,4.800000000148
    ));
#926 = ORIENTED_EDGE('',*,*,#775,.T.);
#927 = ORIENTED_EDGE('',*,*,#705,.T.);
#928 = ORIENTED_EDGE('',*,*,#929,.F.);
#929 = EDGE_CURVE('',#862,#706,#930,.T.);
#930 = B_SPLINE_CURVE_WITH_KNOTS('',1,(#931,#932),.UNSPECIFIED.,.F.,.F.,
  (2,2),(-0.894427191,-0.),.PIECEWISE_BEZIER_KNOTS.);
#931 = CARTESIAN_POINT('',(23.10000000399,-4.27011641E-09,4.800000000148
    ));
#932 = CARTESIAN_POINT('',(23.900000003991,-4.26863448E-09,5.20000000015
    ));
#933 = B_SPLINE_SURFACE_WITH_KNOTS('',1,11,(
    (#934,#935,#936,#937,#938,#939,#940,#941,#942,#943,#944,#945)
    ,(#946,#947,#948,#949,#950,#951,#952,#953,#954,#955,#956,#957
  )),.UNSPECIFIED.,.F.,.F.,.F.,(2,2),(12,12),(-0.894427191,-0.),(0.,
    6.285461291037),.PIECEWISE_BEZIER_KNOTS.);
#934 = CARTESIAN_POINT('',(23.100000003806,-2.31098336E-09,
    5.600000000137));
#935 = CARTESIAN_POINT('',(23.1000000026,-13.19468929442,5.52727272742)
  );
#936 = CARTESIAN_POINT('',(14.811315454122,-26.38907849109,
    5.454545454692));
#937 = CARTESIAN_POINT('',(-1.783249184013,-33.79873908645,
    5.381818182044));
#938 = CARTESIAN_POINT('',(-22.05604695635,-29.61588612749,
    5.309090908418));
#939 = CARTESIAN_POINT('',(-37.17200260803,-12.21362462313,
    5.236363639035));
#940 = CARTESIAN_POINT('',(-37.17200314082,12.213624741291,5.16363635935
    ));
#941 = CARTESIAN_POINT('',(-22.05604657841,29.615885892056,
    5.090909095854));
#942 = CARTESIAN_POINT('',(-1.783249353314,33.798739293169,
    5.018181814946));
#943 = CARTESIAN_POINT('',(14.811315515496,26.389078387694,
    4.945454547072));
#944 = CARTESIAN_POINT('',(23.099999995886,13.194689315583,
    4.872727272528));
#945 = CARTESIAN_POINT('',(23.10000000399,-4.27011641E-09,4.800000000148
    ));
#946 = CARTESIAN_POINT('',(23.900000003806,-2.31019888E-09,
    6.000000000138));
#947 = CARTESIAN_POINT('',(23.9000000026,-13.6516482258,5.927272727422)
  );
#948 = CARTESIAN_POINT('',(15.324261444088,-27.30298599852,
    5.854545454693));
#949 = CARTESIAN_POINT('',(-1.845006732631,-34.96925810793,
    5.781818182047));
#950 = CARTESIAN_POINT('',(-22.81989273403,-30.64154467995,
    5.709090908418));
#951 = CARTESIAN_POINT('',(-38.45934469754,-12.6366070732,5.636363639038
    ));
#952 = CARTESIAN_POINT('',(-38.45934523046,12.636607191341,
    5.563636359351));
#953 = CARTESIAN_POINT('',(-22.81989235602,30.641544444552,
    5.490909095855));
#954 = CARTESIAN_POINT('',(-1.845006901964,34.969258314607,
    5.418181814947));
#955 = CARTESIAN_POINT('',(15.324261505463,27.302985895153,
    5.345454547073));
#956 = CARTESIAN_POINT('',(23.899999995886,13.651648246958,
    5.272727272529));
#957 = CARTESIAN_POINT('',(23.900000003991,-4.26863448E-09,5.20000000015
    ));
#958 = ADVANCED_FACE('',(#959),#979,.T.);
#959 = FACE_BOUND('',#960,.T.);
#960 = EDGE_LOOP('',(#961,#976,#977,#978));
#961 = ORIENTED_EDGE('',*,*,#962,.F.);
#962 = EDGE_CURVE('',#706,#810,#963,.T.);
#963 = B_SPLINE_CURVE_WITH_KNOTS('',11,(#964,#965,#966,#967,#968,#969,
    #970,#971,#972,#973,#974,#975),.UNSPECIFIED.,.F.,.F.,(12,12),(0.,
    6.285461291037),.PIECEWISE_BEZIER_KNOTS.);
#964 = CARTESIAN_POINT('',(23.900000003806,-2.31018804E-09,
    5.200000000143));
#965 = CARTESIAN_POINT('',(23.900000002599,-13.6516482258,5.127272727426
    ));
#966 = CARTESIAN_POINT('',(15.324261444091,-27.30298599853,
    5.054545454698));
#967 = CARTESIAN_POINT('',(-1.845006732641,-34.96925810793,
    4.981818182049));
#968 = CARTESIAN_POINT('',(-22.819892734,-30.64154467995,4.909090908426)
  );
#969 = CARTESIAN_POINT('',(-38.45934469759,-12.6366070732,4.836363639038
    ));
#970 = CARTESIAN_POINT('',(-38.45934523039,12.636607191344,4.76363635936
    ));
#971 = CARTESIAN_POINT('',(-22.81989235607,30.641544444551,
    4.690909095857));
#972 = CARTESIAN_POINT('',(-1.845006901938,34.969258314603,
    4.618181814953));
#973 = CARTESIAN_POINT('',(15.324261505456,27.302985895156,
    4.545454547077));
#974 = CARTESIAN_POINT('',(23.899999995887,13.651648246957,
    4.472727272534));
#975 = CARTESIAN_POINT('',(23.90000000399,-4.26865206E-09,4.400000000154
    ));
#976 = ORIENTED_EDGE('',*,*,#740,.T.);
#977 = ORIENTED_EDGE('',*,*,#912,.T.);
#978 = ORIENTED_EDGE('',*,*,#861,.F.);
#979 = B_SPLINE_SURFACE_WITH_KNOTS('',1,11,(
    (#980,#981,#982,#983,#984,#985,#986,#987,#988,#989,#990,#991)
    ,(#992,#993,#994,#995,#996,#997,#998,#999,#1000,#1001,#1002,#1003
  )),.UNSPECIFIED.,.F.,.F.,.F.,(2,2),(12,12),(-0.894427191,-0.),(0.,
    6.285461291037),.PIECEWISE_BEZIER_KNOTS.);
#980 = CARTESIAN_POINT('',(23.900000003806,-2.31018804E-09,
    5.200000000143));
#981 = CARTESIAN_POINT('',(23.900000002599,-13.6516482258,5.127272727426
    ));
#982 = CARTESIAN_POINT('',(15.324261444091,-27.30298599853,
    5.054545454698));
#983 = CARTESIAN_POINT('',(-1.845006732643,-34.96925810793,
    4.981818182049));
#984 = CARTESIAN_POINT('',(-22.819892734,-30.64154467995,4.909090908426)
  );
#985 = CARTESIAN_POINT('',(-38.45934469759,-12.6366070732,4.836363639038
    ));
#986 = CARTESIAN_POINT('',(-38.45934523039,12.636607191344,4.76363635936
    ));
#987 = CARTESIAN_POINT('',(-22.81989235607,30.641544444551,
    4.690909095857));
#988 = CARTESIAN_POINT('',(-1.845006901936,34.969258314603,
    4.618181814953));
#989 = CARTESIAN_POINT('',(15.324261505456,27.302985895156,
    4.545454547077));
#990 = CARTESIAN_POINT('',(23.899999995887,13.651648246957,
    4.472727272534));
#991 = CARTESIAN_POINT('',(23.90000000399,-4.26865206E-09,4.400000000154
    ));
#992 = CARTESIAN_POINT('',(23.100000003806,-2.31098336E-09,
    5.600000000137));
#993 = CARTESIAN_POINT('',(23.100000002599,-13.19468929442,5.52727272742
    ));
#994 = CARTESIAN_POINT('',(14.811315454124,-26.38907849109,
    5.454545454692));
#995 = CARTESIAN_POINT('',(-1.783249184016,-33.79873908645,
    5.381818182044));
#996 = CARTESIAN_POINT('',(-22.05604695634,-29.61588612749,
    5.309090908418));
#997 = CARTESIAN_POINT('',(-37.17200260803,-12.21362462313,
    5.236363639035));
#998 = CARTESIAN_POINT('',(-37.17200314082,12.213624741291,5.16363635935
    ));
#999 = CARTESIAN_POINT('',(-22.05604657841,29.615885892056,
    5.090909095854));
#1000 = CARTESIAN_POINT('',(-1.783249353312,33.798739293169,
    5.018181814946));
#1001 = CARTESIAN_POINT('',(14.811315515495,26.389078387694,
    4.945454547072));
#1002 = CARTESIAN_POINT('',(23.099999995887,13.194689315583,
    4.872727272528));
#1003 = CARTESIAN_POINT('',(23.10000000399,-4.27011641E-09,
    4.800000000148));
#1004 = ADVANCED_FACE('',(#1005),#1011,.T.);
#1005 = FACE_BOUND('',#1006,.T.);
#1006 = EDGE_LOOP('',(#1007,#1008,#1009,#1010));
#1007 = ORIENTED_EDGE('',*,*,#868,.F.);
#1008 = ORIENTED_EDGE('',*,*,#929,.T.);
#1009 = ORIENTED_EDGE('',*,*,#962,.T.);
#1010 = ORIENTED_EDGE('',*,*,#809,.F.);
#1011 = B_SPLINE_SURFACE_WITH_KNOTS('',1,11,(
    (#1012,#1013,#1014,#1015,#1016,#1017,#1018,#1019,#1020,#1021,#1022
      ,#1023)
    ,(#1024,#1025,#1026,#1027,#1028,#1029,#1030,#1031,#1032,#1033,#1034
      ,#1035
    )),.UNSPECIFIED.,.F.,.F.,.F.,(2,2),(12,12),(-0.894427191,-0.),(0.,
    6.285461291037),.PIECEWISE_BEZIER_KNOTS.);
#1012 = CARTESIAN_POINT('',(23.100000003991,-4.26898935E-09,
    4.800000000148));
#1013 = CARTESIAN_POINT('',(23.100000025067,-13.19468930253,
    4.727272728289));
#1014 = CARTESIAN_POINT('',(14.8113153917,-26.38907848289,4.654545452065
    ));
#1015 = CARTESIAN_POINT('',(-1.783249054985,-33.79873913387,
    4.581818189804));
#1016 = CARTESIAN_POINT('',(-22.05604716748,-29.6158860468,
    4.509090893615));
#1017 = CARTESIAN_POINT('',(-37.17200236871,-12.2136247329,
    4.436363659973));
#1018 = CARTESIAN_POINT('',(-37.1720033943,12.213624856701,
    4.363636338952));
#1019 = CARTESIAN_POINT('',(-22.05604637098,29.615885810862,
    4.290909110393));
#1020 = CARTESIAN_POINT('',(-1.783249484414,33.798739355754,
    4.218181807886));
#1021 = CARTESIAN_POINT('',(14.811315582837,26.389078366537,
    4.145454549852));
#1022 = CARTESIAN_POINT('',(23.099999980776,13.19468932034,
    4.072727271926));
#1023 = CARTESIAN_POINT('',(23.100000011447,-6.93136076E-09,
    4.000000000415));
#1024 = CARTESIAN_POINT('',(23.900000003991,-4.26751652E-09,
    5.20000000015));
#1025 = CARTESIAN_POINT('',(23.900000025068,-13.65164823391,
    5.12727272829));
#1026 = CARTESIAN_POINT('',(15.324261381671,-27.30298599033,
    5.05454545209));
#1027 = CARTESIAN_POINT('',(-1.845006603622,-34.96925815535,
    4.981818189693));
#1028 = CARTESIAN_POINT('',(-22.81989294512,-30.64154459926,
    4.909090893881));
#1029 = CARTESIAN_POINT('',(-38.45934445827,-12.63660718296,
    4.836363659631));
#1030 = CARTESIAN_POINT('',(-38.45934548389,12.63660730672,
    4.763636339197));
#1031 = CARTESIAN_POINT('',(-22.81989214861,30.641544363398,
    4.690909110297));
#1032 = CARTESIAN_POINT('',(-1.845007033062,34.969258377161,
    4.618181807909));
#1033 = CARTESIAN_POINT('',(15.324261572805,27.302985874009,
    4.545454549851));
#1034 = CARTESIAN_POINT('',(23.899999980775,13.651648251712,
    4.472727271928));
#1035 = CARTESIAN_POINT('',(23.900000011447,-6.92897732E-09,
    4.400000000416));
#1036 = ( GEOMETRIC_REPRESENTATION_CONTEXT(3) 
GLOBAL_UNCERTAINTY_ASSIGNED_CONTEXT((#1040)) 
GLOBAL_UNIT_ASSIGNED_CONTEXT((#1037,#1038,#1039)) REPRESENTATION_CONTEXT
('Context #1','3D Context with UNIT and UNCERTAINTY') );
#1037 = ( LENGTH_UNIT() NAMED_UNIT(*) SI_UNIT(.MILLI.,.METRE.) );
#1038 = ( NAMED_UNIT(*) PLANE_ANGLE_UNIT() SI_UNIT($,.RADIAN.) );
#1039 = ( NAMED_UNIT(*) SI_UNIT($,.STERADIAN.) SOLID_ANGLE_UNIT() );
#1040 = UNCERTAINTY_MEASURE_WITH_UNIT(LENGTH_MEASURE(2.),#1037,
  'distance_accuracy_value','confusion accuracy');
#1041 = PRODUCT_RELATED_PRODUCT_CATEGORY('part',$,(#7));
#1042 = MECHANICAL_DESIGN_GEOMETRIC_PRESENTATION_REPRESENTATION('',(
    #1043),#1036);
#1043 = STYLED_ITEM('color',(#1044),#15);
#1044 = PRESENTATION_STYLE_ASSIGNMENT((#1045,#1053));
#1045 = SURFACE_STYLE_USAGE(.BOTH.,#1046);
#1046 = SURFACE_SIDE_STYLE('',(#1047,#1051));
#1047 = SURFACE_STYLE_FILL_AREA(#1048);
#1048 = FILL_AREA_STYLE('',(#1049));
#1049 = FILL_AREA_STYLE_COLOUR('',#1050);
#1050 = COLOUR_RGB('',0.980392145089,0.725490202603,0.133333336917);
#1051 = SURFACE_STYLE_RENDERING_WITH_PROPERTIES(.NORMAL_SHADING.,#1050,(
    #1052));
#1052 = SURFACE_STYLE_TRANSPARENT(0.52999997139);
#1053 = CURVE_STYLE('',#1054,POSITIVE_LENGTH_MEASURE(0.1),#1055);
#1054 = DRAUGHTING_PRE_DEFINED_CURVE_FONT('continuous');
#1055 = COLOUR_RGB('',9.803921802644E-02,9.803921802644E-02,
  9.803921802644E-02);
ENDSEC;
END-ISO-10303-21;
