ISO-10303-21;
HEADER;
FILE_DESCRIPTION(('FreeCAD Model'),'2;1');
FILE_NAME('Open CASCADE Shape Model','2026-07-09T13:33:26',(''),(''),
  'Open CASCADE STEP processor 7.8','FreeCAD','Unknown');
FILE_SCHEMA(('AUTOMOTIVE_DESIGN { 1 0 10303 214 1 1 1 1 }'));
ENDSEC;
DATA;
#1 = APPLICATION_PROTOCOL_DEFINITION('international standard',
  'automotive_design',2000,#2);
#2 = APPLICATION_CONTEXT(
  'core data for automotive mechanical design processes');
#3 = SHAPE_DEFINITION_REPRESENTATION(#4,#10);
#4 = PRODUCT_DEFINITION_SHAPE('','',#5);
#5 = PRODUCT_DEFINITION('design','',#6,#9);
#6 = PRODUCT_DEFINITION_FORMATION('','',#7);
#7 = PRODUCT('Lens_connector','Lens_connector','',(#8));
#8 = PRODUCT_CONTEXT('',#2,'mechanical');
#9 = PRODUCT_DEFINITION_CONTEXT('part definition',#2,'design');
#10 = ADVANCED_BREP_SHAPE_REPRESENTATION('',(#11,#15),#697);
#11 = AXIS2_PLACEMENT_3D('',#12,#13,#14);
#12 = CARTESIAN_POINT('',(0.,0.,0.));
#13 = DIRECTION('',(0.,0.,1.));
#14 = DIRECTION('',(1.,0.,-0.));
#15 = MANIFOLD_SOLID_BREP('',#16);
#16 = CLOSED_SHELL('',(#17,#45,#69,#89,#215,#254,#279,#311,#336,#368,
    #393,#425,#450,#482,#507,#539,#567,#585,#603,#621,#639,#657,#675));
#17 = ADVANCED_FACE('',(#18,#29),#40,.T.);
#18 = FACE_BOUND('',#19,.T.);
#19 = EDGE_LOOP('',(#20));
#20 = ORIENTED_EDGE('',*,*,#21,.T.);
#21 = EDGE_CURVE('',#22,#22,#24,.T.);
#22 = VERTEX_POINT('',#23);
#23 = CARTESIAN_POINT('',(32.5,0.,31.5));
#24 = CIRCLE('',#25,32.5);
#25 = AXIS2_PLACEMENT_3D('',#26,#27,#28);
#26 = CARTESIAN_POINT('',(0.,0.,31.5));
#27 = DIRECTION('',(0.,0.,1.));
#28 = DIRECTION('',(1.,0.,-0.));
#29 = FACE_BOUND('',#30,.T.);
#30 = EDGE_LOOP('',(#31));
#31 = ORIENTED_EDGE('',*,*,#32,.F.);
#32 = EDGE_CURVE('',#33,#33,#35,.T.);
#33 = VERTEX_POINT('',#34);
#34 = CARTESIAN_POINT('',(26.9,0.,31.5));
#35 = CIRCLE('',#36,26.9);
#36 = AXIS2_PLACEMENT_3D('',#37,#38,#39);
#37 = CARTESIAN_POINT('',(0.,0.,31.5));
#38 = DIRECTION('',(0.,0.,1.));
#39 = DIRECTION('',(1.,0.,-0.));
#40 = PLANE('',#41);
#41 = AXIS2_PLACEMENT_3D('',#42,#43,#44);
#42 = CARTESIAN_POINT('',(-2.27E-15,-8.E-17,31.5));
#43 = DIRECTION('',(0.,0.,1.));
#44 = DIRECTION('',(1.,0.,0.));
#45 = ADVANCED_FACE('',(#46),#64,.T.);
#46 = FACE_BOUND('',#47,.F.);
#47 = EDGE_LOOP('',(#48,#49,#56,#63));
#48 = ORIENTED_EDGE('',*,*,#21,.T.);
#49 = ORIENTED_EDGE('',*,*,#50,.T.);
#50 = EDGE_CURVE('',#22,#51,#53,.T.);
#51 = VERTEX_POINT('',#52);
#52 = CARTESIAN_POINT('',(32.5,0.,0.));
#53 = B_SPLINE_CURVE_WITH_KNOTS('',1,(#54,#55),.UNSPECIFIED.,.F.,.F.,(2,
    2),(-31.5,0.),.PIECEWISE_BEZIER_KNOTS.);
#54 = CARTESIAN_POINT('',(32.5,0.,31.5));
#55 = CARTESIAN_POINT('',(32.5,0.,0.));
#56 = ORIENTED_EDGE('',*,*,#57,.F.);
#57 = EDGE_CURVE('',#51,#51,#58,.T.);
#58 = CIRCLE('',#59,32.5);
#59 = AXIS2_PLACEMENT_3D('',#60,#61,#62);
#60 = CARTESIAN_POINT('',(0.,0.,0.));
#61 = DIRECTION('',(0.,0.,1.));
#62 = DIRECTION('',(1.,0.,-0.));
#63 = ORIENTED_EDGE('',*,*,#50,.F.);
#64 = CYLINDRICAL_SURFACE('',#65,32.5);
#65 = AXIS2_PLACEMENT_3D('',#66,#67,#68);
#66 = CARTESIAN_POINT('',(0.,0.,0.));
#67 = DIRECTION('',(-0.,-0.,-1.));
#68 = DIRECTION('',(1.,0.,0.));
#69 = ADVANCED_FACE('',(#70,#73),#84,.F.);
#70 = FACE_BOUND('',#71,.F.);
#71 = EDGE_LOOP('',(#72));
#72 = ORIENTED_EDGE('',*,*,#57,.T.);
#73 = FACE_BOUND('',#74,.F.);
#74 = EDGE_LOOP('',(#75));
#75 = ORIENTED_EDGE('',*,*,#76,.T.);
#76 = EDGE_CURVE('',#77,#77,#79,.T.);
#77 = VERTEX_POINT('',#78);
#78 = CARTESIAN_POINT('',(26.95,0.,0.));
#79 = CIRCLE('',#80,26.95);
#80 = AXIS2_PLACEMENT_3D('',#81,#82,#83);
#81 = CARTESIAN_POINT('',(0.,0.,0.));
#82 = DIRECTION('',(0.,0.,-1.));
#83 = DIRECTION('',(1.,0.,0.));
#84 = PLANE('',#85);
#85 = AXIS2_PLACEMENT_3D('',#86,#87,#88);
#86 = CARTESIAN_POINT('',(-2.27E-15,-8.E-17,0.));
#87 = DIRECTION('',(0.,0.,1.));
#88 = DIRECTION('',(1.,0.,0.));
#89 = ADVANCED_FACE('',(#90),#210,.F.);
#90 = FACE_BOUND('',#91,.F.);
#91 = EDGE_LOOP('',(#92,#102,#111,#119,#128,#136,#145,#153,#162,#170,
    #179,#187,#196,#201,#202,#203));
#92 = ORIENTED_EDGE('',*,*,#93,.F.);
#93 = EDGE_CURVE('',#94,#96,#98,.T.);
#94 = VERTEX_POINT('',#95);
#95 = CARTESIAN_POINT('',(24.944935381209,-10.20062247254,2.));
#96 = VERTEX_POINT('',#97);
#97 = CARTESIAN_POINT('',(24.944935381209,-10.20062247254,4.2));
#98 = LINE('',#99,#100);
#99 = CARTESIAN_POINT('',(24.944935381209,-10.20062247254,2.));
#100 = VECTOR('',#101,1.);
#101 = DIRECTION('',(0.,0.,1.));
#102 = ORIENTED_EDGE('',*,*,#103,.T.);
#103 = EDGE_CURVE('',#94,#104,#106,.T.);
#104 = VERTEX_POINT('',#105);
#105 = CARTESIAN_POINT('',(10.425803641657,-24.85166228697,2.));
#106 = CIRCLE('',#107,26.95);
#107 = AXIS2_PLACEMENT_3D('',#108,#109,#110);
#108 = CARTESIAN_POINT('',(0.,0.,2.));
#109 = DIRECTION('',(0.,0.,-1.));
#110 = DIRECTION('',(1.,0.,0.));
#111 = ORIENTED_EDGE('',*,*,#112,.T.);
#112 = EDGE_CURVE('',#104,#113,#115,.T.);
#113 = VERTEX_POINT('',#114);
#114 = CARTESIAN_POINT('',(10.425803641657,-24.85166228697,4.2));
#115 = LINE('',#116,#117);
#116 = CARTESIAN_POINT('',(10.425803641657,-24.85166228697,2.));
#117 = VECTOR('',#118,1.);
#118 = DIRECTION('',(0.,0.,1.));
#119 = ORIENTED_EDGE('',*,*,#120,.T.);
#120 = EDGE_CURVE('',#113,#121,#123,.T.);
#121 = VERTEX_POINT('',#122);
#122 = CARTESIAN_POINT('',(-21.30646588623,-16.50263649961,4.2));
#123 = CIRCLE('',#124,26.95);
#124 = AXIS2_PLACEMENT_3D('',#125,#126,#127);
#125 = CARTESIAN_POINT('',(0.,0.,4.2));
#126 = DIRECTION('',(0.,0.,-1.));
#127 = DIRECTION('',(-0.5,0.866025403784,0.));
#128 = ORIENTED_EDGE('',*,*,#129,.F.);
#129 = EDGE_CURVE('',#130,#121,#132,.T.);
#130 = VERTEX_POINT('',#131);
#131 = CARTESIAN_POINT('',(-21.30646588623,-16.50263649961,2.));
#132 = LINE('',#133,#134);
#133 = CARTESIAN_POINT('',(-21.30646588623,-16.50263649961,2.));
#134 = VECTOR('',#135,1.);
#135 = DIRECTION('',(0.,0.,1.));
#136 = ORIENTED_EDGE('',*,*,#137,.T.);
#137 = EDGE_CURVE('',#130,#138,#140,.T.);
#138 = VERTEX_POINT('',#139);
#139 = CARTESIAN_POINT('',(-26.73507268761,3.396820334942,2.));
#140 = CIRCLE('',#141,26.95);
#141 = AXIS2_PLACEMENT_3D('',#142,#143,#144);
#142 = CARTESIAN_POINT('',(0.,0.,2.));
#143 = DIRECTION('',(0.,0.,-1.));
#144 = DIRECTION('',(1.,0.,0.));
#145 = ORIENTED_EDGE('',*,*,#146,.T.);
#146 = EDGE_CURVE('',#138,#147,#149,.T.);
#147 = VERTEX_POINT('',#148);
#148 = CARTESIAN_POINT('',(-26.73507268761,3.396820334942,4.2));
#149 = LINE('',#150,#151);
#150 = CARTESIAN_POINT('',(-26.73507268761,3.396820334942,2.));
#151 = VECTOR('',#152,1.);
#152 = DIRECTION('',(0.,0.,1.));
#153 = ORIENTED_EDGE('',*,*,#154,.T.);
#154 = EDGE_CURVE('',#147,#155,#157,.T.);
#155 = VERTEX_POINT('',#156);
#156 = CARTESIAN_POINT('',(-3.638469494971,26.703258972159,4.2));
#157 = CIRCLE('',#158,26.95);
#158 = AXIS2_PLACEMENT_3D('',#159,#160,#161);
#159 = CARTESIAN_POINT('',(0.,0.,4.2));
#160 = DIRECTION('',(0.,0.,-1.));
#161 = DIRECTION('',(1.,0.,0.));
#162 = ORIENTED_EDGE('',*,*,#163,.F.);
#163 = EDGE_CURVE('',#164,#155,#166,.T.);
#164 = VERTEX_POINT('',#165);
#165 = CARTESIAN_POINT('',(-3.638469494971,26.703258972159,2.));
#166 = LINE('',#167,#168);
#167 = CARTESIAN_POINT('',(-3.638469494971,26.703258972159,2.));
#168 = VECTOR('',#169,1.);
#169 = DIRECTION('',(0.,0.,1.));
#170 = ORIENTED_EDGE('',*,*,#171,.T.);
#171 = EDGE_CURVE('',#164,#172,#174,.T.);
#172 = VERTEX_POINT('',#173);
#173 = CARTESIAN_POINT('',(16.30926904596,21.454841952028,2.));
#174 = CIRCLE('',#175,26.95);
#175 = AXIS2_PLACEMENT_3D('',#176,#177,#178);
#176 = CARTESIAN_POINT('',(0.,0.,2.));
#177 = DIRECTION('',(0.,0.,-1.));
#178 = DIRECTION('',(1.,0.,0.));
#179 = ORIENTED_EDGE('',*,*,#180,.T.);
#180 = EDGE_CURVE('',#172,#181,#183,.T.);
#181 = VERTEX_POINT('',#182);
#182 = CARTESIAN_POINT('',(16.30926904596,21.454841952028,4.2));
#183 = LINE('',#184,#185);
#184 = CARTESIAN_POINT('',(16.30926904596,21.454841952028,2.));
#185 = VECTOR('',#186,1.);
#186 = DIRECTION('',(0.,0.,1.));
#187 = ORIENTED_EDGE('',*,*,#188,.T.);
#188 = EDGE_CURVE('',#181,#189,#191,.T.);
#189 = VERTEX_POINT('',#190);
#190 = CARTESIAN_POINT('',(26.95,7.E-15,4.2));
#191 = CIRCLE('',#192,26.95);
#192 = AXIS2_PLACEMENT_3D('',#193,#194,#195);
#193 = CARTESIAN_POINT('',(0.,0.,4.2));
#194 = DIRECTION('',(-0.,0.,-1.));
#195 = DIRECTION('',(-0.5,-0.866025403784,0.));
#196 = ORIENTED_EDGE('',*,*,#197,.T.);
#197 = EDGE_CURVE('',#189,#77,#198,.T.);
#198 = B_SPLINE_CURVE_WITH_KNOTS('',1,(#199,#200),.UNSPECIFIED.,.F.,.F.,
  (2,2),(-4.2,0.),.PIECEWISE_BEZIER_KNOTS.);
#199 = CARTESIAN_POINT('',(26.95,0.,4.2));
#200 = CARTESIAN_POINT('',(26.95,0.,0.));
#201 = ORIENTED_EDGE('',*,*,#76,.F.);
#202 = ORIENTED_EDGE('',*,*,#197,.F.);
#203 = ORIENTED_EDGE('',*,*,#204,.T.);
#204 = EDGE_CURVE('',#189,#96,#205,.T.);
#205 = CIRCLE('',#206,26.95);
#206 = AXIS2_PLACEMENT_3D('',#207,#208,#209);
#207 = CARTESIAN_POINT('',(0.,0.,4.2));
#208 = DIRECTION('',(-0.,0.,-1.));
#209 = DIRECTION('',(-0.5,-0.866025403784,0.));
#210 = CYLINDRICAL_SURFACE('',#211,26.95);
#211 = AXIS2_PLACEMENT_3D('',#212,#213,#214);
#212 = CARTESIAN_POINT('',(0.,0.,0.));
#213 = DIRECTION('',(0.,0.,-1.));
#214 = DIRECTION('',(1.,0.,0.));
#215 = ADVANCED_FACE('',(#216),#249,.F.);
#216 = FACE_BOUND('',#217,.F.);
#217 = EDGE_LOOP('',(#218,#219,#227,#235,#243));
#218 = ORIENTED_EDGE('',*,*,#93,.T.);
#219 = ORIENTED_EDGE('',*,*,#220,.T.);
#220 = EDGE_CURVE('',#96,#221,#223,.T.);
#221 = VERTEX_POINT('',#222);
#222 = CARTESIAN_POINT('',(24.90045961647,-10.17728406248,4.2));
#223 = LINE('',#224,#225);
#224 = CARTESIAN_POINT('',(24.944935381209,-10.20062247254,4.2));
#225 = VECTOR('',#226,1.);
#226 = DIRECTION('',(-0.885491021864,0.464656486233,0.));
#227 = ORIENTED_EDGE('',*,*,#228,.T.);
#228 = EDGE_CURVE('',#221,#229,#231,.T.);
#229 = VERTEX_POINT('',#230);
#230 = CARTESIAN_POINT('',(23.610315984192,-9.500288370708,4.2));
#231 = LINE('',#232,#233);
#232 = CARTESIAN_POINT('',(24.944935381209,-10.20062247254,4.2));
#233 = VECTOR('',#234,1.);
#234 = DIRECTION('',(-0.885491021864,0.464656486233,0.));
#235 = ORIENTED_EDGE('',*,*,#236,.F.);
#236 = EDGE_CURVE('',#237,#229,#239,.T.);
#237 = VERTEX_POINT('',#238);
#238 = CARTESIAN_POINT('',(23.610315984192,-9.500288370708,2.));
#239 = LINE('',#240,#241);
#240 = CARTESIAN_POINT('',(23.610315984192,-9.500288370708,2.));
#241 = VECTOR('',#242,1.);
#242 = DIRECTION('',(0.,0.,1.));
#243 = ORIENTED_EDGE('',*,*,#244,.F.);
#244 = EDGE_CURVE('',#94,#237,#245,.T.);
#245 = LINE('',#246,#247);
#246 = CARTESIAN_POINT('',(24.944935381209,-10.20062247254,2.));
#247 = VECTOR('',#248,1.);
#248 = DIRECTION('',(-0.885491021864,0.464656486233,0.));
#249 = PLANE('',#250);
#250 = AXIS2_PLACEMENT_3D('',#251,#252,#253);
#251 = CARTESIAN_POINT('',(24.944935381209,-10.20062247254,2.));
#252 = DIRECTION('',(-0.464656486233,-0.885491021864,0.));
#253 = DIRECTION('',(-0.885491021864,0.464656486233,0.));
#254 = ADVANCED_FACE('',(#255),#274,.F.);
#255 = FACE_BOUND('',#256,.F.);
#256 = EDGE_LOOP('',(#257,#258,#259,#268));
#257 = ORIENTED_EDGE('',*,*,#103,.F.);
#258 = ORIENTED_EDGE('',*,*,#244,.T.);
#259 = ORIENTED_EDGE('',*,*,#260,.T.);
#260 = EDGE_CURVE('',#237,#261,#263,.T.);
#261 = VERTEX_POINT('',#262);
#262 = CARTESIAN_POINT('',(9.977296208224,-23.41273286853,2.));
#263 = CIRCLE('',#264,25.45);
#264 = AXIS2_PLACEMENT_3D('',#265,#266,#267);
#265 = CARTESIAN_POINT('',(0.,0.,2.));
#266 = DIRECTION('',(0.,0.,-1.));
#267 = DIRECTION('',(1.,0.,0.));
#268 = ORIENTED_EDGE('',*,*,#269,.F.);
#269 = EDGE_CURVE('',#104,#261,#270,.T.);
#270 = LINE('',#271,#272);
#271 = CARTESIAN_POINT('',(10.425803641657,-24.85166228697,2.));
#272 = VECTOR('',#273,1.);
#273 = DIRECTION('',(-0.297574953902,0.954698458578,0.));
#274 = PLANE('',#275);
#275 = AXIS2_PLACEMENT_3D('',#276,#277,#278);
#276 = CARTESIAN_POINT('',(-1.25E-15,-1.1E-15,2.));
#277 = DIRECTION('',(0.,0.,1.));
#278 = DIRECTION('',(1.,0.,0.));
#279 = ADVANCED_FACE('',(#280),#306,.T.);
#280 = FACE_BOUND('',#281,.T.);
#281 = EDGE_LOOP('',(#282,#283,#291,#299,#305));
#282 = ORIENTED_EDGE('',*,*,#112,.T.);
#283 = ORIENTED_EDGE('',*,*,#284,.T.);
#284 = EDGE_CURVE('',#113,#285,#287,.T.);
#285 = VERTEX_POINT('',#286);
#286 = CARTESIAN_POINT('',(10.410857274821,-24.80371042411,4.2));
#287 = LINE('',#288,#289);
#288 = CARTESIAN_POINT('',(10.425803641657,-24.85166228697,4.2));
#289 = VECTOR('',#290,1.);
#290 = DIRECTION('',(-0.297574953902,0.954698458578,0.));
#291 = ORIENTED_EDGE('',*,*,#292,.T.);
#292 = EDGE_CURVE('',#285,#293,#295,.T.);
#293 = VERTEX_POINT('',#294);
#294 = CARTESIAN_POINT('',(9.977296208224,-23.41273286853,4.2));
#295 = LINE('',#296,#297);
#296 = CARTESIAN_POINT('',(10.425803641657,-24.85166228697,4.2));
#297 = VECTOR('',#298,1.);
#298 = DIRECTION('',(-0.297574953902,0.954698458578,0.));
#299 = ORIENTED_EDGE('',*,*,#300,.F.);
#300 = EDGE_CURVE('',#261,#293,#301,.T.);
#301 = LINE('',#302,#303);
#302 = CARTESIAN_POINT('',(9.977296208224,-23.41273286853,2.));
#303 = VECTOR('',#304,1.);
#304 = DIRECTION('',(0.,0.,1.));
#305 = ORIENTED_EDGE('',*,*,#269,.F.);
#306 = PLANE('',#307);
#307 = AXIS2_PLACEMENT_3D('',#308,#309,#310);
#308 = CARTESIAN_POINT('',(10.425803641657,-24.85166228697,2.));
#309 = DIRECTION('',(-0.954698458578,-0.297574953902,0.));
#310 = DIRECTION('',(-0.297574953902,0.954698458578,0.));
#311 = ADVANCED_FACE('',(#312),#331,.F.);
#312 = FACE_BOUND('',#313,.F.);
#313 = EDGE_LOOP('',(#314,#315,#316,#325));
#314 = ORIENTED_EDGE('',*,*,#120,.F.);
#315 = ORIENTED_EDGE('',*,*,#284,.T.);
#316 = ORIENTED_EDGE('',*,*,#317,.F.);
#317 = EDGE_CURVE('',#318,#285,#320,.T.);
#318 = VERTEX_POINT('',#319);
#319 = CARTESIAN_POINT('',(-21.26401634787,-16.47578856252,4.2));
#320 = CIRCLE('',#321,26.9);
#321 = AXIS2_PLACEMENT_3D('',#322,#323,#324);
#322 = CARTESIAN_POINT('',(0.,0.,4.2));
#323 = DIRECTION('',(0.,0.,1.));
#324 = DIRECTION('',(1.,0.,-0.));
#325 = ORIENTED_EDGE('',*,*,#326,.F.);
#326 = EDGE_CURVE('',#121,#318,#327,.T.);
#327 = LINE('',#328,#329);
#328 = CARTESIAN_POINT('',(-21.30646588623,-16.50263649961,4.2));
#329 = VECTOR('',#330,1.);
#330 = DIRECTION('',(0.845149832043,0.53452947664,0.));
#331 = PLANE('',#332);
#332 = AXIS2_PLACEMENT_3D('',#333,#334,#335);
#333 = CARTESIAN_POINT('',(-6.011018439035,-23.09499712525,4.2));
#334 = DIRECTION('',(0.,0.,1.));
#335 = DIRECTION('',(-0.5,0.866025403784,0.));
#336 = ADVANCED_FACE('',(#337),#363,.F.);
#337 = FACE_BOUND('',#338,.F.);
#338 = EDGE_LOOP('',(#339,#340,#341,#349,#357));
#339 = ORIENTED_EDGE('',*,*,#129,.T.);
#340 = ORIENTED_EDGE('',*,*,#326,.T.);
#341 = ORIENTED_EDGE('',*,*,#342,.T.);
#342 = EDGE_CURVE('',#318,#343,#345,.T.);
#343 = VERTEX_POINT('',#344);
#344 = CARTESIAN_POINT('',(-20.0326490644,-15.69698924833,4.2));
#345 = LINE('',#346,#347);
#346 = CARTESIAN_POINT('',(-21.30646588623,-16.50263649961,4.2));
#347 = VECTOR('',#348,1.);
#348 = DIRECTION('',(0.845149832043,0.53452947664,0.));
#349 = ORIENTED_EDGE('',*,*,#350,.F.);
#350 = EDGE_CURVE('',#351,#343,#353,.T.);
#351 = VERTEX_POINT('',#352);
#352 = CARTESIAN_POINT('',(-20.0326490644,-15.69698924833,2.));
#353 = LINE('',#354,#355);
#354 = CARTESIAN_POINT('',(-20.0326490644,-15.69698924833,2.));
#355 = VECTOR('',#356,1.);
#356 = DIRECTION('',(0.,0.,1.));
#357 = ORIENTED_EDGE('',*,*,#358,.F.);
#358 = EDGE_CURVE('',#130,#351,#359,.T.);
#359 = LINE('',#360,#361);
#360 = CARTESIAN_POINT('',(-21.30646588623,-16.50263649961,2.));
#361 = VECTOR('',#362,1.);
#362 = DIRECTION('',(0.845149832043,0.53452947664,0.));
#363 = PLANE('',#364);
#364 = AXIS2_PLACEMENT_3D('',#365,#366,#367);
#365 = CARTESIAN_POINT('',(-21.30646588623,-16.50263649961,2.));
#366 = DIRECTION('',(-0.53452947664,0.845149832043,0.));
#367 = DIRECTION('',(0.845149832043,0.53452947664,0.));
#368 = ADVANCED_FACE('',(#369),#388,.F.);
#369 = FACE_BOUND('',#370,.F.);
#370 = EDGE_LOOP('',(#371,#372,#373,#382));
#371 = ORIENTED_EDGE('',*,*,#137,.F.);
#372 = ORIENTED_EDGE('',*,*,#358,.T.);
#373 = ORIENTED_EDGE('',*,*,#374,.T.);
#374 = EDGE_CURVE('',#351,#375,#377,.T.);
#375 = VERTEX_POINT('',#376);
#376 = CARTESIAN_POINT('',(-25.26466954028,3.065774456863,2.));
#377 = CIRCLE('',#378,25.45);
#378 = AXIS2_PLACEMENT_3D('',#379,#380,#381);
#379 = CARTESIAN_POINT('',(0.,0.,2.));
#380 = DIRECTION('',(0.,0.,-1.));
#381 = DIRECTION('',(1.,0.,0.));
#382 = ORIENTED_EDGE('',*,*,#383,.F.);
#383 = EDGE_CURVE('',#138,#375,#384,.T.);
#384 = LINE('',#385,#386);
#385 = CARTESIAN_POINT('',(-26.73507268761,3.396820334942,2.));
#386 = VECTOR('',#387,1.);
#387 = DIRECTION('',(0.975580595033,-0.21964175968,0.));
#388 = PLANE('',#389);
#389 = AXIS2_PLACEMENT_3D('',#390,#391,#392);
#390 = CARTESIAN_POINT('',(-1.25E-15,-1.1E-15,2.));
#391 = DIRECTION('',(0.,0.,1.));
#392 = DIRECTION('',(1.,0.,0.));
#393 = ADVANCED_FACE('',(#394),#420,.T.);
#394 = FACE_BOUND('',#395,.T.);
#395 = EDGE_LOOP('',(#396,#397,#405,#413,#419));
#396 = ORIENTED_EDGE('',*,*,#146,.T.);
#397 = ORIENTED_EDGE('',*,*,#398,.T.);
#398 = EDGE_CURVE('',#147,#399,#401,.T.);
#399 = VERTEX_POINT('',#400);
#400 = CARTESIAN_POINT('',(-26.6860719728,3.385788336888,4.2));
#401 = LINE('',#402,#403);
#402 = CARTESIAN_POINT('',(-26.73507268761,3.396820334942,4.2));
#403 = VECTOR('',#404,1.);
#404 = DIRECTION('',(0.975580595033,-0.21964175968,0.));
#405 = ORIENTED_EDGE('',*,*,#406,.T.);
#406 = EDGE_CURVE('',#399,#407,#409,.T.);
#407 = VERTEX_POINT('',#408);
#408 = CARTESIAN_POINT('',(-25.26466954028,3.065774456863,4.2));
#409 = LINE('',#410,#411);
#410 = CARTESIAN_POINT('',(-26.73507268761,3.396820334942,4.2));
#411 = VECTOR('',#412,1.);
#412 = DIRECTION('',(0.975580595033,-0.21964175968,0.));
#413 = ORIENTED_EDGE('',*,*,#414,.F.);
#414 = EDGE_CURVE('',#375,#407,#415,.T.);
#415 = LINE('',#416,#417);
#416 = CARTESIAN_POINT('',(-25.26466954028,3.065774456863,2.));
#417 = VECTOR('',#418,1.);
#418 = DIRECTION('',(0.,0.,1.));
#419 = ORIENTED_EDGE('',*,*,#383,.F.);
#420 = PLANE('',#421);
#421 = AXIS2_PLACEMENT_3D('',#422,#423,#424);
#422 = CARTESIAN_POINT('',(-26.73507268761,3.396820334942,2.));
#423 = DIRECTION('',(0.21964175968,0.975580595033,0.));
#424 = DIRECTION('',(0.975580595033,-0.21964175968,0.));
#425 = ADVANCED_FACE('',(#426),#445,.F.);
#426 = FACE_BOUND('',#427,.F.);
#427 = EDGE_LOOP('',(#428,#429,#430,#439));
#428 = ORIENTED_EDGE('',*,*,#154,.F.);
#429 = ORIENTED_EDGE('',*,*,#398,.T.);
#430 = ORIENTED_EDGE('',*,*,#431,.F.);
#431 = EDGE_CURVE('',#432,#399,#434,.T.);
#432 = VERTEX_POINT('',#433);
#433 = CARTESIAN_POINT('',(-3.63644326859,26.653072625015,4.2));
#434 = CIRCLE('',#435,26.9);
#435 = AXIS2_PLACEMENT_3D('',#436,#437,#438);
#436 = CARTESIAN_POINT('',(0.,0.,4.2));
#437 = DIRECTION('',(0.,0.,1.));
#438 = DIRECTION('',(1.,0.,-0.));
#439 = ORIENTED_EDGE('',*,*,#440,.F.);
#440 = EDGE_CURVE('',#155,#432,#441,.T.);
#441 = LINE('',#442,#443);
#442 = CARTESIAN_POINT('',(-3.638469494971,26.703258972159,4.2));
#443 = VECTOR('',#444,1.);
#444 = DIRECTION('',(4.034118982056E-02,-0.999185962874,0.));
#445 = PLANE('',#446);
#446 = AXIS2_PLACEMENT_3D('',#447,#448,#449);
#447 = CARTESIAN_POINT('',(-16.99534499127,16.753193233446,4.2));
#448 = DIRECTION('',(0.,0.,1.));
#449 = DIRECTION('',(1.,0.,0.));
#450 = ADVANCED_FACE('',(#451),#477,.F.);
#451 = FACE_BOUND('',#452,.F.);
#452 = EDGE_LOOP('',(#453,#454,#455,#463,#471));
#453 = ORIENTED_EDGE('',*,*,#163,.T.);
#454 = ORIENTED_EDGE('',*,*,#440,.T.);
#455 = ORIENTED_EDGE('',*,*,#456,.T.);
#456 = EDGE_CURVE('',#432,#457,#459,.T.);
#457 = VERTEX_POINT('',#458);
#458 = CARTESIAN_POINT('',(-3.577666919785,25.197277619042,4.2));
#459 = LINE('',#460,#461);
#460 = CARTESIAN_POINT('',(-3.638469494971,26.703258972159,4.2));
#461 = VECTOR('',#462,1.);
#462 = DIRECTION('',(4.034118982056E-02,-0.999185962874,0.));
#463 = ORIENTED_EDGE('',*,*,#464,.F.);
#464 = EDGE_CURVE('',#465,#457,#467,.T.);
#465 = VERTEX_POINT('',#466);
#466 = CARTESIAN_POINT('',(-3.577666919785,25.197277619042,2.));
#467 = LINE('',#468,#469);
#468 = CARTESIAN_POINT('',(-3.577666919785,25.197277619042,2.));
#469 = VECTOR('',#470,1.);
#470 = DIRECTION('',(0.,0.,1.));
#471 = ORIENTED_EDGE('',*,*,#472,.F.);
#472 = EDGE_CURVE('',#164,#465,#473,.T.);
#473 = LINE('',#474,#475);
#474 = CARTESIAN_POINT('',(-3.638469494971,26.703258972159,2.));
#475 = VECTOR('',#476,1.);
#476 = DIRECTION('',(4.034118982056E-02,-0.999185962874,0.));
#477 = PLANE('',#478);
#478 = AXIS2_PLACEMENT_3D('',#479,#480,#481);
#479 = CARTESIAN_POINT('',(-3.638469494971,26.703258972159,2.));
#480 = DIRECTION('',(0.999185962874,4.034118982056E-02,0.));
#481 = DIRECTION('',(4.034118982056E-02,-0.999185962874,0.));
#482 = ADVANCED_FACE('',(#483),#502,.F.);
#483 = FACE_BOUND('',#484,.F.);
#484 = EDGE_LOOP('',(#485,#493,#494,#495));
#485 = ORIENTED_EDGE('',*,*,#486,.F.);
#486 = EDGE_CURVE('',#172,#487,#489,.T.);
#487 = VERTEX_POINT('',#488);
#488 = CARTESIAN_POINT('',(15.287373332058,20.346958411671,2.));
#489 = LINE('',#490,#491);
#490 = CARTESIAN_POINT('',(16.30926904596,21.454841952028,2.));
#491 = VECTOR('',#492,1.);
#492 = DIRECTION('',(-0.678005641131,-0.735056698898,0.));
#493 = ORIENTED_EDGE('',*,*,#171,.F.);
#494 = ORIENTED_EDGE('',*,*,#472,.T.);
#495 = ORIENTED_EDGE('',*,*,#496,.T.);
#496 = EDGE_CURVE('',#465,#487,#497,.T.);
#497 = CIRCLE('',#498,25.45);
#498 = AXIS2_PLACEMENT_3D('',#499,#500,#501);
#499 = CARTESIAN_POINT('',(0.,0.,2.));
#500 = DIRECTION('',(0.,0.,-1.));
#501 = DIRECTION('',(1.,0.,0.));
#502 = PLANE('',#503);
#503 = AXIS2_PLACEMENT_3D('',#504,#505,#506);
#504 = CARTESIAN_POINT('',(-1.25E-15,-1.1E-15,2.));
#505 = DIRECTION('',(0.,0.,1.));
#506 = DIRECTION('',(1.,0.,0.));
#507 = ADVANCED_FACE('',(#508),#534,.T.);
#508 = FACE_BOUND('',#509,.T.);
#509 = EDGE_LOOP('',(#510,#511,#519,#527,#533));
#510 = ORIENTED_EDGE('',*,*,#180,.T.);
#511 = ORIENTED_EDGE('',*,*,#512,.T.);
#512 = EDGE_CURVE('',#181,#513,#515,.T.);
#513 = VERTEX_POINT('',#514);
#514 = CARTESIAN_POINT('',(16.275214697985,21.417922087227,4.2));
#515 = LINE('',#516,#517);
#516 = CARTESIAN_POINT('',(16.30926904596,21.454841952028,4.2));
#517 = VECTOR('',#518,1.);
#518 = DIRECTION('',(-0.678005641131,-0.735056698898,0.));
#519 = ORIENTED_EDGE('',*,*,#520,.T.);
#520 = EDGE_CURVE('',#513,#521,#523,.T.);
#521 = VERTEX_POINT('',#522);
#522 = CARTESIAN_POINT('',(15.287373332058,20.346958411671,4.2));
#523 = LINE('',#524,#525);
#524 = CARTESIAN_POINT('',(16.30926904596,21.454841952028,4.2));
#525 = VECTOR('',#526,1.);
#526 = DIRECTION('',(-0.678005641131,-0.735056698898,0.));
#527 = ORIENTED_EDGE('',*,*,#528,.F.);
#528 = EDGE_CURVE('',#487,#521,#529,.T.);
#529 = LINE('',#530,#531);
#530 = CARTESIAN_POINT('',(15.287373332058,20.346958411671,2.));
#531 = VECTOR('',#532,1.);
#532 = DIRECTION('',(0.,0.,1.));
#533 = ORIENTED_EDGE('',*,*,#486,.F.);
#534 = PLANE('',#535);
#535 = AXIS2_PLACEMENT_3D('',#536,#537,#538);
#536 = CARTESIAN_POINT('',(16.30926904596,21.454841952028,2.));
#537 = DIRECTION('',(0.735056698898,-0.678005641131,0.));
#538 = DIRECTION('',(-0.678005641131,-0.735056698898,0.));
#539 = ADVANCED_FACE('',(#540),#562,.F.);
#540 = FACE_BOUND('',#541,.F.);
#541 = EDGE_LOOP('',(#542,#543,#544,#553,#560,#561));
#542 = ORIENTED_EDGE('',*,*,#188,.F.);
#543 = ORIENTED_EDGE('',*,*,#512,.T.);
#544 = ORIENTED_EDGE('',*,*,#545,.F.);
#545 = EDGE_CURVE('',#546,#513,#548,.T.);
#546 = VERTEX_POINT('',#547);
#547 = CARTESIAN_POINT('',(26.9,0.,4.2));
#548 = CIRCLE('',#549,26.9);
#549 = AXIS2_PLACEMENT_3D('',#550,#551,#552);
#550 = CARTESIAN_POINT('',(0.,0.,4.2));
#551 = DIRECTION('',(0.,0.,1.));
#552 = DIRECTION('',(1.,0.,-0.));
#553 = ORIENTED_EDGE('',*,*,#554,.F.);
#554 = EDGE_CURVE('',#221,#546,#555,.T.);
#555 = CIRCLE('',#556,26.9);
#556 = AXIS2_PLACEMENT_3D('',#557,#558,#559);
#557 = CARTESIAN_POINT('',(0.,0.,4.2));
#558 = DIRECTION('',(0.,0.,1.));
#559 = DIRECTION('',(1.,0.,-0.));
#560 = ORIENTED_EDGE('',*,*,#220,.F.);
#561 = ORIENTED_EDGE('',*,*,#204,.F.);
#562 = PLANE('',#563);
#563 = AXIS2_PLACEMENT_3D('',#564,#565,#566);
#564 = CARTESIAN_POINT('',(23.006363430313,6.341803891804,4.2));
#565 = DIRECTION('',(0.,0.,1.));
#566 = DIRECTION('',(-0.5,-0.866025403784,0.));
#567 = ADVANCED_FACE('',(#568),#580,.F.);
#568 = FACE_BOUND('',#569,.T.);
#569 = EDGE_LOOP('',(#570,#577,#578,#579));
#570 = ORIENTED_EDGE('',*,*,#571,.T.);
#571 = EDGE_CURVE('',#293,#229,#572,.T.);
#572 = CIRCLE('',#573,25.45);
#573 = AXIS2_PLACEMENT_3D('',#574,#575,#576);
#574 = CARTESIAN_POINT('',(0.,0.,4.2));
#575 = DIRECTION('',(0.,0.,1.));
#576 = DIRECTION('',(1.,0.,0.));
#577 = ORIENTED_EDGE('',*,*,#236,.F.);
#578 = ORIENTED_EDGE('',*,*,#260,.T.);
#579 = ORIENTED_EDGE('',*,*,#300,.T.);
#580 = CYLINDRICAL_SURFACE('',#581,25.45);
#581 = AXIS2_PLACEMENT_3D('',#582,#583,#584);
#582 = CARTESIAN_POINT('',(0.,0.,0.));
#583 = DIRECTION('',(-0.,-0.,-1.));
#584 = DIRECTION('',(1.,0.,0.));
#585 = ADVANCED_FACE('',(#586),#598,.T.);
#586 = FACE_BOUND('',#587,.T.);
#587 = EDGE_LOOP('',(#588,#589,#596,#597));
#588 = ORIENTED_EDGE('',*,*,#292,.F.);
#589 = ORIENTED_EDGE('',*,*,#590,.T.);
#590 = EDGE_CURVE('',#285,#221,#591,.T.);
#591 = CIRCLE('',#592,26.9);
#592 = AXIS2_PLACEMENT_3D('',#593,#594,#595);
#593 = CARTESIAN_POINT('',(0.,0.,4.2));
#594 = DIRECTION('',(0.,0.,1.));
#595 = DIRECTION('',(1.,0.,-0.));
#596 = ORIENTED_EDGE('',*,*,#228,.T.);
#597 = ORIENTED_EDGE('',*,*,#571,.F.);
#598 = PLANE('',#599);
#599 = AXIS2_PLACEMENT_3D('',#600,#601,#602);
#600 = CARTESIAN_POINT('',(-1.67E-15,1.11E-15,4.2));
#601 = DIRECTION('',(0.,0.,1.));
#602 = DIRECTION('',(1.,0.,0.));
#603 = ADVANCED_FACE('',(#604),#616,.F.);
#604 = FACE_BOUND('',#605,.T.);
#605 = EDGE_LOOP('',(#606,#613,#614,#615));
#606 = ORIENTED_EDGE('',*,*,#607,.T.);
#607 = EDGE_CURVE('',#407,#343,#608,.T.);
#608 = CIRCLE('',#609,25.45);
#609 = AXIS2_PLACEMENT_3D('',#610,#611,#612);
#610 = CARTESIAN_POINT('',(0.,0.,4.2));
#611 = DIRECTION('',(0.,0.,1.));
#612 = DIRECTION('',(1.,0.,0.));
#613 = ORIENTED_EDGE('',*,*,#350,.F.);
#614 = ORIENTED_EDGE('',*,*,#374,.T.);
#615 = ORIENTED_EDGE('',*,*,#414,.T.);
#616 = CYLINDRICAL_SURFACE('',#617,25.45);
#617 = AXIS2_PLACEMENT_3D('',#618,#619,#620);
#618 = CARTESIAN_POINT('',(0.,0.,0.));
#619 = DIRECTION('',(-0.,-0.,-1.));
#620 = DIRECTION('',(1.,0.,0.));
#621 = ADVANCED_FACE('',(#622),#634,.T.);
#622 = FACE_BOUND('',#623,.T.);
#623 = EDGE_LOOP('',(#624,#625,#632,#633));
#624 = ORIENTED_EDGE('',*,*,#406,.F.);
#625 = ORIENTED_EDGE('',*,*,#626,.T.);
#626 = EDGE_CURVE('',#399,#318,#627,.T.);
#627 = CIRCLE('',#628,26.9);
#628 = AXIS2_PLACEMENT_3D('',#629,#630,#631);
#629 = CARTESIAN_POINT('',(0.,0.,4.2));
#630 = DIRECTION('',(0.,0.,1.));
#631 = DIRECTION('',(1.,0.,-0.));
#632 = ORIENTED_EDGE('',*,*,#342,.T.);
#633 = ORIENTED_EDGE('',*,*,#607,.F.);
#634 = PLANE('',#635);
#635 = AXIS2_PLACEMENT_3D('',#636,#637,#638);
#636 = CARTESIAN_POINT('',(-1.67E-15,1.11E-15,4.2));
#637 = DIRECTION('',(0.,0.,1.));
#638 = DIRECTION('',(1.,0.,0.));
#639 = ADVANCED_FACE('',(#640),#652,.F.);
#640 = FACE_BOUND('',#641,.T.);
#641 = EDGE_LOOP('',(#642,#643,#650,#651));
#642 = ORIENTED_EDGE('',*,*,#528,.T.);
#643 = ORIENTED_EDGE('',*,*,#644,.T.);
#644 = EDGE_CURVE('',#521,#457,#645,.T.);
#645 = CIRCLE('',#646,25.45);
#646 = AXIS2_PLACEMENT_3D('',#647,#648,#649);
#647 = CARTESIAN_POINT('',(0.,0.,4.2));
#648 = DIRECTION('',(0.,0.,1.));
#649 = DIRECTION('',(1.,0.,0.));
#650 = ORIENTED_EDGE('',*,*,#464,.F.);
#651 = ORIENTED_EDGE('',*,*,#496,.T.);
#652 = CYLINDRICAL_SURFACE('',#653,25.45);
#653 = AXIS2_PLACEMENT_3D('',#654,#655,#656);
#654 = CARTESIAN_POINT('',(0.,0.,0.));
#655 = DIRECTION('',(-0.,-0.,-1.));
#656 = DIRECTION('',(1.,0.,0.));
#657 = ADVANCED_FACE('',(#658),#670,.T.);
#658 = FACE_BOUND('',#659,.T.);
#659 = EDGE_LOOP('',(#660,#661,#668,#669));
#660 = ORIENTED_EDGE('',*,*,#520,.F.);
#661 = ORIENTED_EDGE('',*,*,#662,.T.);
#662 = EDGE_CURVE('',#513,#432,#663,.T.);
#663 = CIRCLE('',#664,26.9);
#664 = AXIS2_PLACEMENT_3D('',#665,#666,#667);
#665 = CARTESIAN_POINT('',(0.,0.,4.2));
#666 = DIRECTION('',(0.,0.,1.));
#667 = DIRECTION('',(1.,0.,-0.));
#668 = ORIENTED_EDGE('',*,*,#456,.T.);
#669 = ORIENTED_EDGE('',*,*,#644,.F.);
#670 = PLANE('',#671);
#671 = AXIS2_PLACEMENT_3D('',#672,#673,#674);
#672 = CARTESIAN_POINT('',(-1.67E-15,1.11E-15,4.2));
#673 = DIRECTION('',(0.,0.,1.));
#674 = DIRECTION('',(1.,0.,0.));
#675 = ADVANCED_FACE('',(#676),#692,.F.);
#676 = FACE_BOUND('',#677,.F.);
#677 = EDGE_LOOP('',(#678,#679,#684,#685,#686,#687,#688,#689,#690,#691)
  );
#678 = ORIENTED_EDGE('',*,*,#32,.F.);
#679 = ORIENTED_EDGE('',*,*,#680,.F.);
#680 = EDGE_CURVE('',#546,#33,#681,.T.);
#681 = B_SPLINE_CURVE_WITH_KNOTS('',1,(#682,#683),.UNSPECIFIED.,.F.,.F.,
  (2,2),(-0.8,26.5),.PIECEWISE_BEZIER_KNOTS.);
#682 = CARTESIAN_POINT('',(26.9,-6.59E-15,4.2));
#683 = CARTESIAN_POINT('',(26.9,-6.59E-15,31.5));
#684 = ORIENTED_EDGE('',*,*,#545,.T.);
#685 = ORIENTED_EDGE('',*,*,#662,.T.);
#686 = ORIENTED_EDGE('',*,*,#431,.T.);
#687 = ORIENTED_EDGE('',*,*,#626,.T.);
#688 = ORIENTED_EDGE('',*,*,#317,.T.);
#689 = ORIENTED_EDGE('',*,*,#590,.T.);
#690 = ORIENTED_EDGE('',*,*,#554,.T.);
#691 = ORIENTED_EDGE('',*,*,#680,.T.);
#692 = CYLINDRICAL_SURFACE('',#693,26.9);
#693 = AXIS2_PLACEMENT_3D('',#694,#695,#696);
#694 = CARTESIAN_POINT('',(0.,0.,5.));
#695 = DIRECTION('',(0.,0.,1.));
#696 = DIRECTION('',(1.,0.,-0.));
#697 = ( GEOMETRIC_REPRESENTATION_CONTEXT(3) 
GLOBAL_UNCERTAINTY_ASSIGNED_CONTEXT((#701)) GLOBAL_UNIT_ASSIGNED_CONTEXT
((#698,#699,#700)) REPRESENTATION_CONTEXT('Context #1',
  '3D Context with UNIT and UNCERTAINTY') );
#698 = ( LENGTH_UNIT() NAMED_UNIT(*) SI_UNIT(.MILLI.,.METRE.) );
#699 = ( NAMED_UNIT(*) PLANE_ANGLE_UNIT() SI_UNIT($,.RADIAN.) );
#700 = ( NAMED_UNIT(*) SI_UNIT($,.STERADIAN.) SOLID_ANGLE_UNIT() );
#701 = UNCERTAINTY_MEASURE_WITH_UNIT(LENGTH_MEASURE(1.E-06),#698,
  'distance_accuracy_value','confusion accuracy');
#702 = PRODUCT_RELATED_PRODUCT_CATEGORY('part',$,(#7));
#703 = MECHANICAL_DESIGN_GEOMETRIC_PRESENTATION_REPRESENTATION('',(#704)
  ,#697);
#704 = STYLED_ITEM('color',(#705),#15);
#705 = PRESENTATION_STYLE_ASSIGNMENT((#706,#714));
#706 = SURFACE_STYLE_USAGE(.BOTH.,#707);
#707 = SURFACE_SIDE_STYLE('',(#708,#712));
#708 = SURFACE_STYLE_FILL_AREA(#709);
#709 = FILL_AREA_STYLE('',(#710));
#710 = FILL_AREA_STYLE_COLOUR('',#711);
#711 = COLOUR_RGB('',0.960784305148,0.345098051753,0.254901970902);
#712 = SURFACE_STYLE_RENDERING_WITH_PROPERTIES(.NORMAL_SHADING.,#711,(
    #713));
#713 = SURFACE_STYLE_TRANSPARENT(0.5);
#714 = CURVE_STYLE('',#715,POSITIVE_LENGTH_MEASURE(0.1),#716);
#715 = DRAUGHTING_PRE_DEFINED_CURVE_FONT('continuous');
#716 = COLOUR_RGB('',9.803921802644E-02,9.803921802644E-02,
  9.803921802644E-02);
ENDSEC;
END-ISO-10303-21;
